<svg width="24" height="24" viewBox="0 0 24 24" fill="none" xmlns="http://www.w3.org/2000/svg">
<g clip-path="url(#clip0_1561_21058)">
<path d="M21.9348 20.9578C21.9011 20.99 21.8055 21.0137 21.7559 21.0137L8.14745 21.0018C8.02704 20.9663 8.00402 20.9002 7.99693 20.7868C7.99162 20.6852 8.01287 20.4904 8.02349 20.382C8.2413 18.0451 9.82261 15.8979 12.0573 14.9411C10.3361 13.5966 9.8173 11.2411 10.8833 9.35463C12.2982 6.85179 15.8114 6.22184 18.0585 8.12014C20.3056 10.0184 20.1746 13.1783 17.9346 14.9293C19.978 15.8539 21.5045 17.6946 21.8852 19.8418C21.9294 20.0908 22.0127 20.5734 21.9932 20.8105C21.9896 20.8477 21.9613 20.9341 21.9348 20.9595V20.9578Z" fill="#171717"/>
<path d="M9.83665 14.4249C8.8837 15.0229 8.04224 15.8751 7.48302 16.8424C7.42727 16.939 7.32448 17 7.21124 17H3.18515C3.11895 16.9983 3.04752 16.9576 3.01965 16.8983C2.96739 16.7781 3.03359 16.2681 3.05449 16.1106C3.34369 13.8709 4.88548 11.8463 6.99522 10.9264C5.18687 9.48127 4.74785 6.93494 6.04923 5.01544C7.89765 2.28952 12.0858 2.32679 13.8157 5.13912C14.2094 5.77951 13.9289 5.65584 13.3837 5.76426C11.2983 6.17934 9.39763 7.89892 8.81053 9.87771C8.37151 11.3635 8.72516 13.2474 9.83491 14.3927V14.4266L9.83665 14.4249Z" fill="#171717"/>
</g>
<defs>
<clipPath id="clip0_1561_21058">
<rect width="19" height="18" fill="white" transform="translate(3 3)"/>
</clipPath>
</defs>
</svg>
