<svg width="72" height="72" viewBox="0 0 72 72" fill="none" xmlns="http://www.w3.org/2000/svg">
<g clip-path="url(#clip0_8127_36952)">
<path d="M36 72C55.8823 72 72 55.8823 72 36C72 16.1177 55.8823 0 36 0C16.1177 0 0 16.1177 0 36C0 55.8823 16.1177 72 36 72Z" fill="#FB4F4F"/>
<path d="M33.7915 14.8081H38.2052C39.145 14.8081 39.9421 15.6052 39.9421 16.545V43.1266C39.9421 44.0664 39.145 44.8635 38.2052 44.8635H33.7915C32.8517 44.8635 32.0546 44.0664 32.0546 43.1266V16.545C32.0546 15.5587 32.8284 14.7849 33.7915 14.8081Z" fill="#F7EEFF"/>
<path d="M36 57.1916C38.179 57.1916 39.9454 55.4251 39.9454 53.2462C39.9454 51.0672 38.179 49.3008 36 49.3008C33.821 49.3008 32.0546 51.0672 32.0546 53.2462C32.0546 55.4251 33.821 57.1916 36 57.1916Z" fill="#F7EEFF"/>
</g>
<defs>
<clipPath id="clip0_8127_36952">
<rect width="72" height="72" fill="white"/>
</clipPath>
</defs>
</svg>
