<svg width="60" height="60" viewBox="0 0 60 60" fill="none" xmlns="http://www.w3.org/2000/svg">
<rect width="60" height="60" rx="12" fill="#F9F0FF"/>
<path d="M29.5 10C18.4578 10 9.5 18.9511 9.5 30C9.5 41.0489 18.4511 50 29.5 50C40.5489 50 49.5 41.0489 49.5 30C49.5 18.9511 40.5489 10 29.5 10ZM36.1442 22.2901C37.9992 22.2901 39.5034 23.7943 39.5034 25.6492C39.5034 27.5042 37.9992 29.0084 36.1442 29.0084C34.2892 29.0084 32.785 27.5042 32.785 25.6492C32.785 23.7943 34.2892 22.2901 36.1442 22.2901ZM22.8626 22.2901C24.7175 22.2901 26.2217 23.7943 26.2217 25.6492C26.2217 27.5042 24.7175 29.0084 22.8626 29.0084C21.0076 29.0084 19.5034 27.5042 19.5034 25.6492C19.5034 23.7943 21.0076 22.2901 22.8626 22.2901ZM39.2336 41.5278C38.9368 41.6965 38.6197 41.7707 38.3027 41.7707C37.6349 41.7707 36.9806 41.4199 36.6298 40.7926C35.1796 38.2024 32.4545 36.597 29.5 36.597C26.5455 36.597 23.8204 38.2024 22.3702 40.7926C21.8575 41.7167 20.6906 42.0472 19.7664 41.5278C18.8423 41.0152 18.5118 39.8482 19.0312 38.9241C21.156 35.1265 25.1627 32.7723 29.4933 32.7723C33.8238 32.7723 37.8373 35.1332 39.9553 38.9241C40.468 39.8482 40.1442 41.0084 39.2201 41.5278H39.2336Z" fill="#6700CE"/>
</svg>
