<svg width="268" height="224" viewBox="0 0 268 224" fill="none" xmlns="http://www.w3.org/2000/svg">
<g clip-path="url(#clip0_7339_4914)">
<path d="M132.69 224C194.652 224 244.881 173.856 244.881 112C244.881 50.1441 194.652 0 132.69 0C70.7294 0 20.5 50.1441 20.5 112C20.5 173.856 70.7294 224 132.69 224Z" fill="#9154DD"/>
<path d="M173.272 31.173L75.6168 41.7979C70.6565 42.3376 67.0729 46.8039 67.6126 51.7736L82.1387 185.539C82.6784 190.509 87.1371 194.101 92.0974 193.561L189.752 182.936C194.713 182.396 198.296 177.93 197.756 172.96L183.23 39.1944C182.691 34.2246 178.232 30.6333 173.272 31.173Z" fill="#F8EFFF"/>
<path d="M158.879 128.416L164.189 132.693L174.944 119.284" stroke="#6700CD" stroke-width="7" stroke-linecap="round" stroke-linejoin="round"/>
<path d="M144.987 130.425L93.6847 136.009" stroke="#6700CD" stroke-width="7" stroke-linecap="round" stroke-linejoin="round"/>
<path d="M156.92 99.5416L162.23 103.819L172.985 90.4098" stroke="#6700CD" stroke-width="7" stroke-linecap="round" stroke-linejoin="round"/>
<path d="M141.866 101.684L115.706 104.532" stroke="#6700CD" stroke-width="7" stroke-linecap="round" stroke-linejoin="round"/>
<path d="M154.954 70.6718L160.263 74.9453L171.018 61.5361" stroke="#6700CD" stroke-width="7" stroke-linecap="round" stroke-linejoin="round"/>
<path d="M138.717 72.7234L113.721 75.4471" stroke="#6700CD" stroke-width="7" stroke-linecap="round" stroke-linejoin="round"/>
<path d="M160.885 157.287L166.194 161.561L176.949 148.152" stroke="#6700CD" stroke-width="7" stroke-linecap="round" stroke-linejoin="round"/>
<path d="M148.083 158.921L95.6646 164.627" stroke="#6700CD" stroke-width="7" stroke-linecap="round" stroke-linejoin="round"/>
<path d="M244.549 19.9338L236.421 17.209C234.317 16.5038 232.039 17.6413 231.335 19.7496L200.665 111.595L216.414 116.875L247.084 25.0257C247.788 22.9174 246.653 20.6354 244.549 19.9303V19.9338Z" fill="#61C89F"/>
<path d="M201.616 122.449L202.175 128.526C202.302 129.929 204.039 130.51 204.983 129.468L209.079 124.954L201.616 122.452V122.449Z" fill="#6700CD"/>
<path d="M201.616 122.449L209.079 124.954L216.414 116.871L200.665 111.592L201.616 122.449Z" fill="#61C9A0"/>
<path d="M228.382 28.6234L226.172 35.2399L241.919 40.5187L244.129 33.9022L228.382 28.6234Z" fill="#6700CD"/>
<path d="M100.526 118.011L17.2705 134.909C13.8455 135.604 10.5053 133.385 9.81184 129.953L0.62716 84.4988C-0.0663136 81.0673 2.14895 77.7208 5.57394 77.026L88.8293 60.1273C92.2543 59.4325 95.5946 61.6519 96.288 65.0834L105.477 110.538C106.17 113.969 103.955 117.316 100.53 118.011H100.526Z" fill="#6700CD"/>
<path d="M40.402 81.8883L14.5131 87.1371C12.4547 87.5545 11.1237 89.5646 11.5403 91.6268L17.0573 118.942C17.4739 121.004 19.4802 122.338 21.5386 121.92L47.4274 116.671C49.4858 116.254 50.8168 114.244 50.4002 112.182L44.8832 84.8667C44.4666 82.8045 42.4603 81.471 40.402 81.8883Z" fill="#F8EFFF"/>
<path d="M34.3492 108.114L33.7482 105.146C36.029 103.748 37.3042 101.027 36.7417 98.2555C36.0251 94.7083 32.5732 92.4155 29.0326 93.1334C25.492 93.8514 23.2036 97.3099 23.9201 100.857C24.4826 103.632 26.7133 105.64 29.3562 106.037L29.9572 109.017C24.2361 110.395 20.5876 116.069 21.7627 121.894L47.2016 116.733C46.0034 110.808 40.2592 106.967 34.3415 108.118L34.3492 108.114Z" fill="#6700CD"/>
<path d="M58.6016 111.522L84.1484 106.257" stroke="#F8EFFF" stroke-width="5.45918" stroke-linecap="round" stroke-linejoin="round"/>
<path d="M56.2322 100.433L92.3583 93.0948" stroke="#F8EFFF" stroke-width="5.45918" stroke-linecap="round" stroke-linejoin="round"/>
</g>
<defs>
<clipPath id="clip0_7339_4914">
<rect width="267" height="224" fill="white" transform="translate(0.5)"/>
</clipPath>
</defs>
</svg>
