<svg width="60" height="60" viewBox="0 0 60 60" fill="none" xmlns="http://www.w3.org/2000/svg">
<rect width="60" height="60" rx="12" fill="#EFEFEF"/>
<path d="M29.5 10C18.4511 10 9.5 18.9511 9.5 30C9.5 41.0489 18.4511 50 29.5 50C40.5489 50 49.5 41.0489 49.5 30C49.5 18.9511 40.5422 10 29.5 10ZM19.4966 25.6492C19.4966 23.7943 21.0008 22.2901 22.8558 22.2901C24.7108 22.2901 26.215 23.7943 26.215 25.6492C26.215 27.5042 24.7108 29.0084 22.8558 29.0084C21.0008 29.0084 19.4966 27.5042 19.4966 25.6492ZM36.1374 38.4722H22.8626C21.8035 38.4722 20.9536 37.6155 20.9536 36.5632C20.9536 35.511 21.8103 34.6543 22.8626 34.6543H36.1374C37.1965 34.6543 38.0464 35.511 38.0464 36.5632C38.0464 37.6155 37.1897 38.4722 36.1374 38.4722ZM36.1374 29.0084C34.2825 29.0084 32.7782 27.5042 32.7782 25.6492C32.7782 23.7943 34.2825 22.2901 36.1374 22.2901C37.9924 22.2901 39.4966 23.7943 39.4966 25.6492C39.4966 27.5042 37.9924 29.0084 36.1374 29.0084Z" fill="#CACACA"/>
</svg>
