<svg width="258" height="62" viewBox="0 0 258 62" fill="none" xmlns="http://www.w3.org/2000/svg">
<g clip-path="url(#clip0_1159_17993)">
<path d="M185.47 6.18896H185.456C182.965 6.18896 180.945 8.2121 180.945 10.7078V10.7218C180.945 13.2174 182.965 15.2406 185.456 15.2406H185.47C187.961 15.2406 189.98 13.2174 189.98 10.7218V10.7078C189.98 8.2121 187.961 6.18896 185.47 6.18896Z" fill="#171717"/>
<path d="M189.042 18.2437H181.898V46.5352H189.042V18.2437Z" fill="#171717"/>
<path d="M76.647 18.2437C71.3243 18.2437 66.4637 20.9241 62.7518 25.3025V18.2437H55.5801V46.5352H62.7518V45.6932C63.06 34.6067 69.2792 25.3867 76.647 25.3867V46.5212H83.8187V18.2437H76.647Z" fill="#171717"/>
<path d="M168.17 18.2437C162.848 18.2437 157.987 20.9241 154.275 25.3026V6.18896H147.104V46.5353H154.275V45.6933C154.583 34.6068 160.803 25.3868 168.17 25.3868V46.5212H175.342V18.2437H168.17Z" fill="#171717"/>
<path d="M216.651 18.2437C211.328 18.2437 206.468 20.9241 202.756 25.3025V18.2437H195.584V46.5352H202.756V45.6932C203.064 34.6067 209.283 25.3867 216.651 25.3867V46.5212H223.823V18.2437H216.651Z" fill="#171717"/>
<path d="M102.715 39.3782C101.16 39.3782 99.7315 38.845 98.5549 37.9749C102.869 36.754 106.665 34.7752 109.677 32.2632C109.985 32.0106 110.265 31.73 110.545 31.4633C111.161 30.902 111.736 30.3126 112.268 29.6951C112.282 29.667 112.31 29.653 112.324 29.6249C113.417 28.3479 114.355 27.0007 115.069 25.5552C113.781 23.2116 111.834 21.289 109.495 19.998C107.478 18.8893 105.166 18.2578 102.715 18.2578C94.983 18.2578 88.7078 24.4887 88.5957 32.2071C88.5957 32.2773 88.5957 32.3334 88.5957 32.4036C88.5957 34.9015 89.254 37.2592 90.3886 39.294C92.7979 43.6163 97.4203 46.5493 102.715 46.5493C107.702 46.5493 112.058 43.9391 114.565 40.0238L108.682 35.9541C107.463 38.0029 105.264 39.3923 102.715 39.3923V39.3782ZM102.715 25.4009C103.836 25.4009 104.872 25.6956 105.811 26.1587C103.345 28.4602 99.8716 30.2705 95.8375 31.2809C96.3697 27.955 99.2272 25.4009 102.701 25.4009H102.715Z" fill="#171717"/>
<path d="M256.278 25.4007H258.001V18.2437H256.278C253.21 18.2437 250.283 18.6226 247.523 19.3102C245.87 18.6226 244.063 18.2437 242.158 18.2437C234.356 18.2437 228.039 24.5728 228.039 32.3894C228.039 40.2061 234.356 46.5352 242.158 46.5352C245.24 46.5352 248.083 45.5388 250.395 43.8548C250.689 44.6968 250.857 45.5949 250.857 46.5352C250.857 51.1101 247.145 54.829 242.579 54.829C238.867 54.829 235.729 52.3731 234.678 49.0051L228.053 51.6574C230.168 57.6778 235.869 61.9861 242.593 61.9861C251.109 61.9861 258.015 55.0676 258.015 46.5352C258.015 43.2513 256.978 40.2341 255.241 37.7362C255.914 36.0802 256.292 34.2839 256.292 32.3894C256.292 29.8774 255.633 27.5338 254.485 25.4849C255.087 25.4428 255.675 25.4007 256.292 25.4007H256.278ZM242.158 39.3781C238.306 39.3781 235.183 36.2486 235.183 32.3894C235.183 28.5302 238.306 25.4007 242.158 25.4007C246.01 25.4007 249.134 28.5302 249.134 32.3894C249.134 36.2486 246.01 39.3781 242.158 39.3781Z" fill="#171717"/>
<path d="M138.265 31.8422C135.688 36.4171 131.878 39.3922 127.718 39.3922V25.4149H138.265V18.2578H127.718V6.18896H120.574V46.5353H127.718C134.455 46.5353 140.437 42.2691 144.303 35.6593L138.279 31.8282L138.265 31.8422Z" fill="#171717"/>
<path d="M24.9049 7.95699C34.2618 7.95699 41.8677 15.5772 41.8677 24.9516C41.8677 34.3259 34.2618 41.9461 24.9049 41.9461C15.5481 41.9461 7.94213 34.3259 7.94213 24.9516C7.94213 15.5772 15.5481 7.95699 24.9049 7.95699ZM24.9049 0C11.1498 0 0 11.1707 0 24.9516C0 38.7325 11.1498 49.9031 24.9049 49.9031C38.6601 49.9031 49.8099 38.7325 49.8099 24.9516C49.8099 11.1707 38.6601 0 24.9049 0Z" fill="#171717"/>
</g>
<defs>
<clipPath id="clip0_1159_17993">
<rect width="258" height="62" fill="white"/>
</clipPath>
</defs>
</svg>
