<svg width="242" height="144" viewBox="0 0 242 144" fill="none" xmlns="http://www.w3.org/2000/svg">
<g clip-path="url(#clip0_5921_30583)">
<path d="M99.7859 119.678C98.5953 121.719 96.2869 123.959 92.8513 123.959C90.7609 123.959 88.8662 123.077 87.4763 121.644L87.2527 121.405C91.9757 120.097 96.5329 116.932 100.183 113.196C101.595 111.75 102.871 110.217 103.969 108.673C103.969 108.673 103.646 108.123 103.514 107.921C100.494 103.302 94.4555 100.899 89.0581 102.096C83.6606 103.293 79.232 107.962 78.252 113.389C77.3931 118.147 79.1854 123.235 82.6769 126.555C86.1963 129.903 91.3348 131.313 96.0615 130.074C100.06 129.026 103.527 126.118 105.249 122.371C103.445 121.481 99.8026 119.686 99.7859 119.677V119.678ZM85.1325 115.857C85.1325 115.825 85.1306 115.795 85.1306 115.764C85.1306 114.039 85.6336 112.441 86.4888 111.12C87.0496 110.338 87.834 109.573 88.9295 108.915C93.2538 106.316 96.8198 109.004 96.8198 109.004C96.8198 109.004 95.4485 110.528 94.6288 111.232C92.7582 112.839 90.3846 114.339 88.0967 115.271C87.1446 115.66 86.0361 115.949 85.1586 116.107C85.1586 116.107 85.1455 116.016 85.1325 115.858V115.857Z" fill="white"/>
<path d="M174.237 102.226H167.262V129.892H174.237V102.226Z" fill="white"/>
<path d="M170.749 90.6934C168.308 90.6934 166.32 92.674 166.32 95.1099C166.32 97.5457 168.306 99.5264 170.749 99.5264C173.191 99.5264 175.178 97.5457 175.178 95.1099C175.178 92.674 173.191 90.6934 170.749 90.6934Z" fill="white"/>
<path d="M200.282 102.091C195.484 102.267 190.882 104.408 187.495 108.313V102.091H180.52V129.894H187.495V121.537C187.495 112.271 194.998 108.194 200.282 108.194V129.894H207.304V102.091H200.282Z" fill="white"/>
<path d="M65.8558 102.091C61.0583 102.267 56.4564 104.408 53.0693 108.313V102.091H46.0938V129.894H53.0693V121.537C53.0693 112.271 60.572 108.194 65.8558 108.194V129.894H72.8779V102.091H65.8558Z" fill="white"/>
<path d="M20.4421 90.1157C8.80508 90.1157 0 99.2237 0 110.459C0 121.695 8.80508 130.803 20.4421 130.803C32.0791 130.803 40.8842 121.695 40.8842 110.459C40.8842 99.2237 32.0791 90.1157 20.4421 90.1157ZM20.4421 123.93C13.1797 123.93 8.23683 117.899 8.23683 110.459C8.23683 103.02 13.1797 96.9885 20.4421 96.9885C27.7045 96.9885 32.6474 103.02 32.6474 110.459C32.6474 117.899 27.7045 123.93 20.4421 123.93Z" fill="white"/>
<path d="M240.437 115.557C240.437 113.025 239.487 109.944 238.348 107.882C239.438 107.505 241.92 107.57 241.92 107.57V101.671C241.814 101.669 239.311 101.568 236.932 101.866C234.551 102.163 232.817 102.903 232.817 102.903C231.047 102.078 228.634 101.36 226.564 101.36C218.845 101.36 212.566 107.691 212.566 115.559C212.566 123.428 218.845 129.857 226.564 129.857C229.582 129.857 232.379 128.922 234.667 127.259C234.862 127.963 234.965 128.701 234.965 129.455C234.965 133.877 231.114 137.476 227.404 137.476C223.695 137.476 220.652 135.843 218.64 132.491L213.291 135.182C216.224 141.815 222.027 144.004 227.404 144.004C235.622 144.004 242.004 137.835 242.004 129.457C242.004 126.41 240.966 123.909 239.358 121.451C240.032 119.781 240.437 117.477 240.437 115.561V115.557ZM226.501 122.82C222.834 122.82 219.861 119.586 219.861 115.556C219.861 111.526 222.834 108.391 226.501 108.391C230.167 108.391 233.141 111.527 233.141 115.556C233.141 119.584 230.167 122.82 226.501 122.82Z" fill="white"/>
<path d="M152.782 102.09C147.984 102.267 143.382 104.407 139.995 108.313V91.0278H133.02V129.894H139.995V121.536C139.995 112.271 147.498 108.194 152.782 108.194V129.894H159.804V102.09H152.782Z" fill="white"/>
<path d="M115.967 123.63V108.298H125.216V102.228H115.967V91.0278H108.945V129.894H114.266C120.046 129.894 125.302 127.605 128.689 123.744L124.586 120.297C122.013 122.583 118.697 123.63 115.969 123.63H115.967Z" fill="white"/>
<path d="M117.576 0C97.9969 0 82.125 15.8284 82.125 35.3543C82.125 54.8802 97.9969 70.7087 117.576 70.7087C137.156 70.7087 153.028 54.8802 153.028 35.3543C153.028 15.8284 137.156 0 117.576 0ZM144.383 43.9607H144.415V43.9811L144.383 44.0127V43.9625V43.9607Z" fill="white"/>
<path d="M125.492 45.6255V55.5009H125.563L137.778 43.3197V43.2695H127.855C126.554 43.2695 125.492 44.3305 125.492 45.6255Z" fill="#61C9A0"/>
<path d="M135.423 15.208H99.7242C98.4312 15.208 97.3711 16.2634 97.3711 17.5547V53.1561C97.3711 54.4456 98.4293 55.5028 99.7242 55.5028H125.489V45.6275C125.489 44.3306 126.553 43.2715 127.852 43.2715H137.775V17.5547C137.775 16.2652 136.716 15.208 135.421 15.208H135.423Z" fill="#6700CE"/>
<path d="M111.18 31.6234L113.35 33.9627L117.019 30.5681V44.6537H120.544V26.2129H117.019L111.18 31.6234Z" fill="white"/>
</g>
<defs>
<clipPath id="clip0_5921_30583">
<rect width="242" height="144" fill="white"/>
</clipPath>
</defs>
</svg>
