<svg width="15" height="15" viewBox="0 0 15 15" fill="none" xmlns="http://www.w3.org/2000/svg">
<path d="M12.6308 0.56096C13.0213 0.170435 13.6543 0.170435 14.0448 0.56096C14.4354 0.951484 14.4354 1.5845 14.0448 1.97502L8.75188 7.26799L14.0448 12.561C14.4354 12.9515 14.4354 13.5845 14.0448 13.975C13.6543 14.3655 13.0213 14.3655 12.6308 13.975L7.33782 8.68205L2.04485 13.975C1.65432 14.3655 1.02131 14.3655 0.630784 13.975C0.24026 13.5845 0.24026 12.9515 0.630784 12.561L5.92375 7.26799L0.630784 1.97502C0.24026 1.5845 0.24026 0.951484 0.630784 0.56096C1.02131 0.170435 1.65432 0.170435 2.04485 0.56096L7.33782 5.85393L12.6308 0.56096Z" fill="#989898"/>
</svg>
