<svg width="60" height="60" viewBox="0 0 60 60" fill="none" xmlns="http://www.w3.org/2000/svg">
<rect width="60" height="60" rx="12" fill="#F9F0FF"/>
<path d="M29.5 10C18.4511 10 9.5 18.9511 9.5 30C9.5 41.0489 18.4511 50 29.5 50C40.5489 50 49.5 41.0489 49.5 30C49.5 18.9511 40.5422 10 29.5 10ZM36.1374 22.2901C37.9924 22.2901 39.4966 23.7943 39.4966 25.6492C39.4966 27.5042 37.9924 29.0084 36.1374 29.0084C34.2825 29.0084 32.7782 27.5042 32.7782 25.6492C32.7782 23.7943 34.2825 22.2901 36.1374 22.2901ZM22.8626 22.2901C24.7175 22.2901 26.2218 23.7943 26.2218 25.6492C26.2218 27.5042 24.7175 29.0084 22.8626 29.0084C21.0076 29.0084 19.5034 27.5042 19.5034 25.6492C19.5034 23.7943 21.0076 22.2901 22.8626 22.2901ZM40.7513 36.7049C38.4646 40.5363 34.2825 43.1062 29.4933 43.1062C24.704 43.1062 20.5219 40.5363 18.2352 36.7049C17.7293 35.8617 18.3634 34.7825 19.3482 34.7825H39.6383C40.6231 34.7825 41.2572 35.855 40.7513 36.7049Z" fill="#6700CE"/>
</svg>
