<svg width="44" height="44" viewBox="0 0 44 44" fill="none" xmlns="http://www.w3.org/2000/svg">
<g clip-path="url(#clip0_6152_15293)">
<path d="M12.9317 42C18.9691 42 23.8634 37.2733 23.8634 31.4426C23.8634 25.612 18.9691 20.8853 12.9317 20.8853C6.8943 20.8853 2 25.612 2 31.4426C2 37.2733 6.8943 42 12.9317 42Z" fill="#FFCF6A"/>
<path d="M13.1288 33.5117H4.44531V41.9999H13.1288V33.5117Z" fill="#FFCF6A"/>
<path d="M15.9727 31.4426C15.9727 32.244 16.6064 32.8925 17.4513 32.8925C18.2963 32.8925 18.93 32.244 18.93 31.4426C18.93 30.6411 18.2963 29.9927 17.4513 29.9927C16.6064 29.9927 15.9727 30.6411 15.9727 31.4426Z" fill="#6700CE"/>
<path d="M11.4531 31.4426C11.4531 32.244 12.0868 32.8925 12.9318 32.8925C13.7768 32.8925 14.4105 32.244 14.4105 31.4426C14.4105 30.6411 13.7768 29.9927 12.9318 29.9927C12.0868 29.9927 11.4531 30.6411 11.4531 31.4426Z" fill="#6700CE"/>
<path d="M6.94141 31.4426C6.94141 32.244 7.57513 32.8925 8.42009 32.8925C9.26506 32.8925 9.89878 32.244 9.89878 31.4426C9.89878 30.6411 9.26506 29.9927 8.42009 29.9927C7.57513 29.9927 6.94141 30.6411 6.94141 31.4426Z" fill="#6700CE"/>
<path d="M38.5357 18.9263H26.9023V30.2997H38.5357V18.9263Z" fill="#6700CE"/>
<path d="M27.3464 30.2987C35.438 30.2987 41.9975 23.9638 41.9975 16.1494C41.9975 8.33488 35.438 2 27.3464 2C19.2548 2 12.6953 8.33488 12.6953 16.1494C12.6953 23.9638 19.2548 30.2987 27.3464 30.2987Z" fill="#6700CE"/>
<path d="M31.0156 16.1494C31.0156 17.082 31.755 17.8324 32.7357 17.8324C33.7165 17.8324 34.4558 17.0747 34.4558 16.1494C34.4558 15.224 33.7165 14.4663 32.7357 14.4663C31.755 14.4663 31.0156 15.2168 31.0156 16.1494Z" fill="#61C9A0"/>
<path d="M25.6289 16.1494C25.6289 17.082 26.3682 17.8324 27.349 17.8324C28.3298 17.8324 29.0691 17.0747 29.0691 16.1494C29.0691 15.224 28.3298 14.4663 27.349 14.4663C26.3682 14.4663 25.6289 15.2168 25.6289 16.1494Z" fill="#61C9A0"/>
<path d="M20.2422 16.1494C20.2422 17.082 20.9815 17.8324 21.9623 17.8324C22.9431 17.8324 23.6824 17.0747 23.6824 16.1494C23.6824 15.224 22.9431 14.4663 21.9623 14.4663C20.9815 14.4663 20.2422 15.2168 20.2422 16.1494Z" fill="#61C9A0"/>
</g>
<defs>
<clipPath id="clip0_6152_15293">
<rect width="40" height="40" fill="white" transform="translate(2 2)"/>
</clipPath>
</defs>
</svg>
