<svg width="18" height="18" viewBox="0 0 18 18" fill="none" xmlns="http://www.w3.org/2000/svg">
<mask id="mask0_8996_4261" style="mask-type:alpha" maskUnits="userSpaceOnUse" x="0" y="0" width="18" height="18">
<rect width="18" height="18" fill="#D9D9D9"/>
</mask>
<g mask="url(#mask0_8996_4261)">
<path d="M1.5 14.25V12.75H16.5V14.25H1.5ZM2.25 12V11.25C2.25 9.65 2.74063 8.2375 3.72188 7.0125C4.70312 5.7875 5.9625 5.0125 7.5 4.6875V4.5C7.5 4.0875 7.64688 3.73438 7.94063 3.44063C8.23438 3.14688 8.5875 3 9 3C9.4125 3 9.76562 3.14688 10.0594 3.44063C10.3531 3.73438 10.5 4.0875 10.5 4.5V4.6875C12.05 5.0125 13.3125 5.7875 14.2875 7.0125C15.2625 8.2375 15.75 9.65 15.75 11.25V12H2.25ZM3.7875 10.5H14.2125C14.0375 9.2 13.4563 8.125 12.4688 7.275C11.4812 6.425 10.325 6 9 6C7.675 6 6.52188 6.425 5.54063 7.275C4.55938 8.125 3.975 9.2 3.7875 10.5Z" fill="#171717"/>
</g>
</svg>
