<svg width="40" height="40" viewBox="0 0 40 40" fill="none" xmlns="http://www.w3.org/2000/svg">
<g clip-path="url(#clip0_6567_7886)">
<path d="M37.127 10.5533C37.127 7.51813 34.6693 5.04834 31.627 5.04834C28.5846 5.04834 26.127 7.50821 26.127 10.5533C26.127 11.8626 26.5828 13.0727 27.3558 14.015V16.0483H31.7161C34.7188 15.9987 37.127 13.5587 37.127 10.5533Z" fill="#7CC5A2"/>
<path d="M33.2089 10.5685C33.2089 10.9876 33.5223 11.3269 33.9435 11.3269C34.3647 11.3269 34.6782 10.9876 34.6782 10.5685C34.6782 10.1495 34.3647 9.81018 33.9435 9.81018C33.5223 9.81018 33.2089 10.1495 33.2089 10.5685Z" fill="#681FCC"/>
<path d="M30.9656 10.5685C30.9656 10.9876 31.279 11.3269 31.7002 11.3269C32.1214 11.3269 32.4349 10.9876 32.4349 10.5685C32.4349 10.1495 32.1214 9.81018 31.7002 9.81018C31.279 9.81018 30.9656 10.1495 30.9656 10.5685Z" fill="#681FCC"/>
<path d="M28.7128 10.5685C28.7128 10.9876 29.0262 11.3269 29.4474 11.3269C29.8686 11.3269 30.1821 10.9876 30.1821 10.5685C30.1821 10.1495 29.8686 9.81018 29.4474 9.81018C29.0262 9.81018 28.7128 10.1495 28.7128 10.5685Z" fill="#681FCC"/>
<path d="M21.8844 25.689V23.5235C24.197 22.6627 25.8513 20.4066 25.8513 17.7518C25.8513 14.354 23.1474 11.6086 19.8208 11.6086C16.4943 11.6086 13.7903 14.3631 13.7903 17.7518C13.7903 20.4066 15.4447 22.6718 17.7573 23.5235V25.689C12.3405 25.8883 8 30.4277 8 36.0001H31.9352C31.9352 30.3281 27.4701 25.8883 21.8844 25.689Z" fill="#6700CC"/>
</g>
<defs>
<clipPath id="clip0_6567_7886">
<rect width="36" height="32" fill="white" transform="translate(2 4)"/>
</clipPath>
</defs>
</svg>
