<svg width="25" height="24" viewBox="0 0 25 24" fill="none" xmlns="http://www.w3.org/2000/svg">
<path d="M18.7321 15.0961C19.5374 15.8984 20.179 16.8496 20.6212 17.8969C21.0571 18.9258 21.2891 20.0156 21.3126 21.1359C21.3132 21.161 21.3088 21.1858 21.2997 21.2091C21.2905 21.2324 21.2768 21.2537 21.2593 21.2716C21.2419 21.2895 21.221 21.3037 21.1979 21.3134C21.1749 21.3231 21.1501 21.3281 21.1251 21.3281H19.7188H5.28131H3.87506C3.85004 21.3281 3.82527 21.3231 3.80221 21.3134C3.77915 21.3037 3.75826 21.2895 3.74079 21.2716C3.72332 21.2537 3.70961 21.2324 3.70046 21.2091C3.69132 21.1858 3.68693 21.161 3.68756 21.1359C3.70908 20.0228 3.94378 18.924 4.37896 17.8992C4.82194 16.8524 5.46344 15.9013 6.26803 15.0984C7.07662 14.2875 8.01881 13.6523 9.06881 13.2094C9.07818 13.2047 9.08756 13.2023 9.09693 13.1977C7.63678 12.1406 6.68756 10.4227 6.68756 8.48438C6.68756 5.27344 9.28912 2.67188 12.5001 2.67188C15.711 2.67188 18.3126 5.27344 18.3126 8.48438C18.3126 10.4227 17.3633 12.1406 15.9032 13.1953C15.9126 13.2 15.9219 13.2023 15.9313 13.207C16.9781 13.65 17.9292 14.2915 18.7321 15.0961Z" fill="#989898"/>
</svg>
