<svg width="36" height="36" viewBox="0 0 36 36" fill="none" xmlns="http://www.w3.org/2000/svg">
<g clip-path="url(#clip0_5856_32243)">
<path d="M29.7565 20.9121C29.7565 19.8715 30.5422 19.0202 31.5025 19.0202V13.9932H10.2891V18.9797C11.2493 18.9797 12.035 19.831 12.035 20.8715C12.035 21.9121 11.2493 22.7634 10.2891 22.7634V27.7499H31.5025V22.804C30.5422 22.804 29.7565 21.9526 29.7565 20.9121Z" fill="#D3ADF7"/>
<path d="M25.0898 15.5743C25.0898 14.4662 25.9129 13.5743 26.9356 13.5743V8.25H4.5V13.5203C5.52263 13.5203 6.34573 14.4122 6.34573 15.5203C6.34573 16.6284 5.52263 17.5203 4.5 17.5203V22.7905H26.9356V17.5608C25.9129 17.5608 25.0898 16.6689 25.0898 15.5608V15.5743Z" fill="#6700CE"/>
<path d="M13.6647 15.2092C12.6919 15.2092 11.9062 14.3579 11.9062 13.3038C11.9062 12.2498 12.6919 11.3984 13.6647 11.3984C14.6374 11.3984 15.4231 12.2498 15.4231 13.3038C15.4231 14.3579 14.6374 15.2092 13.6647 15.2092ZM13.6647 12.1552C13.0785 12.1552 12.6046 12.6687 12.6046 13.3038C12.6046 13.939 13.0785 14.4525 13.6647 14.4525C14.2508 14.4525 14.7247 13.939 14.7247 13.3038C14.7247 12.6687 14.2508 12.1552 13.6647 12.1552Z" fill="white"/>
<path d="M17.7662 19.6555C16.7935 19.6555 16.0078 18.8042 16.0078 17.7501C16.0078 16.6961 16.7935 15.8447 17.7662 15.8447C18.739 15.8447 19.5247 16.6961 19.5247 17.7501C19.5247 18.8042 18.739 19.6555 17.7662 19.6555ZM17.7662 16.6015C17.1801 16.6015 16.7062 17.115 16.7062 17.7501C16.7062 18.3853 17.1801 18.8988 17.7662 18.8988C18.3524 18.8988 18.8263 18.3853 18.8263 17.7501C18.8263 17.115 18.3524 16.6015 17.7662 16.6015Z" fill="white"/>
<path d="M18.1317 12.4273L12.9023 18.0938L13.405 18.6384L18.6343 12.972L18.1317 12.4273Z" fill="white"/>
</g>
<defs>
<clipPath id="clip0_5856_32243">
<rect width="27" height="19.5" fill="white" transform="translate(4.5 8.25)"/>
</clipPath>
</defs>
</svg>
