<svg width="24" height="24" viewBox="0 0 24 24" fill="none" xmlns="http://www.w3.org/2000/svg">
<g clip-path="url(#clip0_3593_4366)">
<path d="M19 10.9675C19 7.94715 15.8668 5.5 12 5.5C8.13319 5.5 5 7.94715 5 10.9675C5 13.9878 8.13319 16.435 12 16.435V18.162C12 18.3898 12.2293 18.5588 12.4585 18.4927C19.1987 16.5379 19 10.9675 19 10.9675ZM8.38537 12.0919C7.73581 12.0919 7.20852 11.5848 7.20852 10.9601C7.20852 10.3355 7.73581 9.82843 8.38537 9.82843C9.03493 9.82843 9.56223 10.3355 9.56223 10.9601C9.56223 11.5848 9.03493 12.0919 8.38537 12.0919ZM12 12.0919C11.3504 12.0919 10.8231 11.5848 10.8231 10.9601C10.8231 10.3355 11.3504 9.82843 12 9.82843C12.6496 9.82843 13.1769 10.3355 13.1769 10.9601C13.1769 11.5848 12.6496 12.0919 12 12.0919ZM15.6146 12.0919C14.9651 12.0919 14.4378 11.5848 14.4378 10.9601C14.4378 10.3355 14.9651 9.82843 15.6146 9.82843C16.2642 9.82843 16.7915 10.3355 16.7915 10.9601C16.7915 11.5848 16.2642 12.0919 15.6146 12.0919Z" fill="#171717"/>
</g>
<defs>
<clipPath id="clip0_3593_4366">
<rect width="14" height="13" fill="white" transform="translate(5 5.5)"/>
</clipPath>
</defs>
</svg>
