<svg width="24" height="24" viewBox="0 0 24 24" fill="none" xmlns="http://www.w3.org/2000/svg">
<path fill-rule="evenodd" clip-rule="evenodd" d="M11.8501 2C10.0333 2 8.29101 2.72169 7.00638 4.00632C5.72176 5.29094 5.00007 7.03327 5.00007 8.85C5.00007 12.2248 4.27806 14.3319 3.60385 15.568C3.26558 16.1881 2.93471 16.5976 2.70176 16.8435C2.58506 16.9667 2.49235 17.0495 2.43482 17.0974C2.40604 17.1214 2.38603 17.1367 2.37619 17.144L2.37025 17.1484C2.06445 17.3575 1.92896 17.741 2.03654 18.0963C2.14508 18.4548 2.4755 18.7 2.85007 18.7H8.09412C8.48108 20.4174 10.0157 21.7001 11.85 21.7001C13.6843 21.7001 15.2189 20.4174 15.6059 18.7H20.8501C21.2246 18.7 21.555 18.4548 21.6636 18.0963C21.7712 17.741 21.6357 17.3575 21.3299 17.1484L21.3239 17.144C21.3141 17.1367 21.2941 17.1214 21.2653 17.0974C21.2078 17.0495 21.1151 16.9667 20.9984 16.8435C20.7654 16.5976 20.4346 16.1881 20.0963 15.568C19.4221 14.3319 18.7001 12.2248 18.7001 8.85C18.7001 7.03327 17.9784 5.29094 16.6937 4.00632C15.4091 2.72169 13.6668 2 11.8501 2ZM13.8255 18.7H9.87452C10.204 19.4647 10.9645 20.0001 11.85 20.0001C12.7355 20.0001 13.496 19.4647 13.8255 18.7ZM18.6039 16.382C18.7271 16.6079 18.8509 16.8135 18.9729 17H4.72725C4.84919 16.8135 4.97307 16.6079 5.09628 16.382C5.92207 14.8681 6.70007 12.4752 6.70007 8.85C6.70007 7.48414 7.24265 6.17421 8.20847 5.2084C9.17428 4.24259 10.4842 3.7 11.8501 3.7C13.2159 3.7 14.5259 4.24259 15.4917 5.2084C16.4575 6.17421 17.0001 7.48413 17.0001 8.85C17.0001 12.4752 17.7781 14.8681 18.6039 16.382Z" fill="#171717"/>
</svg>
