<svg width="40" height="40" viewBox="0 0 40 40" fill="none" xmlns="http://www.w3.org/2000/svg">
<g clip-path="url(#clip0_6567_7887)">
<path d="M29.5303 33H10.4697C8.54851 33 7 31.4515 7 29.5303V10.4697C7 8.54851 8.54851 7 10.4697 7H29.5303C31.4515 7 33 8.54851 33 10.4697V29.5303C33 31.4515 31.4365 33 29.5303 33Z" fill="#6602CA"/>
<path d="M26.3285 18.1984H21.7866V13.6565C21.7866 13.1204 21.3552 12.7039 20.834 12.7039H19.1659C18.6298 12.7039 18.2133 13.1353 18.2133 13.6565V18.1984H13.6714C13.1352 18.1984 12.7188 18.6298 12.7188 19.151V20.8191C12.7188 21.3552 13.1502 21.7717 13.6714 21.7717H18.2133V26.3137C18.2133 26.8498 18.6447 27.2663 19.1659 27.2663H20.834C21.3701 27.2663 21.7866 26.8348 21.7866 26.3137V21.7717H26.3285C26.8646 21.7717 27.2811 21.3403 27.2811 20.8191V19.151C27.2811 18.6298 26.8497 18.1984 26.3285 18.1984Z" fill="#FFCF6A"/>
</g>
<defs>
<clipPath id="clip0_6567_7887">
<rect width="26" height="26" fill="white" transform="translate(7 7)"/>
</clipPath>
</defs>
</svg>
