<svg width="40" height="40" viewBox="0 0 40 40" fill="none" xmlns="http://www.w3.org/2000/svg">
<g clip-path="url(#clip0_6567_7888)">
<path d="M20 34C27.732 34 34 27.732 34 20C34 12.268 27.732 6 20 6C12.268 6 6 12.268 6 20C6 27.732 12.268 34 20 34Z" fill="#5D1DC1"/>
<path d="M20 30.8085C25.9694 30.8085 30.8085 25.9694 30.8085 20C30.8085 14.0306 25.9694 9.19141 20 9.19141C14.0306 9.19141 9.19141 14.0306 9.19141 20C9.19141 25.9694 14.0306 30.8085 20 30.8085Z" fill="#7CC5A2"/>
<path d="M26.4887 19.2948H25.0693L25.7922 17.4522C25.9421 17.0643 25.757 16.6323 25.369 16.4824C24.9811 16.3325 24.5491 16.5177 24.3993 16.9056L22.4333 21.8955L20.7053 16.932V16.9232C20.6965 16.9056 20.6965 16.8968 20.6877 16.8791C20.6877 16.8703 20.6789 16.8615 20.6789 16.8527C20.6701 16.8439 20.6701 16.8351 20.6612 16.8174C20.6524 16.8086 20.6524 16.791 20.6436 16.7822C20.6436 16.7734 20.6348 16.7645 20.626 16.7645C20.6172 16.7469 20.6083 16.7381 20.5995 16.7205C20.5995 16.7116 20.5907 16.7116 20.5907 16.7028C20.5819 16.6852 20.5731 16.6764 20.5554 16.6587L20.529 16.6323L20.5025 16.6058C20.4937 16.597 20.4761 16.5882 20.4673 16.5706L20.4496 16.5529C20.4408 16.5441 20.4232 16.5353 20.4144 16.5265C20.4056 16.5177 20.3968 16.5177 20.3879 16.5089C20.3791 16.5001 20.3703 16.5001 20.3527 16.4912C20.3439 16.4824 20.3262 16.4824 20.3174 16.4736C20.3086 16.4736 20.2998 16.4648 20.291 16.4648C20.2733 16.456 20.2645 16.456 20.2469 16.4472H20.2381C20.2292 16.4472 20.2204 16.4472 20.2204 16.4383C20.2028 16.4295 20.194 16.4295 20.1763 16.4207C20.1675 16.4207 20.1587 16.4207 20.1499 16.4119C20.1323 16.4119 20.1235 16.4031 20.1058 16.4031H19.8854C19.8766 16.4031 19.859 16.4119 19.8502 16.4119C19.8413 16.4119 19.8325 16.4119 19.8149 16.4207C19.7973 16.4207 19.7884 16.4295 19.7708 16.4295C19.762 16.4295 19.7532 16.4295 19.7444 16.4383H19.7355C19.7179 16.4472 19.7091 16.4472 19.6915 16.456C19.6826 16.456 19.6738 16.4648 19.665 16.4648C19.6562 16.4736 19.6474 16.4736 19.6386 16.4824C19.6297 16.4912 19.6121 16.4912 19.6033 16.5001C19.5945 16.5001 19.5945 16.5089 19.5857 16.5089C19.568 16.5177 19.5592 16.5265 19.5416 16.5353L19.5328 16.5441C19.5151 16.553 19.5063 16.5706 19.4887 16.5794L19.4711 16.597L19.4358 16.6323C19.427 16.6411 19.4182 16.6587 19.4093 16.6676L19.3917 16.6852C19.3829 16.694 19.3741 16.7116 19.3653 16.7205C19.3564 16.7293 19.3564 16.7381 19.3476 16.7381C19.3388 16.7469 19.3388 16.7645 19.33 16.7734C19.3212 16.7822 19.3212 16.791 19.3124 16.8086C19.3036 16.8174 19.3036 16.8263 19.3036 16.8351C19.2947 16.8527 19.2947 16.8615 19.2859 16.8791V16.888L17.558 21.8955L15.592 16.8968C15.4421 16.5089 15.0101 16.3237 14.6222 16.4736C14.2343 16.6235 14.0491 17.0643 14.199 17.4434L14.9219 19.2859H13.5025C13.0882 19.2859 12.7532 19.621 12.7532 20.0353C12.7532 20.4497 13.0882 20.7847 13.5025 20.7847H15.5126L16.9056 24.32C17.0202 24.6109 17.2935 24.796 17.602 24.796H17.6197C17.9371 24.7872 18.2104 24.5933 18.3161 24.2935L20 19.4446L21.6839 24.2935C21.7897 24.5933 22.063 24.7872 22.3804 24.796H22.398C22.7066 24.796 22.9799 24.6109 23.0945 24.32L24.4874 20.7847H26.4975C26.9119 20.7847 27.2469 20.4497 27.2469 20.0353C27.2469 19.621 26.903 19.2948 26.4887 19.2948Z" fill="#5D1DC1"/>
</g>
<defs>
<clipPath id="clip0_6567_7888">
<rect width="28" height="28" fill="white" transform="translate(6 6)"/>
</clipPath>
</defs>
</svg>
