<svg width="40" height="40" viewBox="0 0 40 40" fill="none" xmlns="http://www.w3.org/2000/svg">
<g clip-path="url(#clip0_6567_7891)">
<path d="M14.1209 12.8557L17.7368 16.5682C17.9535 16.7883 18.2615 16.8898 18.5695 16.839L23.7081 15.9984C24.478 15.8742 25.0597 16.6754 24.689 17.3525L22.2366 21.9001C22.0884 22.1709 22.0884 22.4925 22.2309 22.7633L24.6263 27.3391C24.9856 28.0218 24.3925 28.8173 23.6282 28.6819L18.4953 27.7792C18.1931 27.7284 17.8794 27.8243 17.6627 28.0444L14.0126 31.723C13.4651 32.2703 12.5183 31.96 12.41 31.1983L11.6914 26.0922C11.6515 25.7875 11.4575 25.528 11.1781 25.3869L6.51854 23.0793C5.82275 22.7351 5.82845 21.7477 6.52995 21.4092L11.218 19.1523C11.4975 19.0169 11.6914 18.7574 11.737 18.4527L12.5183 13.3578C12.6324 12.5962 13.5848 12.2971 14.1209 12.8557Z" fill="#6700CE"/>
<path d="M29.7248 8.71432L31.048 11.2025C31.0936 11.2928 31.1677 11.3661 31.259 11.4169L33.7285 12.8049C34.0992 13.0136 34.0878 13.5384 33.7114 13.7358L31.1962 15.0448C31.105 15.0899 31.0308 15.1633 30.9795 15.2536L29.5765 17.6966C29.3655 18.0634 28.8351 18.0521 28.6355 17.6797L27.3123 15.1915C27.2667 15.1012 27.1926 15.0279 27.1013 14.9771L24.6318 13.5891C24.2611 13.3804 24.2725 12.8557 24.6489 12.6582L27.1641 11.3492C27.2553 11.3041 27.3295 11.2307 27.3808 11.1404L28.7838 8.6974C28.9948 8.33066 29.5309 8.34194 29.7248 8.71432Z" fill="#61C9A0"/>
<path d="M29.451 21.3244L30.1069 22.5544C30.1297 22.5996 30.1639 22.6334 30.2096 22.6616L31.4358 23.35C31.6183 23.4515 31.6126 23.7167 31.4301 23.8126L30.1867 24.4615C30.1411 24.484 30.1069 24.5179 30.0784 24.563L29.3826 25.7761C29.2799 25.9566 29.0119 25.951 28.9149 25.7705L28.2591 24.5405C28.2362 24.4953 28.202 24.4615 28.1564 24.4333L26.9302 23.7449C26.7477 23.6434 26.7534 23.3782 26.9359 23.2823L28.1792 22.6334C28.2248 22.6108 28.2591 22.577 28.2876 22.5319L28.9834 21.3188C29.0917 21.1382 29.3541 21.1382 29.451 21.3244Z" fill="#FFCF6A"/>
<path d="M20.035 8.15569L20.765 9.53237C20.7936 9.58315 20.8335 9.62265 20.8791 9.65086L22.2422 10.4182C22.4475 10.531 22.4418 10.8244 22.2308 10.9316L20.8392 11.6538C20.7878 11.682 20.7479 11.7215 20.7194 11.7667L19.9438 13.1151C19.8297 13.3183 19.5331 13.3126 19.4248 13.1038L18.6948 11.7272C18.6662 11.6764 18.6263 11.6369 18.5807 11.6087L17.2176 10.8413C17.0123 10.7285 17.018 10.4351 17.229 10.3279L18.6206 9.60572C18.6719 9.57751 18.7119 9.53801 18.7404 9.49288L19.516 8.1444C19.6301 7.94693 19.9267 7.95257 20.035 8.15569Z" fill="#FFCF6A"/>
</g>
<defs>
<clipPath id="clip0_6567_7891">
<rect width="28" height="24" fill="white" transform="translate(6 8)"/>
</clipPath>
</defs>
</svg>
