<svg width="18" height="18" viewBox="0 0 18 18" fill="none" xmlns="http://www.w3.org/2000/svg">
<path d="M16.3125 2.8125H1.6875C1.37637 2.8125 1.125 3.06387 1.125 3.375V14.625C1.125 14.9361 1.37637 15.1875 1.6875 15.1875H16.3125C16.6236 15.1875 16.875 14.9361 16.875 14.625V3.375C16.875 3.06387 16.6236 2.8125 16.3125 2.8125ZM2.39062 4.07812H15.6094V6.1875H2.39062V4.07812ZM15.6094 13.9219H2.39062V7.73438H15.6094V13.9219ZM11.4434 12.7969H14.3438C14.4211 12.7969 14.4844 12.7336 14.4844 12.6562V11.3906C14.4844 11.3133 14.4211 11.25 14.3438 11.25H11.4434C11.366 11.25 11.3027 11.3133 11.3027 11.3906V12.6562C11.3027 12.7336 11.366 12.7969 11.4434 12.7969Z" fill="#171717"/>
</svg>
