<svg width="40" height="40" viewBox="0 0 40 40" fill="none" xmlns="http://www.w3.org/2000/svg">
<g clip-path="url(#clip0_6567_7890)">
<path d="M9.20803 6.6687L8.66504 10.4579L12.3833 8.46293L9.20803 6.6687Z" fill="#FFCF6A"/>
<path d="M6.09187 8.35001L5 12.4341L8.71828 10.4328L9.20814 6.6687L6.09187 8.35001Z" fill="#6700CE"/>
<path d="M13.2981 15.345L12.3833 8.45667L8.66504 10.4579L13.2981 15.345Z" fill="#6700CE"/>
<path d="M13.2983 15.345L8.71828 10.4329L5 12.4341L13.2983 15.345Z" fill="#FFCF6A"/>
<path d="M12.3186 5L16.031 6.4931L12.3186 8.49435L9.20825 6.66876L12.3186 5Z" fill="#6700CE"/>
<path d="M13.2924 15.345L12.3186 8.49434L16.0487 6.48682L13.2924 15.345Z" fill="#FFCF6A"/>
<path d="M26.0172 18.325C27.2212 18.325 28.4075 18.6763 29.4404 19.3476C30.5027 20.0314 31.3644 21.0289 31.9251 22.2271C33.5718 25.7215 32.2615 29.9875 29.0036 31.7378C28.077 32.2397 27.0796 32.4906 26.0526 32.4906C24.8486 32.4906 23.6623 32.1393 22.6294 31.468C21.5671 30.7842 20.7054 29.7867 20.1447 28.5885C18.498 25.0941 19.8083 20.8281 23.0662 19.0778C23.9987 18.5822 24.9902 18.325 26.0172 18.325ZM26.0172 15.941C24.6833 15.941 23.3259 16.2673 22.051 16.9511C17.6894 19.2974 15.9365 24.9875 18.138 29.655C19.6961 32.9611 22.8124 34.8683 26.0526 34.8683C27.3865 34.8683 28.7439 34.542 30.0188 33.8582C34.3804 31.5119 36.1333 25.8218 33.9318 21.1543C32.3796 17.8482 29.2574 15.941 26.0172 15.941Z" fill="#61C9A0"/>
<path d="M17.3175 16.6123C18.5215 16.6123 19.7078 16.9636 20.7407 17.6349C21.803 18.3187 22.6647 19.3162 23.2254 20.5145C24.8721 24.0088 23.5618 28.2748 20.3039 30.0251C19.3773 30.527 18.3799 30.778 17.3529 30.778C16.1489 30.778 14.9626 30.4266 13.9297 29.7554C12.8674 29.0716 12.0057 28.0741 11.445 26.8758C9.79831 23.3815 11.1086 19.1155 14.3665 17.3652C15.2931 16.8695 16.2846 16.6123 17.3175 16.6123ZM17.3175 14.2284C15.9836 14.2284 14.6262 14.5546 13.3513 15.2384C8.98973 17.5847 7.23683 23.2748 9.43829 27.9423C10.9964 31.2485 14.1127 33.1556 17.3529 33.1556C18.6868 33.1556 20.0442 32.8294 21.3191 32.1456C25.6748 29.8056 27.4277 24.1155 25.2321 19.448C23.674 16.1418 20.5518 14.2284 17.3175 14.2284Z" fill="#6700CE"/>
<mask id="mask0_6567_7890" style="mask-type:luminance" maskUnits="userSpaceOnUse" x="17" y="15" width="18" height="20">
<path d="M17.0754 15.8156V35H34.9999V15.8156H17.0754ZM24.6832 18.5257C24.1343 18.6512 23.6031 18.8519 23.0896 19.1217C22.9362 19.2033 22.7827 19.2911 22.641 19.3915L22.5997 19.3977L22.5702 19.3915C22.0922 18.7202 21.5079 18.1493 20.835 17.6976L20.8586 17.6474C21.2246 17.3651 21.62 17.1142 22.0272 16.8946C22.34 16.7252 22.6706 16.5746 23.007 16.4429C23.6562 17.0201 24.2287 17.7102 24.7127 18.4943L24.6832 18.5257Z" fill="white"/>
</mask>
<g mask="url(#mask0_6567_7890)">
<path d="M26.017 18.325C27.221 18.325 28.4073 18.6763 29.4401 19.3476C30.5025 20.0314 31.3642 21.0289 31.9249 22.2271C33.5716 25.7215 32.2613 29.9875 29.0034 31.7378C28.0768 32.2397 27.0793 32.4906 26.0524 32.4906C24.8484 32.4906 23.662 32.1393 22.6292 31.468C21.5668 30.7842 20.7051 29.7867 20.1444 28.5885C18.4978 25.0941 19.808 20.8281 23.0659 19.0778C23.9985 18.5822 24.99 18.325 26.017 18.325ZM26.017 15.941C24.6831 15.941 23.3256 16.2673 22.0508 16.9511C17.6892 19.2974 15.9363 24.9875 18.1378 29.655C19.6959 32.9611 22.8122 34.8683 26.0524 34.8683C27.3862 34.8683 28.7437 34.542 30.0185 33.8582C34.3801 31.5119 36.133 25.8218 33.9316 21.1543C32.3793 17.8482 29.2572 15.941 26.017 15.941Z" fill="#61C9A0"/>
</g>
</g>
<defs>
<clipPath id="clip0_6567_7890">
<rect width="30" height="30" fill="white" transform="translate(5 5)"/>
</clipPath>
</defs>
</svg>
