<svg width="44" height="44" viewBox="0 0 44 44" fill="none" xmlns="http://www.w3.org/2000/svg">
<g clip-path="url(#clip0_6152_15294)">
<path d="M18.8584 40.216L18.7579 20.518C18.7507 19.5356 19.5477 18.7193 20.5314 18.7193L40.1124 18.6182C41.089 18.611 41.9004 19.4128 41.9004 20.4024L42.0009 40.1004C42.0081 41.0828 41.2111 41.8991 40.2273 41.8991L20.6463 42.0002C19.6698 42.0002 18.8656 41.1984 18.8584 40.216Z" fill="#61C9A0"/>
<path d="M29.1393 29.0703C28.45 29.7709 28.4284 30.8689 29.1321 31.5695C29.8358 32.2702 30.9272 32.2341 31.6165 31.5334C32.3059 30.8328 32.3274 29.7348 31.6237 29.0342C30.92 28.3335 29.8286 28.3696 29.1393 29.0703Z" fill="#5D1CC4"/>
<path d="M16.2506 33.1585L2.50729 18.9068C1.81797 18.1917 1.83233 17.036 2.54319 16.3425L16.7174 2.50983C17.4282 1.81639 18.5771 1.83084 19.2664 2.54595L33.0097 16.8048C33.6991 17.5199 33.6847 18.6757 32.9738 19.3691L18.8069 33.2018C18.096 33.8953 16.9471 33.8808 16.2506 33.1585Z" fill="#6700CE"/>
<path d="M19.431 11.2356C19.4454 10.3327 18.7489 9.63929 17.8872 9.63206C17.0184 9.61762 16.3075 10.2894 16.2932 11.1923C16.2788 12.0952 16.9753 12.7887 17.837 12.7959C18.7058 12.8031 19.4167 12.1386 19.431 11.2356Z" fill="#61C9A0"/>
<path d="M19.2318 24.5267C19.2462 23.6237 18.5497 22.9303 17.688 22.9231C16.8192 22.9086 16.1083 23.5804 16.094 24.4833C16.0796 25.3862 16.7761 26.0797 17.6378 26.0869C18.5066 26.0941 19.2175 25.4296 19.2318 24.5267Z" fill="#61C9A0"/>
<path d="M24.344 19.5352C25.2416 19.5497 25.9309 18.849 25.9381 17.9822C25.9524 17.1082 25.2846 16.3931 24.3871 16.3786C23.4895 16.3642 22.8002 17.0649 22.793 17.9317C22.7858 18.7985 23.4464 19.5208 24.344 19.5352Z" fill="#61C9A0"/>
<path d="M11.1292 19.3331C12.0267 19.3475 12.716 18.6469 12.7232 17.7801C12.7376 16.906 12.0698 16.1909 11.1722 16.1765C10.2747 16.162 9.58536 16.8627 9.57818 17.7295C9.571 18.6035 10.2388 19.3186 11.1292 19.3331Z" fill="#61C9A0"/>
<path d="M17.7385 19.4342C18.6361 19.4486 19.3254 18.7479 19.3326 17.8811C19.3469 17.0071 18.6792 16.292 17.7816 16.2776C16.8841 16.2631 16.1947 16.9638 16.1876 17.8306C16.1804 18.6974 16.841 19.4197 17.7385 19.4342Z" fill="#61C9A0"/>
</g>
<defs>
<clipPath id="clip0_6152_15294">
<rect width="40" height="40" fill="white" transform="translate(2 2)"/>
</clipPath>
</defs>
</svg>
