<svg width="24" height="24" viewBox="0 0 24 24" fill="none" xmlns="http://www.w3.org/2000/svg">
<g clip-path="url(#clip0_3593_4369)">
<path d="M20.3362 9.67114H17.506C17.3471 9.67114 17.2261 9.8269 17.279 9.97524C17.4758 10.5389 17.3471 11.1916 16.8855 11.6441L11.2329 17.1847C11.0513 17.3627 10.9453 17.6074 10.9453 17.8596V18.8832C10.9453 19.7807 11.6869 20.5149 12.6101 20.5149H20.3362C21.2518 20.5149 22.0009 19.7881 22.0009 18.8832V11.3103C22.0009 10.4129 21.2593 9.67856 20.3362 9.67856V9.67114ZM16.4769 15.8867C16.0304 15.8867 15.6597 15.5307 15.6597 15.0856C15.6597 14.6406 16.0229 14.2846 16.4769 14.2846C16.9309 14.2846 17.2942 14.6406 17.2942 15.0856C17.2942 15.5307 16.9309 15.8867 16.4769 15.8867Z" fill="#109F67"/>
<path d="M15.7645 9.33755L10.3011 3.97499C9.65027 3.33711 8.59844 3.33711 7.94766 3.97499L2.48418 9.33755C1.8334 9.97542 1.8334 11.0064 2.48418 11.6443L7.94766 16.9994C8.59844 17.6373 9.65027 17.6373 10.3011 16.9994L15.7645 11.6443C16.4153 11.0064 16.4153 9.97542 15.7645 9.33755ZM5.64725 11.0361C5.32943 11.3476 4.81486 11.3476 4.49704 11.0361C4.17922 10.7245 4.17922 10.2202 4.49704 9.90867C4.81486 9.59715 5.32943 9.59715 5.64725 9.90867C5.96507 10.2202 5.96507 10.7245 5.64725 11.0361ZM8.55304 5.9331C8.87086 5.62158 9.38542 5.62158 9.70324 5.9331C10.0211 6.24462 10.0211 6.74898 9.70324 7.0605C9.38542 7.37202 8.87086 7.37202 8.55304 7.0605C8.23522 6.74898 8.23522 6.24462 8.55304 5.9331ZM8.55304 9.9235C8.87086 9.61198 9.38542 9.61198 9.70324 9.9235C10.0211 10.235 10.0211 10.7394 9.70324 11.0509C9.38542 11.3624 8.87086 11.3624 8.55304 11.0509C8.23522 10.7394 8.23522 10.235 8.55304 9.9235ZM9.71838 15.0265C9.40056 15.338 8.88599 15.338 8.56817 15.0265C8.25035 14.715 8.25035 14.2106 8.56817 13.8991C8.88599 13.5876 9.40056 13.5876 9.71838 13.8991C10.0362 14.2106 10.0362 14.715 9.71838 15.0265ZM13.7744 11.0509C13.4566 11.3624 12.942 11.3624 12.6242 11.0509C12.3063 10.7394 12.3063 10.235 12.6242 9.9235C12.942 9.61198 13.4566 9.61198 13.7744 9.9235C14.0922 10.235 14.0922 10.7394 13.7744 11.0509Z" fill="#61C9A0"/>
</g>
<defs>
<clipPath id="clip0_3593_4369">
<rect width="20" height="17" fill="white" transform="translate(2 3.5)"/>
</clipPath>
</defs>
</svg>
