<svg width="24" height="24" viewBox="0 0 24 24" fill="none" xmlns="http://www.w3.org/2000/svg">
<path fill-rule="evenodd" clip-rule="evenodd" d="M13.3472 2.16559C12.8596 2.05635 12.3577 2 11.8501 2C10.0333 2 8.29101 2.72169 7.00638 4.00632C5.72176 5.29094 5.00007 7.03327 5.00007 8.85C5.00007 12.2248 4.27806 14.3319 3.60385 15.568C3.26558 16.1881 2.93471 16.5976 2.70176 16.8435C2.58506 16.9667 2.49235 17.0495 2.43482 17.0974C2.40604 17.1214 2.38603 17.1367 2.37619 17.144L2.37025 17.1484C2.06445 17.3575 1.92896 17.741 2.03654 18.0963C2.14508 18.4548 2.4755 18.7 2.85007 18.7H8.09412C8.48108 20.4174 10.0157 21.7001 11.85 21.7001C13.6843 21.7001 15.2189 20.4174 15.6059 18.7H20.8501C21.2246 18.7 21.555 18.4548 21.6636 18.0963C21.7712 17.741 21.6357 17.3575 21.3299 17.1484L21.3239 17.144C21.3141 17.1367 21.2941 17.1214 21.2653 17.0974C21.2078 17.0495 21.1151 16.9667 20.9984 16.8435C20.7654 16.5976 20.4346 16.1881 20.0963 15.568C19.4288 14.3444 18.7146 12.267 18.7003 8.95135C18.4715 8.98342 18.2377 9 18 9C17.6576 9 17.3232 8.96558 17.0001 8.90001C17.0072 12.4973 17.7819 14.875 18.6039 16.382C18.7271 16.6079 18.8509 16.8135 18.9729 17H4.72725C4.84919 16.8135 4.97307 16.6079 5.09628 16.382C5.92207 14.8681 6.70007 12.4752 6.70007 8.85C6.70007 7.48414 7.24265 6.17421 8.20847 5.2084C9.17428 4.24259 10.4842 3.7 11.8501 3.7C12.2412 3.7 12.6277 3.74449 13.0028 3.83065C13.0223 3.24447 13.1427 2.68385 13.3472 2.16559ZM9.87452 18.7H13.8255C13.496 19.4647 12.7355 20.0001 11.85 20.0001C10.9645 20.0001 10.204 19.4647 9.87452 18.7Z" fill="#171717"/>
<circle cx="18" cy="4" r="3" fill="#FB4F4F"/>
</svg>
