<svg width="24" height="24" viewBox="0 0 24 24" fill="none" xmlns="http://www.w3.org/2000/svg">
<path fill-rule="evenodd" clip-rule="evenodd" d="M12 1.5C6.20156 1.5 1.5 6.20156 1.5 12C1.5 17.7984 6.20156 22.5 12 22.5C17.7984 22.5 22.5 17.7984 22.5 12C22.5 6.20156 17.7984 1.5 12 1.5ZM12.7523 12.5508L16.0945 14.9672C16.1789 15.0258 16.1976 15.1429 16.1367 15.2297L15.4664 16.1437C15.4055 16.2258 15.2883 16.2445 15.2039 16.1836L11.3273 13.357C11.2781 13.3219 11.25 13.2656 11.25 13.2047V6.75C11.25 6.64687 11.3344 6.5625 11.4375 6.5625H12.5648C12.668 6.5625 12.7523 6.64687 12.7523 6.75V12.5508Z" fill="#171717"/>
</svg>
