<svg width="25" height="24" viewBox="0 0 25 24" fill="none" xmlns="http://www.w3.org/2000/svg">
<mask id="mask0_4338_2021" style="mask-type:alpha" maskUnits="userSpaceOnUse" x="0" y="0" width="25" height="24">
<rect x="0.5" width="24" height="24" rx="1" fill="#D9D9D9"/>
</mask>
<g mask="url(#mask0_4338_2021)">
<path d="M4 22C3.72386 22 3.5 21.7761 3.5 21.5V8.91853C3.5 8.7601 3.57508 8.61105 3.70239 8.51675L12.2024 2.22045C12.3792 2.08949 12.6208 2.08949 12.7976 2.22045L21.2976 8.51675C21.4249 8.61105 21.5 8.7601 21.5 8.91853V21.5C21.5 21.7761 21.2761 22 21 22H15.25C14.9739 22 14.75 21.7761 14.75 21.5V14.7222C14.75 14.4461 14.5261 14.2222 14.25 14.2222H10.75C10.4739 14.2222 10.25 14.4461 10.25 14.7222V21.5C10.25 21.7761 10.0261 22 9.75 22H4Z" fill="#989898"/>
</g>
</svg>
