<svg width="18" height="18" viewBox="0 0 18 18" fill="none" xmlns="http://www.w3.org/2000/svg">
<mask id="mask0_8996_4269" style="mask-type:alpha" maskUnits="userSpaceOnUse" x="0" y="0" width="18" height="18">
<rect width="18" height="18" fill="#D9D9D9"/>
</mask>
<g mask="url(#mask0_8996_4269)">
<path d="M4.05 14.7001C3.4875 14.1376 3.04688 13.4876 2.72812 12.7501C2.40937 12.0126 2.25 11.2501 2.25 10.4626C2.25 9.67509 2.4 8.89696 2.7 8.12821C3 7.35946 3.4875 6.63759 4.1625 5.96259C4.6 5.52509 5.14062 5.15009 5.78438 4.83759C6.42812 4.52509 7.19063 4.27822 8.07188 4.09697C8.95313 3.91572 9.95938 3.80634 11.0906 3.76884C12.2219 3.73134 13.4875 3.77509 14.8875 3.90009C14.9875 5.22509 15.0188 6.44384 14.9813 7.55634C14.9438 8.66884 14.8406 9.67196 14.6719 10.5657C14.5031 11.4595 14.2656 12.2407 13.9594 12.9095C13.6531 13.5782 13.275 14.1376 12.825 14.5876C12.1625 15.2501 11.4594 15.7345 10.7156 16.0407C9.97188 16.347 9.2125 16.5001 8.4375 16.5001C7.625 16.5001 6.83125 16.3407 6.05625 16.022C5.28125 15.7032 4.6125 15.2626 4.05 14.7001ZM6.15 14.4001C6.5125 14.6126 6.88438 14.7657 7.26562 14.8595C7.64687 14.9532 8.0375 15.0001 8.4375 15.0001C9.0125 15.0001 9.58125 14.8845 10.1438 14.6532C10.7063 14.422 11.2438 14.0501 11.7563 13.5376C11.9812 13.3126 12.2094 12.997 12.4406 12.5907C12.6719 12.1845 12.8719 11.6532 13.0406 10.997C13.2094 10.3407 13.3375 9.54696 13.425 8.61572C13.5125 7.68446 13.525 6.57509 13.4625 5.28759C12.85 5.26259 12.1594 5.25321 11.3906 5.25946C10.6219 5.26571 9.85625 5.32509 9.09375 5.43759C8.33125 5.55009 7.60625 5.73134 6.91875 5.98134C6.23125 6.23134 5.66875 6.57509 5.23125 7.01259C4.66875 7.57509 4.28125 8.13134 4.06875 8.68134C3.85625 9.23134 3.75 9.76259 3.75 10.2751C3.75 11.0126 3.89062 11.6595 4.17188 12.2157C4.45312 12.772 4.7 13.1626 4.9125 13.3876C5.4375 12.3876 6.13125 11.4282 6.99375 10.5095C7.85625 9.59071 8.8625 8.83759 10.0125 8.25009C9.1125 9.03759 8.32812 9.92821 7.65938 10.922C6.99062 11.9157 6.4875 13.0751 6.15 14.4001Z" fill="#171717"/>
</g>
</svg>
