<svg width="24" height="24" viewBox="0 0 24 24" fill="none" xmlns="http://www.w3.org/2000/svg">
<path fill-rule="evenodd" clip-rule="evenodd" d="M19.045 6.97517C19.4355 6.58465 19.4355 5.95148 19.045 5.56096C18.6545 5.17044 18.0213 5.17044 17.6308 5.56096L12.3379 10.8539L7.045 5.56096C6.65447 5.17044 6.02131 5.17044 5.63078 5.56096C5.24026 5.95148 5.24026 6.58465 5.63078 6.97517L10.9237 12.2681L5.63078 17.561C5.24026 17.9515 5.24026 18.5846 5.63078 18.9752C6.02131 19.3657 6.65447 19.3657 7.045 18.9752L12.3379 13.6823L17.6308 18.9752C18.0213 19.3657 18.6545 19.3657 19.045 18.9752C19.4355 18.5846 19.4355 17.9515 19.045 17.561L13.7521 12.2681L19.045 6.97517Z" fill="#171717"/>
</svg>
