<svg width="40" height="40" viewBox="0 0 40 40" fill="none" xmlns="http://www.w3.org/2000/svg">
<g clip-path="url(#clip0_6567_7889)">
<path d="M16.8918 34V13.1731C16.8918 12.1134 17.7953 11.2435 18.8961 11.2435H32.9958C34.0965 11.2435 35 12.1134 35 13.1731V34H16.8918Z" fill="#61C9A0"/>
<path d="M5 33.9571V7.92956C5 6.86983 5.9035 6 7.00424 6H21.1039C22.2047 6 23.1082 6.86983 23.1082 7.92956V33.9571H5Z" fill="#6700CE"/>
<path d="M9.98193 13.9142V11.807C9.98193 11.66 10.1092 11.5375 10.2619 11.5375H12.4507C12.6034 11.5375 12.7306 11.66 12.7306 11.807V13.9142C12.7306 14.0612 12.6034 14.1837 12.4507 14.1837H10.2619C10.1092 14.1837 9.98193 14.0612 9.98193 13.9142Z" fill="#FFCF6A"/>
<path d="M15.3582 13.9142V11.807C15.3582 11.66 15.4854 11.5375 15.6381 11.5375H17.8269C17.9796 11.5375 18.1068 11.66 18.1068 11.807V13.9142C18.1068 14.0612 17.9796 14.1837 17.8269 14.1837H15.6381C15.4854 14.1837 15.3582 14.0612 15.3582 13.9142Z" fill="#FFCF6A"/>
<path d="M9.98193 18.5329V16.4257C9.98193 16.2786 10.1092 16.1561 10.2619 16.1561H12.4507C12.6034 16.1561 12.7306 16.2786 12.7306 16.4257V18.5329C12.7306 18.6799 12.6034 18.8024 12.4507 18.8024H10.2619C10.1092 18.8085 9.98193 18.686 9.98193 18.5329Z" fill="#FFCF6A"/>
<path d="M15.3582 18.5329V16.4257C15.3582 16.2786 15.4854 16.1561 15.6381 16.1561H17.8269C17.9796 16.1561 18.1068 16.2786 18.1068 16.4257V18.5329C18.1068 18.6799 17.9796 18.8024 17.8269 18.8024H15.6381C15.4854 18.8085 15.3582 18.686 15.3582 18.5329Z" fill="#FFCF6A"/>
<path d="M11.3501 33.9817V26.7781C11.3501 26.5575 11.541 26.3738 11.77 26.3738H16.3321C16.5611 26.3738 16.752 26.5575 16.752 26.7781V33.9817H11.3501Z" fill="#391085"/>
</g>
<defs>
<clipPath id="clip0_6567_7889">
<rect width="30" height="28" fill="white" transform="translate(5 6)"/>
</clipPath>
</defs>
</svg>
