<svg width="24" height="24" viewBox="0 0 24 24" fill="none" xmlns="http://www.w3.org/2000/svg">
<path fill-rule="evenodd" clip-rule="evenodd" d="M17.8758 4.06406C18.671 4.83708 19.3072 5.75831 19.7484 6.77578C20.2055 7.83047 20.4375 8.95078 20.4375 10.1039C20.4375 11.7609 20.0414 13.4062 19.2586 14.993C18.6328 16.2703 17.7586 17.5172 16.657 18.6984C14.775 20.7188 12.8016 21.9539 12.2414 22.2844C12.0797 22.3805 11.8992 22.4273 11.7164 22.4273C11.5317 22.4277 11.3504 22.3783 11.1914 22.2844C10.6312 21.9539 8.65781 20.7188 6.77578 18.6984C5.67422 17.5148 4.8 16.2703 4.17422 14.993C3.39609 13.4039 3 11.7563 3 10.1016C3 8.94844 3.23203 7.82812 3.68906 6.77344C4.1309 5.7563 4.76701 4.83517 5.56172 4.06172C6.36328 3.28125 7.29375 2.66719 8.33203 2.23828C9.40547 1.79531 10.5445 1.57031 11.7188 1.57031C12.893 1.57031 14.032 1.79531 15.1055 2.24062C16.1374 2.66498 17.0779 3.28406 17.8758 4.06406ZM11.625 6.75C9.76108 6.75 8.25 8.26108 8.25 10.125C8.25 11.9889 9.76108 13.5 11.625 13.5C13.4889 13.5 15 11.9889 15 10.125C15 8.26108 13.4889 6.75 11.625 6.75Z" fill="#171717"/>
</svg>
