<svg width="40" height="40" viewBox="0 0 40 40" fill="none" xmlns="http://www.w3.org/2000/svg">
<g clip-path="url(#clip0_6567_7892)">
<path d="M30.9482 9.86942L30.1317 11.155C30.0557 11.2579 30.0557 11.3967 30.1317 11.4996L30.9482 12.7852C31.075 12.96 30.9533 13.2068 30.7403 13.2068H28.012V9.45288H30.7403C30.9533 9.45288 31.075 9.69457 30.9482 9.86942Z" fill="#61C9A0"/>
<path d="M9.27393 24.5973L28.4685 24.731V31.8378C28.4685 32.3623 28.5344 32.784 28.0172 32.784H11.8248C10.4251 32.784 9.27393 26.0217 9.27393 24.5973Z" fill="#61C9A0"/>
<path d="M9 29.8066V8.74842C9 7.78679 9.7759 7 10.7242 7H26.9521C27.9005 7 28.6764 7.78679 28.6764 8.74842L28.7423 27.6468L11.3277 27.837L9 29.8066Z" fill="#6700CE"/>
<path d="M23.0473 16.2821H14.7001C14.1777 16.2821 13.7568 15.8553 13.7568 15.3256V12.775C13.7568 12.2453 14.1777 11.8185 14.7001 11.8185H23.0423C23.5646 11.8185 23.9855 12.2453 23.9855 12.775V15.3256C23.9855 15.8553 23.5646 16.2821 23.0473 16.2821Z" fill="#FFCF6A"/>
<path d="M27.7534 33H11.708C10.212 33 9 31.5653 9 29.8066C9 28.0479 10.2171 26.6132 11.708 26.6132H27.7534C28.3011 26.6132 28.7474 27.0657 28.7474 27.6211C28.7474 28.1765 28.3011 28.629 27.7534 28.629H11.708C11.3683 28.629 10.9879 29.1329 10.9879 29.8066C10.9879 30.4802 11.3683 30.9842 11.708 30.9842H27.7534C28.3011 30.9842 28.7474 31.4367 28.7474 31.9921C28.7474 32.5475 28.3011 33 27.7534 33Z" fill="#391085"/>
</g>
<defs>
<clipPath id="clip0_6567_7892">
<rect width="22" height="26" fill="white" transform="translate(9 7)"/>
</clipPath>
</defs>
</svg>
