<svg width="60" height="60" viewBox="0 0 60 60" fill="none" xmlns="http://www.w3.org/2000/svg">
<rect width="60" height="60" rx="12" fill="#EFEFEF"/>
<g clip-path="url(#clip0_7797_1765)">
<path d="M29.5034 10C18.4526 10 9.5 18.9526 9.5 30.0034C9.5 41.0541 18.4526 50.0067 29.5034 50.0067C40.5541 50.0067 49.5067 41.0541 49.5067 30.0034C49.5067 18.9526 40.5474 10 29.5034 10ZM33.2072 24.0462L37.9702 22.8386C38.8878 23.439 39.5017 24.4712 39.5017 25.6519C39.5017 27.5072 37.9972 29.0116 36.1419 29.0116C34.2866 29.0116 32.7822 27.5072 32.7822 25.6519C32.7822 25.0649 32.9441 24.5252 33.2072 24.0462ZM21.0298 22.8386L25.7928 24.0462C26.0559 24.5252 26.2178 25.0717 26.2178 25.6519C26.2178 27.5072 24.7134 29.0116 22.8581 29.0116C21.0028 29.0116 19.4983 27.5072 19.4983 25.6519C19.4983 24.4712 20.1122 23.439 21.0298 22.8386ZM39.2318 41.5331C38.3076 42.0459 37.1472 41.722 36.6277 40.7978C35.1839 38.2139 32.4516 36.6014 29.4966 36.6014C26.5417 36.6014 23.8161 38.2071 22.3656 40.7978C22.0148 41.4252 21.3671 41.776 20.6924 41.776C20.3754 41.776 20.0583 41.6951 19.7614 41.5331C18.8372 41.0204 18.5133 39.8533 19.0261 38.929C21.1512 35.1307 25.1586 32.7762 29.4899 32.7762C33.8211 32.7762 37.8353 35.1375 39.9537 38.929C40.4664 39.8533 40.1426 41.0137 39.2183 41.5331H39.2318Z" fill="#CACACA"/>
</g>
<defs>
<clipPath id="clip0_7797_1765">
<rect width="40" height="40" fill="white" transform="translate(9.5 10)"/>
</clipPath>
</defs>
</svg>
