<svg width="148" height="148" viewBox="0 0 148 148" fill="none" xmlns="http://www.w3.org/2000/svg">
<g clip-path="url(#clip0_6559_19968)">
<path d="M74 148C114.869 148 148 114.869 148 74C148 33.1309 114.869 0 74 0C33.1309 0 0 33.1309 0 74C0 114.869 33.1309 148 74 148Z" fill="#F7EEFF"/>
<path d="M73.9996 134.734C107.542 134.734 134.734 107.543 134.734 74.0001C134.734 40.4576 107.542 13.2661 73.9996 13.2661C40.4572 13.2661 13.2656 40.4576 13.2656 74.0001C13.2656 107.543 40.4572 134.734 73.9996 134.734Z" fill="#E5D4FC"/>
<path d="M73.9997 109.683C93.707 109.683 109.683 93.7073 109.683 73.9999C109.683 54.2926 93.707 38.3167 73.9997 38.3167C54.2924 38.3167 38.3164 54.2926 38.3164 73.9999C38.3164 93.7073 54.2924 109.683 73.9997 109.683Z" fill="#6700CC"/>
<path d="M57.4091 69.6218L60.5034 66.5275C61.1618 65.8691 62.281 65.8691 62.9393 66.5275L76.9625 80.5506C77.6208 81.209 77.6208 82.3282 76.9625 82.9865L73.8682 86.0808C73.2098 86.7392 72.0906 86.7392 71.4322 86.0808L57.4091 72.0577C56.7178 71.3664 56.7178 70.2801 57.4091 69.6218Z" fill="#F7EEFF"/>
<path d="M89.3739 61.9191L92.4682 65.0134C93.1266 65.6718 93.1266 66.791 92.4682 67.4493L73.8365 86.081C73.1782 86.7394 72.0589 86.7394 71.4006 86.081L68.3063 82.9867C67.6479 82.3283 67.6479 81.2091 68.3063 80.5508L86.9379 61.9191C87.6292 61.2278 88.7155 61.2278 89.3739 61.9191Z" fill="#F7EEFF"/>
</g>
<defs>
<clipPath id="clip0_6559_19968">
<rect width="148" height="148" fill="white"/>
</clipPath>
</defs>
</svg>
