<svg width="18" height="18" viewBox="0 0 18 18" fill="none" xmlns="http://www.w3.org/2000/svg">
<path d="M14.4879 12.3029C14.048 11.8625 13.5338 11.5031 12.9692 11.2411C13.7655 10.596 14.2735 9.61164 14.2735 8.50774C14.2735 6.56008 12.6493 4.96223 10.7016 4.99211C8.78383 5.02199 7.23872 6.58469 7.23872 8.50774C7.23872 9.61164 7.74848 10.596 8.54301 11.2411C7.97824 11.5029 7.4641 11.8623 7.02426 12.3029C6.0645 13.2644 5.51958 14.5335 5.48442 15.887C5.48395 15.9058 5.48724 15.9245 5.4941 15.9419C5.50095 15.9594 5.51124 15.9753 5.52434 15.9888C5.53745 16.0022 5.55311 16.0129 5.5704 16.0201C5.5877 16.0274 5.60628 16.0312 5.62504 16.0312H6.60942C6.685 16.0312 6.74829 15.9714 6.75004 15.8958C6.78344 14.8763 7.19653 13.9218 7.92251 13.1976C8.294 12.8241 8.73588 12.528 9.22257 12.3265C9.70926 12.1249 10.2311 12.0219 10.7579 12.0234C11.8284 12.0234 12.8356 12.44 13.5932 13.1976C14.3174 13.9218 14.7305 14.8763 14.7657 15.8958C14.7674 15.9714 14.8307 16.0312 14.9063 16.0312H15.8907C15.9094 16.0312 15.928 16.0274 15.9453 16.0201C15.9626 16.0129 15.9783 16.0022 15.9914 15.9888C16.0045 15.9753 16.0148 15.9594 16.0216 15.9419C16.0285 15.9245 16.0318 15.9058 16.0313 15.887C15.9961 14.5335 15.4512 13.2644 14.4879 12.3029ZM10.7579 10.7577C10.1567 10.7577 9.59067 10.5239 9.16704 10.0986C8.95443 9.88763 8.7865 9.63604 8.67324 9.3588C8.55999 9.08155 8.50374 8.78434 8.50786 8.48489C8.51313 7.90832 8.7434 7.3511 9.14594 6.93801C9.56782 6.50559 10.1321 6.26477 10.735 6.25774C11.3309 6.25246 11.9092 6.48449 12.3346 6.9011C12.7706 7.32824 13.0096 7.89953 13.0096 8.50774C13.0096 9.10891 12.7758 9.67317 12.3504 10.0986C12.1417 10.3083 11.8935 10.4745 11.6202 10.5876C11.3468 10.7008 11.0537 10.7586 10.7579 10.7577ZM6.35454 8.9718C6.33872 8.81887 6.32993 8.66418 6.32993 8.50774C6.32993 8.22824 6.35629 7.95578 6.40551 7.69035C6.41782 7.62707 6.38442 7.56203 6.32641 7.53567C6.08735 7.42844 5.86762 7.28078 5.67778 7.09446C5.45408 6.87755 5.27805 6.6164 5.16092 6.32767C5.04379 6.03893 4.98814 5.72895 4.9975 5.4175C5.01332 4.85324 5.24008 4.31711 5.63559 3.91281C6.06977 3.46809 6.65336 3.22551 7.27387 3.23254C7.83461 3.23781 8.37602 3.45403 8.78559 3.83723C8.92446 3.96731 9.04399 4.11145 9.14419 4.26614C9.17934 4.32063 9.2479 4.34348 9.30766 4.32239C9.61704 4.21516 9.94399 4.13957 10.2797 4.10442C10.3782 4.09387 10.4344 3.9884 10.3905 3.90051C9.81918 2.77024 8.652 1.98977 7.302 1.96867C5.35258 1.93879 3.72836 3.53664 3.72836 5.48254C3.72836 6.58645 4.23637 7.57082 5.03266 8.21594C4.47368 8.47434 3.95864 8.83117 3.51215 9.27766C2.54887 10.2392 2.00395 11.5083 1.96879 12.8636C1.96832 12.8824 1.97162 12.901 1.97847 12.9185C1.98533 12.936 1.99561 12.9519 2.00872 12.9653C2.02182 12.9787 2.03748 12.9894 2.05478 12.9967C2.07207 13.004 2.09065 13.0077 2.10942 13.0077H3.09555C3.17114 13.0077 3.23442 12.948 3.23618 12.8724C3.26958 11.8529 3.68266 10.8984 4.40864 10.1741C4.92543 9.65735 5.55825 9.29875 6.24907 9.12473C6.31762 9.10715 6.36333 9.04211 6.35454 8.9718Z" fill="#171717"/>
</svg>
