<svg width="60" height="60" viewBox="0 0 60 60" fill="none" xmlns="http://www.w3.org/2000/svg">
<rect x="0.5" y="0.5" width="59" height="59" rx="29.5" fill="#F7F7F7"/>
<rect x="0.5" y="0.5" width="59" height="59" rx="29.5" stroke="#DCDCDC"/>
<path d="M29.7755 15C32.5005 15.0001 35.1142 16.0829 37.0411 18.0098C38.9678 19.9367 40.0499 22.5505 40.0499 25.2754C40.0499 30.3371 41.1334 33.4975 42.1446 35.3516C42.652 36.2818 43.1487 36.8968 43.4981 37.2656C43.673 37.4502 43.8123 37.5746 43.8985 37.6465C43.9414 37.6822 43.9717 37.7049 43.9864 37.7158L43.9952 37.7227C44.4537 38.0363 44.6565 38.6117 44.4952 39.1445C44.3324 39.6821 43.8371 40.0497 43.2755 40.0498H16.2755C15.7136 40.0498 15.2176 39.6823 15.0548 39.1445C14.8934 38.6116 15.097 38.0363 15.5557 37.7227L15.5645 37.7158C15.5793 37.7048 15.6095 37.6822 15.6524 37.6465C15.7387 37.5746 15.8778 37.4503 16.0528 37.2656C16.4022 36.8968 16.8989 36.2818 17.4063 35.3516C18.4175 33.4975 19.5 30.3368 19.5001 25.2754C19.5001 22.5503 20.5829 19.9367 22.5098 18.0098C24.4368 16.0828 27.0504 15 29.7755 15Z" fill="#CACACA"/>
<path d="M34.9941 41.25C34.0674 43.201 32.079 44.5497 29.7754 44.5498C27.4716 44.5498 25.4825 43.2012 24.5557 41.25H34.9941Z" fill="#CACACA"/>
</svg>
