<svg width="60" height="61" viewBox="0 0 60 61" fill="none" xmlns="http://www.w3.org/2000/svg">
<rect width="60" height="61" rx="12" fill="#F9F0FF"/>
<g clip-path="url(#clip0_7804_6059)">
<path d="M29.5034 11C18.4526 11 9.5 19.9526 9.5 31.0034C9.5 42.0541 18.4526 51.0067 29.5034 51.0067C40.5541 51.0067 49.5067 42.0541 49.5067 31.0034C49.5067 19.9526 40.5474 11 29.5034 11ZM33.2072 25.0462L37.9702 23.8386C38.8878 24.439 39.5017 25.4712 39.5017 26.6519C39.5017 28.5072 37.9972 30.0116 36.1419 30.0116C34.2866 30.0116 32.7822 28.5072 32.7822 26.6519C32.7822 26.0649 32.9441 25.5252 33.2072 25.0462ZM21.0298 23.8386L25.7928 25.0462C26.0559 25.5252 26.2178 26.0717 26.2178 26.6519C26.2178 28.5072 24.7134 30.0116 22.8581 30.0116C21.0028 30.0116 19.4983 28.5072 19.4983 26.6519C19.4983 25.4712 20.1122 24.439 21.0298 23.8386ZM39.2318 42.5331C38.3076 43.0459 37.1472 42.722 36.6277 41.7978C35.1839 39.2139 32.4516 37.6014 29.4966 37.6014C26.5417 37.6014 23.8161 39.2071 22.3656 41.7978C22.0148 42.4252 21.3671 42.776 20.6924 42.776C20.3754 42.776 20.0583 42.6951 19.7614 42.5331C18.8372 42.0204 18.5133 40.8533 19.0261 39.929C21.1512 36.1307 25.1586 33.7762 29.4899 33.7762C33.8211 33.7762 37.8353 36.1375 39.9537 39.929C40.4664 40.8533 40.1426 42.0137 39.2183 42.5331H39.2318Z" fill="#6700CE"/>
</g>
<defs>
<clipPath id="clip0_7804_6059">
<rect width="40" height="40" fill="white" transform="translate(9.5 11)"/>
</clipPath>
</defs>
</svg>
