<svg width="44" height="44" viewBox="0 0 44 44" fill="none" xmlns="http://www.w3.org/2000/svg">
<g clip-path="url(#clip0_6152_15295)">
<path d="M40.9461 16.1381H26.664C26.0781 16.1381 25.6094 15.666 25.6094 15.0922V13.5596C25.6094 12.9785 26.0854 12.5137 26.664 12.5137H40.9461C41.532 12.5137 42.0008 12.9858 42.0008 13.5596V15.0922C42.0008 15.666 41.532 16.1381 40.9461 16.1381Z" fill="#6700CE"/>
<path d="M40.9457 23.8159H31.4609C30.875 23.8159 30.4062 23.3438 30.4062 22.7699V21.2373C30.4062 20.6563 30.8823 20.1914 31.4609 20.1914H40.9457C41.5316 20.1914 42.0003 20.6635 42.0003 21.2373V22.7699C42.0003 23.3438 41.5316 23.8159 40.9457 23.8159Z" fill="#61C9A0"/>
<path d="M40.9461 31.4931H26.664C26.0781 31.4931 25.6094 31.021 25.6094 30.4472V28.9146C25.6094 28.3335 26.0854 27.8687 26.664 27.8687H40.9461C41.532 27.8687 42.0008 28.3408 42.0008 28.9146V30.4472C42.0008 31.0283 41.532 31.4931 40.9461 31.4931Z" fill="#6700CE"/>
<path d="M18.8483 4.29832L2.21524 21.8106C1.72452 22.3699 2.12735 23.2415 2.87441 23.2415H19.5075C19.9909 23.2415 20.3791 22.8565 20.3791 22.3771V4.86487C20.3791 4.06589 19.3757 3.69545 18.8483 4.29832Z" fill="#FFCF6A"/>
<path d="M10.7417 39.701L27.3748 22.1887C27.8655 21.6294 27.4627 20.7578 26.7156 20.7578H10.0825C9.59912 20.7578 9.21094 21.1428 9.21094 21.6222V39.1344C9.21094 39.9334 10.2143 40.3038 10.7417 39.701Z" fill="#FFCF6A"/>
</g>
<defs>
<clipPath id="clip0_6152_15295">
<rect width="40" height="36" fill="white" transform="translate(2 4)"/>
</clipPath>
</defs>
</svg>
