<svg width="24" height="24" viewBox="0 0 24 24" fill="none" xmlns="http://www.w3.org/2000/svg">
<g clip-path="url(#clip0_3593_4373)">
<path d="M15.1785 10.0125H11.5834V6.03041C11.5834 5.0588 10.3778 4.63188 9.77497 5.38267L4.22617 12.3164C3.68872 12.9862 4.16081 13.9947 5.01782 13.9947H8.61292V17.9768C8.61292 18.9484 9.81855 19.3753 10.4214 18.6245L15.9629 11.6981C16.5003 11.0283 16.0283 10.0199 15.1712 10.0199L15.1785 10.0125Z" fill="#FFCF6A"/>
<path d="M19.5571 5.91284H14.7491C14.5004 5.91284 14.2988 6.11716 14.2988 6.3692V7.1568C14.2988 7.40884 14.5004 7.61316 14.7491 7.61316H19.5571C19.8058 7.61316 20.0074 7.40884 20.0074 7.1568V6.3692C20.0074 6.11716 19.8058 5.91284 19.5571 5.91284Z" fill="#FF8E62"/>
<path d="M19.5571 16.3208H14.7491C14.5004 16.3208 14.2988 16.5251 14.2988 16.7772V17.5648C14.2988 17.8168 14.5004 18.0211 14.7491 18.0211H19.5571C19.8058 18.0211 20.0074 17.8168 20.0074 17.5648V16.7772C20.0074 16.5251 19.8058 16.3208 19.5571 16.3208Z" fill="#FF8E62"/>
<path d="M19.5563 11.1167H17.6026C17.3539 11.1167 17.1523 11.321 17.1523 11.5731V12.3607C17.1523 12.6127 17.3539 12.817 17.6026 12.817H19.5563C19.805 12.817 20.0066 12.6127 20.0066 12.3607V11.5731C20.0066 11.321 19.805 11.1167 19.5563 11.1167Z" fill="#FF8E62"/>
</g>
<defs>
<clipPath id="clip0_3593_4373">
<rect width="16" height="14" fill="white" transform="translate(4 5)"/>
</clipPath>
</defs>
</svg>
