<svg width="60" height="60" viewBox="0 0 60 60" fill="none" xmlns="http://www.w3.org/2000/svg">
<rect width="60" height="60" rx="12" fill="#EFEFEF"/>
<path d="M29.5 10C18.4578 10 9.5 18.9511 9.5 30C9.5 41.0489 18.4511 50 29.5 50C40.5489 50 49.5 41.0489 49.5 30C49.5 18.9511 40.5422 10 29.5 10ZM36.1374 22.2901C37.9924 22.2901 39.4966 23.7943 39.4966 25.6492C39.4966 27.5042 37.9924 29.0084 36.1374 29.0084C34.2825 29.0084 32.7782 27.5042 32.7782 25.6492C32.7782 23.7943 34.2825 22.2901 36.1374 22.2901ZM22.8626 22.2901C24.7175 22.2901 26.2218 23.7943 26.2218 25.6492C26.2218 27.5042 24.7175 29.0084 22.8626 29.0084C21.0076 29.0084 19.5034 27.5042 19.5034 25.6492C19.5034 23.7943 21.0076 22.2901 22.8626 22.2901ZM39.9688 37.4199C37.844 41.2175 33.8373 43.5717 29.5067 43.5717C25.1762 43.5717 21.1627 41.2108 19.0379 37.4199C18.5253 36.4958 18.8491 35.3356 19.7732 34.8162C20.6973 34.3035 21.8575 34.6341 22.3769 35.5514C23.8204 38.1417 26.5523 39.747 29.5067 39.747C32.4612 39.747 35.1863 38.1417 36.6366 35.5514C37.1492 34.6273 38.3162 34.3035 39.2403 34.8162C40.1644 35.3288 40.4949 36.4958 39.9755 37.4199H39.9688Z" fill="#CACACA"/>
</svg>
