<svg width="268" height="224" viewBox="0 0 268 224" fill="none" xmlns="http://www.w3.org/2000/svg">
<g clip-path="url(#clip0_6418_7417)">
<path d="M132.69 224C194.652 224 244.881 173.856 244.881 112C244.881 50.1441 194.652 0 132.69 0C70.7294 0 20.5 50.1441 20.5 112C20.5 173.856 70.7294 224 132.69 224Z" fill="#9154DD"/>
<path d="M71.1133 73.9079L72.9958 54.0666C73.4664 49.2599 77.7745 45.682 82.5894 46.1518L202.455 57.5361C207.27 58.006 210.854 62.3067 210.383 67.1134L208.5 86.9547L71.1133 73.9079Z" fill="#D2ACF6"/>
<path d="M62.604 163.067C62.1334 167.874 65.7174 172.211 70.5323 172.645L190.398 184.029C195.212 184.499 199.557 180.921 199.991 176.114L208.499 86.9911L71.0753 73.9443L62.604 163.067Z" fill="#F8EFFF"/>
<path d="M113.976 59.3069L110.392 58.9817C109.234 58.8732 108.401 57.8252 108.51 56.7048L110.03 40.7306C110.139 39.5741 111.188 38.7429 112.311 38.8513L115.895 39.1766C117.053 39.285 117.886 40.3331 117.777 41.4534L116.257 57.4276C116.184 58.548 115.135 59.4154 113.976 59.3069Z" fill="#6700CD"/>
<path d="M176.097 65.1976L172.513 64.8723C171.355 64.7639 170.522 63.7158 170.631 62.5954L172.151 46.6212C172.26 45.4647 173.31 44.6335 174.432 44.7419L178.016 45.0672C179.174 45.1756 180.007 46.2237 179.898 47.3441L178.378 63.3182C178.305 64.4747 177.256 65.306 176.097 65.1976Z" fill="#6700CD"/>
<path d="M128.529 109.434L129.76 96.3515C129.869 95.3034 130.774 94.5445 131.824 94.6529L144.929 95.8817C145.979 95.9901 146.739 96.8936 146.631 97.9417L145.4 111.025C145.291 112.073 144.386 112.832 143.336 112.723L130.231 111.494C129.217 111.386 128.421 110.483 128.529 109.434Z" fill="#D2ACF6"/>
<path d="M152.278 111.675L153.509 98.5917C153.618 97.5436 154.523 96.7847 155.573 96.8931L168.678 98.1219C169.728 98.2303 170.488 99.1338 170.379 100.182L169.148 113.265C169.04 114.313 168.135 115.072 167.085 114.963L153.98 113.735C152.966 113.662 152.206 112.723 152.278 111.675Z" fill="#D2ACF6"/>
<path d="M176.024 113.952L177.255 100.869C177.364 99.821 178.269 99.062 179.319 99.1705L192.424 100.399C193.474 100.508 194.234 101.411 194.125 102.459L192.895 115.542C192.786 116.59 191.881 117.349 190.831 117.241L177.726 116.012C176.712 115.904 175.952 114.964 176.024 113.952Z" fill="#D2ACF6"/>
<path d="M102.354 132.745L103.585 119.662C103.694 118.614 104.599 117.855 105.648 117.963L118.754 119.192C119.804 119.301 120.564 120.204 120.455 121.252L119.224 134.335C119.116 135.383 118.211 136.142 117.161 136.034L104.056 134.805C103.006 134.697 102.245 133.757 102.354 132.745Z" fill="#D2ACF6"/>
<path d="M126.104 134.985L127.335 121.902C127.444 120.854 128.349 120.095 129.398 120.204L142.504 121.432C143.554 121.541 144.314 122.444 144.205 123.492L142.974 136.575C142.866 137.623 141.961 138.382 140.911 138.274L127.806 137.045C126.756 136.937 125.995 136.033 126.104 134.985Z" fill="#D2ACF6"/>
<path d="M149.85 137.226L151.081 124.143C151.19 123.095 152.095 122.336 153.145 122.445L166.25 123.674C167.3 123.782 168.06 124.686 167.951 125.734L166.72 138.817C166.612 139.865 165.707 140.624 164.657 140.515L151.552 139.286C150.502 139.214 149.742 138.275 149.85 137.226Z" fill="#D2ACF6"/>
<path d="M173.6 139.503L174.831 126.42C174.939 125.372 175.844 124.613 176.894 124.721L189.999 125.95C191.049 126.058 191.809 126.962 191.701 128.01L190.47 141.093C190.361 142.141 189.456 142.9 188.406 142.792L175.301 141.563C174.288 141.454 173.491 140.551 173.6 139.503Z" fill="#D2ACF6"/>
<path d="M78.6041 130.468L79.8349 117.385C79.9436 116.337 80.8486 115.578 81.8985 115.686L95.0037 116.915C96.0535 117.023 96.8138 117.927 96.7051 118.975L95.4743 132.058C95.3657 133.106 94.4606 133.865 93.4108 133.756L80.3056 132.528C79.2557 132.419 78.4955 131.516 78.6041 130.468Z" fill="#6700CD"/>
<path d="M99.8927 158.441L101.124 145.358C101.232 144.31 102.137 143.551 103.187 143.66L116.292 144.889C117.342 144.997 118.102 145.9 117.994 146.949L116.763 160.031C116.654 161.08 115.749 161.838 114.699 161.73L101.594 160.501C100.581 160.393 99.7841 159.453 99.8927 158.441Z" fill="#D2ACF6"/>
<path d="M123.643 160.681L124.874 147.599C124.982 146.55 125.887 145.792 126.937 145.9L140.042 147.129C141.092 147.237 141.852 148.141 141.744 149.189L140.513 162.272C140.404 163.32 139.499 164.079 138.449 163.97L125.344 162.742C124.331 162.669 123.534 161.73 123.643 160.681Z" fill="#D2ACF6"/>
<path d="M76.1076 156.453L77.3385 143.37C77.4471 142.322 78.3521 141.563 79.402 141.671L92.5072 142.9C93.557 143.009 94.3173 143.912 94.2087 144.96L92.9778 158.043C92.8692 159.091 91.9641 159.85 90.9143 159.742L77.8091 158.513C76.7954 158.441 75.999 157.501 76.1076 156.453Z" fill="#6700CD"/>
<path d="M174.216 161.151L172.152 182.836H172.297L201.657 158.621V158.513L179.863 156.453C177.076 156.164 174.505 158.296 174.216 161.151Z" fill="#6700CD"/>
<path d="M203.321 180.559L205.384 158.874L201.511 158.513L162.34 190.822V190.931L184.134 192.991C196.804 185.185 203.067 183.414 203.321 180.559Z" fill="#9154DD"/>
<path d="M33.2414 200.256L21.4033 163.139C20.4621 160.212 22.0912 157.032 25.0598 156.092L62.2394 144.274C65.1717 143.334 68.3575 144.961 69.2988 147.924L81.1369 185.041C82.0781 187.968 80.449 191.148 77.4805 192.088L40.3009 203.906C37.3685 204.846 34.1827 203.183 33.2414 200.256Z" fill="#6700CD"/>
<path d="M58.4775 177.776C57.5 179.656 58.1517 181.933 60.0704 182.908C61.9891 183.884 64.2336 183.125 65.2111 181.246C66.1886 179.367 65.5369 177.09 63.6182 176.114C61.6995 175.138 59.455 175.897 58.4775 177.776Z" fill="#61C89F"/>
<path d="M37.333 166.898C36.3555 168.777 37.0071 171.054 38.9259 172.03C40.8446 173.006 43.0891 172.247 44.0666 170.367C45.044 168.488 44.3924 166.211 42.4737 165.235C40.555 164.223 38.3104 165.019 37.333 166.898Z" fill="#61C89F"/>
<path d="M198.544 90.1711L189.855 36.7913C189.167 32.5628 192.063 28.5512 196.299 27.8645L249.77 19.1908C254.005 18.5041 258.024 21.3953 258.711 25.6238L267.4 79.0036C268.088 83.2321 265.192 87.2437 260.956 87.9304L207.485 96.6041C203.25 97.2908 199.231 94.3634 198.544 90.1711Z" fill="#61C89F"/>
<path d="M245.644 43.1516C247.381 40.7302 246.802 37.5498 244.449 35.8874C242.096 34.2249 238.91 34.6586 237.172 37.08C235.435 39.5014 236.014 42.6818 238.367 44.3443C240.72 46.0067 243.906 45.5369 245.644 43.1516Z" fill="#6700CD"/>
<path d="M220.011 78.678C221.748 76.2566 221.169 73.0762 218.816 71.4137C216.463 69.7512 213.277 70.1849 211.539 72.6064C209.802 75.0278 210.381 78.2082 212.734 79.8706C215.087 81.5331 218.273 81.0994 220.011 78.678Z" fill="#6700CD"/>
<path d="M243.36 74.8833C245.786 76.6181 248.971 76.0398 250.637 73.6907C252.302 71.3415 251.868 68.1611 249.442 66.4264C247.017 64.6916 243.831 65.2699 242.165 67.619C240.5 69.932 240.935 73.1485 243.36 74.8833Z" fill="#6700CD"/>
<path d="M207.774 49.2954C210.2 51.0302 213.386 50.4519 215.051 48.1028C216.716 45.7536 216.282 42.5732 213.856 40.8385C211.431 39.1037 208.245 39.682 206.579 42.0311C204.878 44.3803 205.349 47.5607 207.774 49.2954Z" fill="#6700CD"/>
<path d="M225.549 62.0894C227.974 63.8241 231.16 63.2459 232.826 60.8967C234.491 58.5476 234.056 55.3672 231.631 53.6324C229.205 51.8977 226.02 52.4759 224.354 54.8251C222.689 57.1381 223.16 60.3546 225.549 62.0894Z" fill="#6700CD"/>
</g>
<defs>
<clipPath id="clip0_6418_7417">
<rect width="267" height="224" fill="white" transform="translate(0.5)"/>
</clipPath>
</defs>
</svg>
