<svg width="82" height="82" viewBox="0 0 82 82" fill="none" xmlns="http://www.w3.org/2000/svg">
<g clip-path="url(#clip0_6437_19078)">
<path d="M41 82C63.6437 82 82 63.6437 82 41C82 18.3563 63.6437 0 41 0C18.3563 0 0 18.3563 0 41C0 63.6437 18.3563 82 41 82Z" fill="#D3ADF7"/>
<path d="M57.5739 15.8948H24.4219V24.3246C24.4219 24.9611 24.6535 25.5739 25.0748 26.0518L38.2648 41L25.0748 55.9482C24.6535 56.4242 24.4219 57.0389 24.4219 57.6754V66.1052H57.5739V57.6754C57.5739 57.0389 57.3422 56.4261 56.9209 55.9482L43.7309 41L56.9209 26.0518C57.3422 25.5757 57.5739 24.9611 57.5739 24.3246V15.8948Z" fill="white"/>
<path d="M60.0269 66.1052V68.8665C60.0269 69.5377 59.4779 70.0867 58.8067 70.0867H23.1889C22.5177 70.0867 21.9688 69.5377 21.9688 68.8665V66.1052H60.0269Z" fill="#6700CC"/>
<path d="M40.998 63.4843H51.4413L41.857 52.5102C41.4029 51.9904 40.5931 51.9904 40.139 52.5102L30.5547 63.4843H40.998Z" fill="#9254DE"/>
<path d="M22.8789 66.1052V64.2869C22.8789 63.8455 23.24 63.4844 23.6814 63.4844H58.3107C58.7521 63.4844 59.1132 63.8455 59.1132 64.2869V66.1052H22.8789Z" fill="#391083"/>
<path d="M21.9688 15.8948V13.1335C21.9688 12.4623 22.5177 11.9133 23.1889 11.9133H58.8086C59.4797 11.9133 60.0287 12.4623 60.0287 13.1335V15.8948H21.9688Z" fill="#6700CC"/>
<path d="M40.9976 28.4336H30.2461L40.1131 39.7305C40.58 40.2667 41.4135 40.2667 41.8804 39.7305L51.7474 28.4336H40.9958H40.9976Z" fill="#9254DE"/>
<path d="M59.1171 15.8948V17.7131C59.1171 18.1545 58.756 18.5156 58.3146 18.5156H23.6853C23.2439 18.5156 22.8828 18.1545 22.8828 17.7131V15.8948H59.1189H59.1171Z" fill="#391083"/>
<path d="M40.9973 46.5079C41.7941 46.5079 42.44 45.862 42.44 45.0652C42.44 44.2685 41.7941 43.6226 40.9973 43.6226C40.2006 43.6226 39.5547 44.2685 39.5547 45.0652C39.5547 45.862 40.2006 46.5079 40.9973 46.5079Z" fill="#9254DE"/>
<path d="M40.9979 49.9952C41.5922 49.9952 42.074 49.5134 42.074 48.9191C42.074 48.3248 41.5922 47.843 40.9979 47.843C40.4036 47.843 39.9219 48.3248 39.9219 48.9191C39.9219 49.5134 40.4036 49.9952 40.9979 49.9952Z" fill="#9254DE"/>
</g>
<defs>
<clipPath id="clip0_6437_19078">
<rect width="82" height="82" fill="white"/>
</clipPath>
</defs>
</svg>
