<svg width="267" height="223" viewBox="0 0 267 223" fill="none" xmlns="http://www.w3.org/2000/svg">
<g clip-path="url(#clip0_7599_30054)">
<path d="M107.972 75.7564C110.819 77.8067 114.581 77.4208 116.535 75.877C117.862 74.8157 118.562 72.9101 118.875 71.8005C117.452 71.8487 114.678 71.8728 112.073 71.704C109.444 71.5351 107.031 70.9803 105.777 70.6667C105.777 71.9211 106.018 74.3815 107.972 75.7805V75.7564Z" fill="#E5D4FC"/>
<path d="M61.9968 149.617C62.3104 149.376 62.624 149.11 62.9376 148.845C68.6303 143.683 71.7178 131.839 71.7661 131.719L74.5401 120.357C74.6366 119.971 75.0225 119.73 75.4084 119.827C75.7944 119.923 76.0356 120.309 75.9391 120.695L73.1651 132.08C73.0445 132.563 70.1258 143.707 64.5055 149.376C66.8453 148.869 70.2947 148.169 73.2857 147.759C78.5442 147.036 83.9957 146.336 87.9517 146.409C88.5788 142.211 89.3507 136.881 89.7849 133.817C90.5809 128.221 93.6926 105.088 93.7167 104.871C93.765 104.534 94.0544 104.268 94.3921 104.244L127.463 102.314C127.68 102.314 127.873 102.387 128.042 102.531C128.186 102.676 128.259 102.893 128.235 103.11L125.268 128.342C126.257 128.342 127.197 128.438 128.09 128.559C129.031 128.703 129.875 128.896 130.623 129.162L133.373 114.086C133.445 113.7 133.831 113.434 134.217 113.507C134.603 113.579 134.868 113.965 134.796 114.351L131.998 129.741C132.601 130.03 133.107 130.368 133.566 130.705C134.41 130.488 136.774 129.909 138.052 129.837C139.572 129.765 142.684 129.982 142.804 130.006C143.214 130.03 143.504 130.392 143.48 130.778C143.455 131.164 143.094 131.477 142.708 131.453C142.684 131.453 139.548 131.212 138.125 131.284C137.304 131.333 135.857 131.646 134.844 131.887C135.881 133.045 136.388 134.227 136.75 135.047L136.822 135.216C137.666 137.098 138.414 142.718 135.326 147.928C134.748 148.893 134.048 149.641 133.276 150.22C135.23 150.437 138.848 150.533 142.587 149.086C144.541 148.338 146.061 147.518 147.17 146.336C147.218 146.264 147.267 146.191 147.339 146.143C149.076 144.117 149.727 141.029 149.269 135.433C149.052 132.78 148.569 130.102 148.063 127.618C147.508 124.772 146.808 121.756 145.964 118.403C145.192 115.364 144.444 112.614 143.673 109.985L143.504 109.382C142.828 107.115 142.129 104.751 140.923 102.749C139.162 99.8298 137.401 97.49 135.495 95.5603C133.759 93.7994 131.949 92.4245 130.116 91.4355C124.038 88.2032 116.56 85.5016 116.487 85.4533C116.198 85.5739 115.884 85.6946 115.595 85.8152C115.547 86.9489 115.137 92.0385 111.856 94.7643C110.095 96.2116 107.659 96.9593 104.596 96.9593C103.92 96.9593 103.221 96.9352 102.473 96.8628C100.543 96.6699 98.6134 96.2839 96.756 95.705C94.6092 95.0296 92.9448 94.113 91.7146 92.8587C90.1226 91.2425 89.0854 89.1198 88.8683 86.973C88.82 86.4906 88.9406 85.5739 89.1577 84.4644C87.8793 84.8262 85.25 85.5739 82.6449 86.4664C79.5332 87.5278 75.4567 89.5058 74.3712 90.0364C74.2265 91.146 74.13 91.9903 74.13 93.1722C74.1541 95.5844 73.3581 99.6368 72.0073 102.242C70.8736 104.413 69.1851 106.825 68.6785 107.525L68.6303 109.816C68.7509 109.768 68.8474 109.696 68.968 109.647C69.161 109.551 69.4022 109.527 69.6193 109.599C69.8605 109.696 70.1741 109.816 70.8495 111.673C71.4284 113.314 71.163 118.765 70.1982 124.916C69.4263 129.861 68.2685 133.359 67.3277 136.157C67.0865 136.881 66.8694 137.556 66.6764 138.207C66.5799 138.521 66.2905 138.714 65.9769 138.714C65.6633 138.714 65.8322 138.714 65.7598 138.69C65.3739 138.569 65.1568 138.159 65.2774 137.773C65.4704 137.122 65.7116 136.422 65.9528 135.699C66.8694 132.949 68.0031 129.523 68.775 124.675C69.8122 118.114 69.9087 113.314 69.4987 112.132C69.3539 111.746 69.2333 111.408 69.1127 111.167C67.8343 111.794 66.4835 112.204 65.3256 112.542C63.1064 113.193 60.1877 113.869 57.3655 113.338C55.1704 112.928 52.9271 111.866 50.8768 110.274C50.129 111.746 48.4405 115.123 47.0173 118.596C46.7279 119.272 46.4625 119.971 46.1731 120.647C44.364 124.989 42.5066 129.499 41.5659 134.131C41.2764 135.53 41.1317 136.784 41.1076 137.942C41.0352 142.477 43.375 147.373 46.9691 150.123C48.1752 151.04 49.5501 151.691 50.9733 152.005C54.9051 152.873 58.9575 152.005 62.0933 149.617H61.9968Z" fill="#9054DC"/>
<path d="M92.7276 91.7732C93.7889 92.8345 95.2362 93.6547 97.166 94.2577C98.951 94.8125 100.784 95.1743 102.593 95.3432C106.284 95.705 109.082 95.102 110.915 93.5823C113.327 91.5802 113.93 87.8414 114.099 86.2493C112.073 86.8524 109.999 87.1901 107.997 87.1901C105.994 87.1901 105.777 87.0936 104.716 86.9006C101.146 86.2252 97.769 84.2472 94.7056 81.015C93.8372 80.0983 92.9929 79.0852 92.1969 77.9998C91.2803 81.2803 90.1707 85.7428 90.2913 86.78C90.4843 88.5891 91.3768 90.3982 92.7276 91.7732Z" fill="white"/>
<path d="M54.4705 107.573L53.2644 109.888C53.2161 109.961 53.1679 110.033 53.1197 110.081C54.5911 110.998 56.1107 111.601 57.5822 111.89C60.1149 112.349 62.8165 111.722 64.8669 111.119C65.5905 110.902 66.3624 110.66 67.1343 110.371L67.2067 107.187C67.2067 107.042 67.2549 106.897 67.3514 106.777C67.3514 106.753 69.45 103.906 70.7043 101.494C71.9586 99.1061 72.7064 95.2707 72.6823 93.0998C72.6823 91.5801 72.8029 90.6153 73.02 89.0474C73.1406 88.1549 73.3094 87.0453 73.4783 85.5015C73.4783 85.3568 73.5024 85.212 73.5265 85.0673C73.6471 84.1507 73.7918 83.017 73.4783 82.2692C73.43 82.1486 73.3577 82.1003 73.2853 82.0762C72.9717 81.9556 72.3204 82.1245 71.6933 82.4622C70.8249 82.9205 70.1013 83.6924 69.6429 84.6572C68.3404 87.4071 67.8821 89.8675 67.8579 89.9157C67.8338 90.0846 67.7373 90.2293 67.5926 90.3499C67.5926 90.3499 66.0488 91.5801 64.6498 93.1239C63.3472 94.5712 62.8889 96.9351 62.8889 96.9592C62.8165 97.3452 62.4306 97.6105 62.0446 97.5382C61.6587 97.4658 61.3934 97.0798 61.4657 96.6939C61.4657 96.5733 61.9964 93.9199 63.5884 92.159C64.4809 91.1701 65.3975 90.3258 66.0006 89.7951L65.494 89.9881C65.494 89.9881 61.8275 80.6289 61.1039 78.7716L61.0315 78.5786C60.4044 76.9625 58.4988 72.0899 56.2313 72.7412C56.0866 72.7894 55.9178 72.8618 55.7489 73.1754C55.0011 74.7191 56.2072 78.9645 56.7861 80.4842V80.5807V80.653C58.2334 83.0893 59.4154 85.0432 59.4395 85.0673C59.6566 85.405 59.536 85.8633 59.1983 86.0563C59.0777 86.1287 58.9571 86.1528 58.8124 86.1528C58.5711 86.1528 58.3299 86.0322 58.1852 85.8151C58.1611 85.7668 55.5801 81.5938 53.4574 77.7826C51.3829 74.0679 49.3567 72.2587 48.0541 72.9341C47.6441 73.1512 47.3787 73.4407 47.2581 73.8508C46.9204 74.9845 47.6682 76.673 47.9818 77.2278C47.9818 77.2278 47.9818 77.276 48.0059 77.3001C48.2712 77.662 48.4883 78.0238 48.6813 78.3374C51.3105 82.8964 53.5538 87.1418 53.578 87.19C53.7709 87.5518 53.6262 87.986 53.2885 88.179C53.192 88.2272 53.0714 88.2513 52.9508 88.2513C52.6855 88.2513 52.4443 88.1066 52.2995 87.8654C52.2995 87.8172 50.0321 83.5959 47.427 79.061C46.8963 78.1444 45.4731 75.9976 43.664 76.0699C42.9886 76.0941 42.7474 76.3594 42.6268 76.5283C42.0961 77.3484 42.3856 79.1575 43.4952 81.9074C43.8329 82.7757 44.1947 83.5476 44.5565 84.2954C44.9183 84.7296 45.2801 85.1638 45.6179 85.598C46.7998 87.0935 49.1878 90.7841 49.2843 90.9288C49.5014 91.2665 49.4049 91.7007 49.0672 91.9178C48.7295 92.1349 48.2953 92.0384 48.0541 91.7007C48.03 91.6525 45.5937 87.9136 44.46 86.4663C44.1464 86.0563 43.8087 85.6462 43.4469 85.2361C43.3987 85.1879 43.3745 85.1638 43.3504 85.1155C42.6991 84.3436 41.9755 83.62 41.1795 82.9928C40.6729 82.5828 40.0458 82.1727 39.4427 82.0762C39.0085 82.028 38.6708 82.3416 38.5261 82.6793C38.1643 83.5959 38.6708 84.8502 39.105 85.8633C39.4427 86.6834 39.8769 87.5518 40.4317 88.5649C43.7122 94.4265 54.1569 106.56 54.2534 106.68C54.4463 106.897 54.4946 107.235 54.3499 107.5L54.4705 107.573Z" fill="white"/>
<path d="M95.7669 80.0018C98.6132 83.017 101.725 84.8502 105.005 85.4533C108.696 86.1528 112.99 85.5015 116.777 83.6441C117.211 83.427 117.621 83.2099 118.031 82.9687C120.154 81.7144 122.035 79.9535 123.458 77.8791C124.52 76.3353 125.388 74.5503 126.088 72.4758C126.353 71.7281 126.57 70.9321 126.811 70.1843L126.908 69.8707C127.583 67.6274 127.487 64.4675 127.39 61.1387C127.318 58.6059 127.246 55.9767 127.511 53.6128C128.017 49.0538 127.656 45.5803 126.353 42.9993C125.557 41.4073 124.11 40.2977 122.662 39.3087C121.818 38.7056 121.022 38.1991 120.25 37.7649C119.623 39.381 117.935 42.8304 114.461 44.1571C110.047 45.8456 108.286 44.9049 108.093 44.7843C107.804 44.6154 107.683 44.2777 107.779 43.9641L108.069 43.0234C106.959 43.7953 105.367 44.5672 103.196 44.8808C99.6263 45.4114 96.587 45.3632 95.3085 45.3149C95.3085 45.3873 95.2603 45.4597 95.2362 45.532C95.2362 45.5803 95.2121 45.6285 95.1879 45.6526C94.9226 46.3522 94.6573 47.0517 94.3919 47.7753C93.5477 50.2116 93.0411 52.7685 92.8723 55.446C92.8723 55.6631 92.8481 55.9043 92.824 56.1214C92.7999 56.5797 92.7758 57.0622 92.7275 57.5205V57.7617C92.7275 58.1717 92.7034 58.6542 92.4622 59.0642C92.221 59.4743 91.7144 59.8361 91.232 59.8844C90.243 60.005 89.6159 58.7024 89.1817 57.834C89.1334 57.7617 89.1093 57.6893 89.0852 57.6411C88.4339 56.4109 87.7102 55.1807 86.6007 54.5053C85.5876 53.8781 84.2609 54.0228 83.0548 54.8671C80.9321 56.3385 80.0878 58.9436 80.7391 61.983C81.1009 63.6232 81.6799 64.974 82.5 65.963C83.3684 67.0002 84.5986 67.748 86.1906 68.1581C87.1313 68.3993 88.1444 68.5199 89.2299 68.4958C89.6159 68.4958 89.9536 68.8094 89.9536 69.2194C89.9536 69.6295 89.64 69.9431 89.2299 69.9431H89.1817C89.9536 71.7763 90.9184 73.4407 91.8833 74.9362C93.0894 76.8419 94.3919 78.5545 95.7669 80.0018ZM120.588 61.3076C119.551 61.3076 118.731 60.0532 118.731 58.4612C118.731 56.8692 119.551 55.6149 120.588 55.6149C121.625 55.6149 122.445 56.8692 122.445 58.4612C122.445 60.0532 121.625 61.3076 120.588 61.3076ZM116.125 49.9945C116.198 49.9704 117.669 49.1744 119.382 49.1744C121.095 49.1744 122.855 50.1393 122.928 50.1634C123.145 50.284 123.29 50.477 123.362 50.6941C123.434 50.9353 123.41 51.1765 123.29 51.3695C123.121 51.6589 122.831 51.8278 122.494 51.8278C122.156 51.8278 122.18 51.7795 122.059 51.7072C122.059 51.7072 120.636 50.9353 119.382 50.9353C118.128 50.9353 116.97 51.5383 116.97 51.5383C116.536 51.7795 115.981 51.6107 115.764 51.1524C115.522 50.7182 115.691 50.1634 116.125 49.9463V49.9945ZM113.327 65.3359C114.654 65.3359 115.185 65.0464 115.402 64.8052C115.571 64.5881 115.643 64.2745 115.571 63.8162C115.402 62.779 114.485 60.4392 113.955 59.2331C113.858 59.0401 113.858 58.823 113.955 58.6301C114.027 58.4371 114.172 58.2682 114.365 58.1959C114.775 58.027 115.233 58.1959 115.402 58.6059C115.402 58.6301 116.897 62.0071 117.139 63.5991C117.283 64.5398 117.09 65.2876 116.608 65.8665C115.981 66.5902 114.919 66.952 113.351 66.952C111.784 66.952 112.555 66.5902 112.555 66.156C112.555 65.7218 112.917 65.36 113.351 65.36L113.327 65.3359ZM112.17 70.2567C115.764 70.4979 119.695 70.329 119.744 70.329C119.961 70.329 120.178 70.4014 120.323 70.5702C120.467 70.7391 120.54 70.9562 120.491 71.1733C120.467 71.3421 119.816 75.1292 117.428 77.0107C116.174 77.9997 114.34 78.6027 112.387 78.6027C110.433 78.6027 108.744 78.0962 107.104 76.9383C103.727 74.5262 104.282 69.7742 104.426 69.4365C104.571 69.0988 104.957 68.93 105.295 69.0265C105.319 69.0265 108.575 70.0154 112.145 70.2567H112.17ZM103.679 58.2441C103.679 56.6521 104.499 55.3978 105.536 55.3978C106.573 55.3978 107.393 56.6521 107.393 58.2441C107.393 59.8361 106.573 61.0905 105.536 61.0905C104.499 61.0905 103.679 59.8361 103.679 58.2441ZM101.508 50.6217C101.58 50.5735 103.245 49.6568 105.15 49.6568C107.056 49.6568 107.996 50.2116 108.093 50.284C108.527 50.5493 108.648 51.1041 108.382 51.5142C108.117 51.9484 107.562 52.069 107.152 51.8036C107.152 51.8036 106.477 51.4418 105.126 51.4418C103.775 51.4418 102.376 52.1655 102.376 52.1655C102.231 52.2378 102.087 52.2861 101.942 52.2861C101.604 52.2861 101.315 52.1172 101.146 51.8278C100.905 51.3936 101.049 50.8388 101.484 50.5976L101.508 50.6217ZM88.265 62.8996C88.1927 62.8996 88.1444 62.9237 88.0721 62.9237C87.7585 62.9237 87.469 62.7066 87.3725 62.393C86.3112 58.4371 84.7433 57.9547 84.7192 57.9547H84.7433L85.0086 56.5315C85.2498 56.5797 87.4208 57.1345 88.7475 62.0071C88.844 62.393 88.6269 62.779 88.2409 62.8996H88.265Z" fill="white"/>
<path d="M186.681 120.092C188.539 113.916 188.466 110.829 188.297 109.695C187.791 109.792 187.284 109.816 186.778 109.792C186.368 109.768 186.078 109.43 186.102 109.02C186.126 108.61 186.464 108.32 186.874 108.344C187.767 108.417 188.707 108.2 189.552 107.765C191.144 106.945 192.302 104.871 192.663 102.218C193.073 99.3229 192.374 96.4525 190.951 95.0775C189.793 93.9921 188.37 93.9438 187.381 94.1127C185.523 94.4263 183.666 95.7288 182.87 97.2726C182.749 97.4897 182.532 97.6344 182.291 97.6585C182.05 97.6585 181.809 97.5621 181.64 97.3691C181.423 97.0796 176.261 89.9879 174.765 87.1174C173.704 85.0671 172.667 82.1966 172.112 80.6528C171.533 81.2317 170.833 82.1725 170.713 83.4268C170.544 85.2842 170.664 87.1898 170.761 89.023C170.857 90.7357 170.954 92.4965 170.833 94.2574C170.689 96.6937 169.7 98.4304 167.673 99.8777H167.649C166.781 100.529 164.441 102.193 164.755 103.592C165.165 105.402 167.866 106.366 168.686 106.632C168.976 106.728 169.169 106.969 169.193 107.283L169.458 111.263C170.327 111.118 171.943 110.781 173.8 110.009C175.248 109.406 175.947 108.923 175.971 108.899C175.971 108.899 175.995 108.899 176.019 108.875C176.357 108.682 176.791 108.779 176.984 109.092C177.129 109.309 177.129 109.575 177.033 109.792V111.022C176.984 111.697 176.888 112.252 176.743 112.735C176.454 113.868 175.826 114.809 174.813 115.726C173.945 116.497 172.305 117.486 171.412 118.017C171.702 118.548 172.112 119.344 172.522 119.875C173.487 121.201 174.355 122.142 175.223 122.769C176.598 123.758 178.311 124.313 180.723 124.554C181.181 124.602 181.688 124.651 182.195 124.651C183.256 124.699 184.317 124.651 185.379 124.554C185.74 123.179 186.175 121.684 186.657 120.092H186.681Z" fill="white"/>
<path d="M201.251 136.35C210.296 136.133 219.245 135.168 227.567 134.155C227.905 134.107 228.243 134.107 228.629 134.082C229.111 134.058 229.618 134.034 230.052 133.962C229.907 132.611 229.545 129.089 229.208 124.024C229.159 123.18 229.087 121.998 228.99 120.598C228.46 111.288 227.181 89.5058 224.793 79.8813C221.778 67.6758 210.779 63.165 204.507 61.573C201.468 60.8011 197.946 60.8735 193.435 61.7901C190.637 62.369 187.718 63.2133 184.727 64.3711C182.894 65.0706 181.157 66.0596 179.469 67.0245C178.263 67.6999 177.033 68.4235 175.73 69.0266C175.248 69.2678 174.741 69.4608 174.283 69.6778C172.932 70.2568 171.629 70.8116 170.568 71.7523C168.325 73.7303 167.698 76.4319 167.553 78.3616C167.287 82.1487 168.301 84.7056 169.217 86.2011C169.217 85.2363 169.217 84.2714 169.314 83.3065C169.579 80.4602 172.015 78.8923 172.112 78.8199C172.425 78.627 172.86 78.6993 173.077 79.0129C173.125 79.0853 173.173 79.1576 173.197 79.23C173.439 79.9778 174.765 83.9096 176.092 86.4665C177.226 88.6615 180.796 93.6788 182.243 95.6809C183.401 94.1854 185.258 93.0275 187.188 92.714C189.045 92.4004 190.758 92.8828 191.988 94.0648C193.773 95.7774 194.617 99.0579 194.135 102.459C193.701 105.547 192.253 108.031 190.251 109.093C190.082 109.189 189.914 109.261 189.721 109.334C189.938 110.588 190.082 113.869 188.08 120.574C185.62 128.752 184.655 134.348 184.607 134.71L184.462 135.988C186.705 136.133 189.093 136.253 191.457 136.35C194.569 136.471 197.874 136.495 201.251 136.422V136.35Z" fill="black"/>
<path d="M82.2588 53.6611C83.9473 52.4791 85.8529 52.3344 87.3967 53.251C88.8198 54.0953 89.6641 55.5426 90.4119 56.9416C90.436 56.9899 90.4842 57.0863 90.5325 57.1828C90.8702 57.8582 91.0631 58.1959 91.2079 58.3648C91.2079 58.3648 91.232 58.3407 91.2561 58.3165C91.3044 58.2201 91.3044 57.8582 91.3285 57.6894V57.3999C91.3767 56.9416 91.4009 56.4833 91.425 56.025C91.425 55.8079 91.4491 55.5667 91.4732 55.3496C91.6421 52.5515 92.1969 49.8499 93.0652 47.3171C93.3306 46.5693 93.5959 45.8457 93.8854 45.122V45.0497C94.199 44.2295 94.3678 43.7954 94.9467 43.8436C94.9708 43.8436 98.5408 44.1089 103.027 43.4577C107.225 42.8305 108.913 40.346 108.985 40.2495C109.178 39.96 109.564 39.8394 109.902 39.9841C110.216 40.1289 110.385 40.4907 110.288 40.8525L109.444 43.6747C110.143 43.7712 111.566 43.7471 114.003 42.8064C117.814 41.335 119.189 36.583 119.213 36.5348C119.261 36.3177 119.43 36.1488 119.623 36.0764C119.816 35.98 120.057 36.0041 120.25 36.0764H120.274C121.336 36.6312 122.397 37.2825 123.579 38.1027C125.171 39.2123 126.787 40.4666 127.728 42.3481C129.031 44.9532 129.489 48.3061 129.127 52.5756C129.947 50.7906 130.84 48.692 131.226 47.2206C131.949 44.4949 132.625 40.2977 130.14 35.401C127.824 30.8903 122.349 30.0461 122.301 30.0461C122.059 30.0219 121.842 29.8531 121.746 29.6119C121.746 29.6119 120.467 26.9826 114.003 25.3906C111.012 24.6669 107.707 24.6187 104.161 25.27C100.519 25.9454 97.2383 26.9585 94.416 28.3334C91.835 29.5877 89.5435 31.1074 87.5655 32.82C84.9604 35.0875 83.103 37.6444 82.0176 40.3701C78.9541 48.1614 81.1492 53.4922 81.5351 54.3124C81.7763 54.0711 82.0417 53.854 82.3311 53.6611H82.2588Z" fill="black"/>
<path d="M134.289 203.697H134.192C133.469 203.577 132.697 203.528 131.973 203.456C131.057 203.384 130.14 203.311 129.199 203.142C127.776 202.877 126.449 202.37 125.195 201.816H125.147C123.193 201.84 121.167 201.864 119.141 201.864C80.3772 201.864 50.2494 194.724 38.5504 182.784C36.7413 180.951 35.3905 178.997 34.4739 176.97V178.731C34.3774 183.001 36.1141 186.957 39.5876 190.503C45.3044 196.34 55.8456 201.14 70.1014 204.373C83.8266 207.484 100.784 209.149 119.116 209.149C137.449 209.149 133.903 208.956 140.585 208.594C139.113 207.967 137.787 207.267 136.749 206.447C135.712 205.651 134.868 204.71 134.241 203.673L134.289 203.697Z" fill="#E5D4FC"/>
<path d="M137.328 187.68C135.278 186.474 132.914 185.123 130.478 184.086C128.669 183.314 127.222 182.928 125.798 182.832C123.241 182.663 120.25 183.049 117.404 183.869C116.873 184.014 116.222 184.231 115.643 184.545C116.319 184.448 117.018 184.4 117.766 184.376C121.818 184.207 126.16 186.185 126.353 186.281C126.715 186.45 126.884 186.884 126.715 187.246C126.546 187.608 126.112 187.777 125.75 187.608C125.702 187.608 121.529 185.678 117.838 185.847C115.884 185.92 111.591 186.354 110.674 188.525C111.832 188.115 112.893 187.849 114.63 187.704C116.56 187.56 119.43 188.163 121.77 189.2C122.132 189.369 122.301 189.779 122.132 190.165C121.963 190.551 121.553 190.696 121.167 190.527C119.068 189.586 116.415 189.007 114.727 189.152C112.893 189.297 111.928 189.562 110.674 190.068C110.216 190.261 109.83 190.599 109.685 191.009C109.589 191.274 109.589 191.54 109.685 191.733C109.782 191.878 109.926 191.974 110.168 191.998C110.722 192.071 111.277 191.998 111.88 191.926H112.17C114.461 191.636 116.584 192.239 118.634 192.842L119.189 193.011C119.575 193.132 119.792 193.518 119.696 193.904C119.599 194.217 119.31 194.434 118.996 194.434C118.682 194.434 118.851 194.434 118.803 194.41L118.248 194.241C116.246 193.663 114.341 193.108 112.338 193.325H112.073C111.735 193.397 111.422 193.445 111.06 193.445C110.915 193.759 110.843 194.097 110.843 194.386C110.867 195.303 112.001 195.689 113.376 196.099C113.496 196.123 113.593 196.171 113.689 196.195L114.437 196.412C115.547 196.726 116.704 197.064 117.838 197.45C120.66 198.39 123.121 199.331 125.316 200.344C126.618 200.947 128.018 201.526 129.489 201.792C130.333 201.96 131.202 202.009 132.118 202.081C132.601 202.129 133.083 202.153 133.59 202.202C132.287 198.632 133.155 194.073 136.219 189.224C136.581 188.669 136.967 188.163 137.377 187.729L137.328 187.68Z" fill="white"/>
<path d="M138.462 186.668C138.703 186.475 138.944 186.306 139.186 186.161L125.557 178.177L86.0699 183.411L112.652 200.248C112.7 200.272 112.748 200.32 112.772 200.344C114.871 200.393 116.994 200.417 119.141 200.417H121.89C120.491 199.862 118.996 199.307 117.356 198.777C116.246 198.415 115.112 198.077 114.027 197.763L113.279 197.546C113.183 197.522 113.062 197.498 112.965 197.45C111.639 197.064 109.444 196.437 109.395 194.386C109.395 194.025 109.444 193.639 109.564 193.277C109.082 193.132 108.696 192.819 108.455 192.408C108.117 191.83 108.069 191.13 108.334 190.431C108.479 190.02 108.744 189.659 109.058 189.345V189.249C109.082 187.343 110.409 185.944 112.845 185.124C112.845 184.979 112.917 184.834 113.014 184.714C113.81 183.749 115.136 183.001 117.018 182.47C119.165 181.843 122.421 181.168 125.919 181.385C127.535 181.481 129.103 181.916 131.081 182.736C133.71 183.869 136.243 185.317 138.414 186.619C138.414 186.619 138.462 186.643 138.486 186.668H138.462Z" fill="#E5D4FC"/>
<path d="M70.1257 195.64C81.5352 198.245 95.188 199.813 109.999 200.272L83.6097 183.555C83.3444 183.387 83.2237 183.097 83.2961 182.784C83.3685 182.494 83.6097 182.253 83.8991 182.229L125.605 176.681C125.774 176.681 125.919 176.681 126.064 176.777L140.705 185.365C144.613 183.773 149.052 184.761 150.426 185.147C152.742 179.455 157.784 167.346 164.055 154.006C164.803 152.439 165.599 150.967 166.443 149.592C160.919 148.651 154.72 147.904 148.063 147.373C146.856 148.603 145.24 149.544 143.094 150.364C140.295 151.45 137.594 151.739 135.519 151.739C133.445 151.739 131.563 151.377 131.443 151.353C131.346 151.353 131.274 151.305 131.202 151.257C129.899 151.715 128.524 151.884 127.221 151.884C125.364 151.884 123.7 151.57 122.687 151.377H122.542C121.746 151.208 120.95 151.015 120.154 150.822C120.057 150.895 119.937 150.919 119.816 150.943L87.7827 153.428H87.7345C87.5415 153.428 87.3485 153.355 87.2038 153.186C87.0591 153.017 86.9867 152.8 87.0108 152.583C87.0108 152.535 87.3003 150.581 87.7104 147.855C83.875 147.807 78.5683 148.483 73.4545 149.206C68.4855 149.906 62.1415 151.401 62.0932 151.401H61.9968C59.5846 152.969 56.7865 153.813 53.8919 153.813C50.9973 153.813 51.6727 153.693 50.5631 153.452C50.4908 153.452 50.4184 153.428 50.346 153.403C50.2737 153.452 50.2254 153.5 50.1289 153.524C39.7325 157.359 34.6188 162.763 34.4499 170.047V170.096C34.3776 174.341 36.0902 178.273 39.5637 181.819C45.2805 187.656 55.8216 192.456 70.0775 195.689L70.1257 195.64Z" fill="white"/>
<path d="M175.03 192.577C173.728 195.351 172.522 197.787 171.581 199.5C170.327 201.816 169.072 203.673 167.818 205.169C170.857 204.493 173.245 203.866 175.079 203.263C174.958 199.814 174.958 195.568 175.006 192.577H175.03Z" fill="#E5D4FC"/>
<path d="M232.319 161.074C231.837 151.932 231.379 143.297 225.903 135.915C225.879 135.891 225.855 135.843 225.831 135.819C218.015 136.735 209.669 137.58 201.251 137.797C199.9 137.821 198.549 137.845 197.246 137.845C195.22 137.845 193.266 137.797 191.361 137.724C188.707 137.604 186.054 137.459 183.594 137.314C183.401 137.314 183.208 137.218 183.087 137.049C182.967 136.904 182.894 136.711 182.918 136.494L182.991 135.698C177.394 138.762 170.158 144.43 165.358 154.634C156.722 172.942 150.451 188.959 150.378 189.103C150.258 189.393 149.992 189.562 149.703 189.562C149.413 189.562 149.534 189.562 149.438 189.513C149.076 189.369 148.883 188.959 149.027 188.573C149.027 188.549 149.341 187.801 149.848 186.498C147.894 185.992 140.778 184.544 137.353 189.948C133.252 196.461 133.348 202.057 137.618 205.313C142.129 208.762 151.56 210.234 156.336 209.776C159.424 209.486 162.222 208.594 164.996 205.989C165.068 205.868 165.165 205.796 165.285 205.723C166.95 204.107 168.59 201.864 170.279 198.776C174.982 190.165 186.199 163.51 186.319 163.245C186.464 162.883 186.898 162.714 187.26 162.859C187.622 163.004 187.791 163.438 187.646 163.8C187.574 163.993 181.567 178.249 176.478 189.321C176.43 191.612 176.237 202.467 176.743 206.905C176.888 208.184 177.298 209.969 178.335 211.175C179.565 212.598 181.495 212.622 183.377 212.622H183.883C191.313 212.743 200.069 212.767 208.68 211.85C212.178 211.464 216.158 211.054 219.848 209.872C226.144 207.87 229.738 204.107 230.558 198.656C231.379 193.083 231.451 192.336 231.571 190.527C231.596 190.117 231.644 189.682 231.692 189.128C232.102 184.183 232.343 178.876 232.512 171.905C232.585 168.431 232.56 165.585 232.416 162.932C232.392 162.304 232.343 161.677 232.319 161.05V161.074Z" fill="#D1ABF5"/>
<path d="M88.6028 151.86L116.68 149.689C116.077 149.472 115.571 149.231 115.088 148.99C114.316 148.58 112.676 147.735 112.748 146.071C112.748 145.468 113.014 144.961 113.4 144.575C113.183 144.503 112.941 144.382 112.724 144.262C111.856 143.755 111.253 142.814 111.156 141.85C111.084 141.03 111.398 140.282 112.025 139.727C112.145 139.63 112.266 139.534 112.411 139.462C112.411 139.462 112.363 139.437 112.338 139.413C111.446 138.859 110.529 137.797 110.891 136.543C111.205 135.457 112.314 134.951 112.676 134.782C112.941 134.661 113.231 134.565 113.52 134.468C112.966 133.793 112.676 132.828 113.086 131.912C113.231 131.598 113.448 131.284 113.713 131.019C114.702 130.03 116.174 129.548 117.452 129.186C118.61 128.872 119.864 128.631 121.456 128.462C122.252 128.366 123.048 128.317 123.82 128.293L126.691 103.738L95.0915 105.595C94.6091 109.261 91.9557 128.872 91.2321 133.962C90.7737 137.122 89.9777 142.646 89.3506 146.891C89.3506 146.963 89.3988 147.06 89.3747 147.132C89.3747 147.277 89.3265 147.398 89.2541 147.494C88.9887 149.351 88.7475 150.919 88.6028 151.836V151.86ZM116.294 115.919C116.318 115.509 116.68 115.219 117.066 115.244C117.476 115.268 117.766 115.629 117.742 116.015C117.597 117.945 117.38 121.226 117.452 121.853C117.525 122.408 118.224 122.504 118.586 122.48C119.02 122.432 119.31 122.166 119.454 121.66C119.551 121.274 119.768 118.403 119.937 115.822C119.961 115.412 120.299 115.123 120.709 115.147C121.119 115.171 121.408 115.509 121.384 115.919C121.336 116.811 121.046 121.322 120.853 122.022C120.564 123.131 119.768 123.831 118.707 123.927H118.441C117.307 123.927 116.15 123.3 116.005 122.022C115.884 121.057 116.246 116.425 116.294 115.919ZM110.24 116.353C110.264 116.015 110.529 115.75 110.843 115.702C111.181 115.654 111.494 115.822 111.615 116.136L113.52 120.526L113.955 115.943C114.003 115.533 114.341 115.244 114.751 115.292C115.161 115.34 115.45 115.678 115.402 116.088L114.726 123.493C114.702 123.831 114.437 124.096 114.123 124.144C113.786 124.193 113.472 124.024 113.352 123.71L111.446 119.296L110.988 124C110.964 124.386 110.626 124.651 110.264 124.651C109.902 124.651 110.216 124.651 110.192 124.651C109.806 124.603 109.492 124.265 109.54 123.855L110.264 116.329L110.24 116.353ZM105.174 117.053C105.174 116.691 105.488 116.377 105.85 116.353L108.648 116.184C109.034 116.16 109.396 116.45 109.42 116.86C109.444 117.27 109.154 117.607 108.744 117.632L106.597 117.776L106.549 119.392L108.431 119.32C108.817 119.32 109.154 119.61 109.179 120.02C109.179 120.43 108.889 120.767 108.479 120.767L106.501 120.84L106.429 123.18L108.382 123.107C108.768 123.107 109.106 123.397 109.13 123.807C109.13 124.217 108.841 124.554 108.431 124.554L105.705 124.651H105.681C105.488 124.651 105.319 124.579 105.174 124.434C105.03 124.289 104.957 124.096 104.957 123.903L105.174 117.077V117.053ZM97.8896 117.053C97.9137 116.715 98.1791 116.45 98.4927 116.401C98.8304 116.353 99.1439 116.522 99.2645 116.836L100.736 120.309L102.617 116.86C102.786 116.57 103.124 116.425 103.438 116.498C103.751 116.594 103.992 116.884 103.968 117.222L103.679 124.241C103.679 124.627 103.341 124.94 102.955 124.94C102.569 124.94 102.955 124.94 102.931 124.94C102.521 124.94 102.231 124.579 102.231 124.193L102.4 120.309L101.291 122.335C101.17 122.576 100.905 122.721 100.615 122.721C100.326 122.721 100.085 122.528 99.9882 122.287L99.0474 120.068L98.6374 124.241C98.5891 124.627 98.2514 124.94 97.8414 124.892C97.4554 124.844 97.1418 124.506 97.1901 124.096L97.8655 117.077L97.8896 117.053Z" fill="#E5D4FC"/>
<path d="M122.831 149.906H122.976C125.292 150.364 131.467 151.546 134.072 147.156C136.846 142.453 136.195 137.363 135.495 135.771L135.423 135.602C134.627 133.793 133.276 130.778 127.897 130.006C125.967 129.74 123.868 129.716 121.601 129.958C120.105 130.126 118.899 130.319 117.838 130.633C116.728 130.947 115.474 131.357 114.726 132.104C114.582 132.249 114.461 132.418 114.389 132.563C114.172 133.021 114.509 133.624 114.919 133.914C115.088 134.01 115.257 134.106 115.45 134.179C115.932 134.348 116.511 134.396 117.018 134.42C119.478 134.517 121.963 134.275 124.279 133.986C125.316 133.841 126.353 133.721 127.294 133.552C127.68 133.479 128.066 133.769 128.114 134.155C128.186 134.541 127.897 134.927 127.511 134.975C126.546 135.12 125.509 135.264 124.447 135.409C122.059 135.723 119.502 135.988 116.946 135.867C116.391 135.843 115.788 135.795 115.209 135.626C114.485 135.747 113.834 135.94 113.255 136.205C112.676 136.47 112.338 136.736 112.266 137.025C112.145 137.435 112.604 137.966 113.086 138.255C114.823 139.317 117.066 139.22 119.213 139.124C119.695 139.124 120.178 139.076 120.66 139.076H122.276C124.037 139.076 125.846 139.027 127.631 138.907C128.017 138.883 128.379 139.172 128.403 139.582C128.427 139.992 128.138 140.33 127.728 140.354C125.919 140.499 124.061 140.499 122.276 140.523H120.66C120.202 140.523 119.744 140.547 119.261 140.571C118.634 140.595 118.007 140.619 117.356 140.619C116.704 140.619 115.547 140.571 114.654 140.378C113.858 140.402 113.279 140.571 112.917 140.885C112.652 141.126 112.531 141.415 112.555 141.777C112.604 142.284 112.941 142.79 113.4 143.08C113.81 143.321 114.316 143.466 115.04 143.562C115.812 143.659 116.608 143.731 117.356 143.779H117.428C120.154 143.996 125.581 144.382 125.653 144.382C126.064 144.406 126.353 144.744 126.329 145.154C126.305 145.54 125.991 145.83 125.605 145.83C125.219 145.83 125.581 145.83 125.557 145.83C125.509 145.83 120.057 145.444 117.331 145.227H117.259C116.777 145.178 116.294 145.154 115.812 145.106C115.715 145.154 115.595 145.202 115.474 145.202H115.45C114.847 145.202 114.196 145.637 114.172 146.24C114.147 146.843 114.775 147.301 115.739 147.808C116.439 148.169 117.259 148.507 118.345 148.845C119.816 149.327 121.312 149.713 122.807 149.978L122.831 149.906Z" fill="white"/>
<path d="M233.766 161.002C233.284 151.86 232.826 143.2 227.471 135.626C227.567 135.626 227.639 135.626 227.736 135.602C228.025 135.578 228.339 135.554 228.701 135.529C229.473 135.481 230.365 135.433 231.089 135.168C231.402 135.047 231.595 134.733 231.547 134.396C231.547 134.348 231.065 130.464 230.631 123.927C230.582 123.083 230.51 121.925 230.413 120.502C229.835 110.371 228.604 89.2884 226.168 79.5192C222.96 66.5659 211.43 61.8381 204.82 60.1737C201.564 59.3535 197.849 59.4259 193.097 60.3666C190.227 60.9456 187.212 61.8381 184.148 63.02C182.219 63.7678 180.434 64.7809 178.697 65.7699C177.515 66.4453 176.309 67.1448 175.054 67.7237C174.596 67.9408 174.114 68.1579 173.655 68.3509C172.256 68.9539 170.785 69.5811 169.555 70.6666C167.504 72.4757 166.274 75.1532 166.057 78.2407C165.623 84.5123 168.445 87.8411 169.265 88.6613V89.0954C169.362 90.7598 169.458 92.4966 169.338 94.161C169.217 96.1389 168.445 97.5139 166.781 98.6958H166.757C165.551 99.5883 162.752 101.59 163.283 103.906C163.79 106.125 166.274 107.307 167.721 107.838L168.011 112.107C168.011 112.3 168.107 112.469 168.252 112.614C168.397 112.735 168.59 112.807 168.783 112.783C168.879 112.783 171.243 112.59 174.283 111.336C174.765 111.143 175.175 110.95 175.513 110.781V110.901C175.465 111.504 175.392 111.963 175.272 112.373C175.054 113.217 174.572 113.917 173.776 114.64C172.691 115.605 170.061 117.076 170.037 117.101C169.699 117.294 169.579 117.704 169.748 118.041C169.772 118.114 170.568 119.73 171.291 120.719C172.353 122.19 173.342 123.227 174.331 123.951C175.923 125.085 177.828 125.712 180.53 126.001C181.037 126.05 181.543 126.098 182.098 126.122H183.039C183.666 126.122 184.317 126.098 184.944 126.05C183.907 130.078 183.352 132.924 183.159 133.986C178.359 136.446 172.184 140.812 167.215 148.29C161.763 147.349 155.661 146.577 149.1 146.022C150.668 143.586 151.053 140.233 150.643 135.24C150.426 132.514 149.92 129.789 149.437 127.256C148.858 124.385 148.183 121.346 147.339 117.969C146.567 114.906 145.819 112.132 145.023 109.478L144.854 108.875C144.155 106.511 143.431 104.075 142.128 101.904C140.319 98.8888 138.462 96.4525 136.508 94.4504C134.675 92.5931 132.745 91.0975 130.767 90.0603C126.112 87.5999 120.66 85.429 118.224 84.4882C118.393 84.3917 118.538 84.3194 118.706 84.2229C121.022 82.8721 123.048 80.9665 124.592 78.699C125.726 77.0347 126.642 75.1532 127.414 72.934C127.68 72.138 127.921 71.342 128.138 70.5701L128.234 70.2565C128.958 67.7961 128.886 64.5156 128.789 61.0662C128.741 59.5465 128.717 57.9786 128.741 56.4831C129.127 55.6871 131.732 50.5009 132.528 47.5581C133.758 42.9267 133.372 38.7296 131.322 34.7013C129.006 30.1664 124.134 28.888 122.759 28.6226C122.156 27.706 120.13 25.3904 114.244 23.9431C111.06 23.1712 107.538 23.0988 103.799 23.7983C100.012 24.4979 96.6111 25.5592 93.6682 26.9824C90.9907 28.2849 88.5786 29.877 86.5041 31.6861C83.7301 34.1224 81.728 36.8481 80.5702 39.7909C77.0002 48.8365 80.0878 54.8187 80.2084 55.0599C80.2808 55.1805 80.3772 55.277 80.4978 55.3494C79.1953 57.1585 78.7611 59.5948 79.3159 62.224C79.726 64.1055 80.4014 65.6493 81.3903 66.8312C82.4517 68.1097 83.9472 69.0263 85.8287 69.5087C86.4076 69.6535 86.9865 69.7741 87.6137 69.8223C88.458 72.0415 89.6399 74.0195 90.6772 75.6597C90.8219 75.9009 90.9907 76.1422 91.1355 76.3834C90.8942 77.2276 90.0741 80.1705 89.4711 82.7756C88.868 82.9444 85.5151 83.8611 82.1381 84.9948C79.4847 85.8873 76.2766 87.3828 74.5639 88.2029C74.6604 87.5034 74.781 86.6592 74.8775 85.6461C74.8775 85.5013 74.9016 85.3807 74.9258 85.2119C75.0705 84.1264 75.2393 82.7515 74.7569 81.666C74.5398 81.1836 74.2021 80.8459 73.7197 80.677C72.7548 80.3393 71.5729 80.8217 70.9698 81.1353C69.8361 81.7384 68.8712 82.7515 68.2923 83.9817C67.3516 85.9596 66.8209 87.7929 66.5797 88.7819C65.7596 86.6833 63.0338 79.7363 62.4308 78.1684L62.3584 77.9754C61.4659 75.6597 59.3432 70.2324 55.7973 71.2937C55.0978 71.5108 54.2294 72.1139 54.0847 73.923C54.0365 74.5019 54.0606 75.2014 54.1571 75.9733C51.166 71.1007 48.8745 70.8595 47.4513 71.5832C46.6794 71.9691 46.1728 72.5963 45.9316 73.3923C45.7628 73.9471 45.7628 74.5501 45.8351 75.1291C45.2321 74.7913 44.5567 74.5743 43.833 74.5743C43.1094 74.5743 43.7366 74.5743 43.6883 74.5743C42.434 74.6225 41.8068 75.2255 41.4933 75.708C40.5525 77.1794 41.1556 79.5674 41.9274 81.666C41.3003 81.2077 40.5766 80.7494 39.7324 80.6529C38.6951 80.5082 37.682 81.1353 37.272 82.1484C36.6689 83.6198 37.3443 85.236 37.8509 86.418C38.2127 87.2863 38.6469 88.2029 39.2499 89.2643C42.3134 94.7399 51.0936 105.112 52.9269 107.235L51.9379 109.116C51.9379 109.116 51.9379 109.165 51.9138 109.189C51.6484 108.996 51.3831 108.779 51.0936 108.562C51.0454 108.513 50.973 108.465 50.9007 108.441L50.8524 108.417C50.4906 108.224 50.0564 108.369 49.8634 108.706C49.8634 108.755 47.4513 113.265 45.5457 117.921C45.2562 118.596 44.9909 119.296 44.7014 119.971C42.8682 124.385 40.9626 128.944 40.0218 133.72C39.7324 135.216 39.5635 136.543 39.5394 137.797C39.4429 142.766 42.0239 148.121 45.9557 151.136C46.6794 151.691 47.4513 152.149 48.2714 152.535C43.6642 154.393 40.0701 156.612 37.5856 159.169C34.6427 162.208 33.0989 165.802 33.0025 169.854V178.587C32.906 183.242 34.7633 187.56 38.5263 191.395C50.2253 203.335 80.3531 210.475 119.116 210.475C157.88 210.475 136.291 210.234 143.889 209.727C143.962 209.727 144.01 209.727 144.082 209.679C147.508 210.644 151.246 211.175 154.334 211.175C155.106 211.175 155.83 211.151 156.481 211.078C159.906 210.741 162.994 209.776 166.057 206.857C169.917 206.037 172.883 205.289 175.127 204.59C175.175 205.482 175.247 206.278 175.32 206.953C175.489 208.425 175.971 210.499 177.249 211.995C178.89 213.9 181.278 213.925 183.352 213.949H183.859C185.957 213.997 188.152 214.021 190.42 214.021C196.257 214.021 202.577 213.828 208.825 213.177C212.226 212.815 216.447 212.357 220.282 211.151C227.133 208.98 231.089 204.807 231.981 198.776C232.826 193.156 232.874 192.384 233.019 190.551C233.043 190.165 233.091 189.707 233.139 189.152C233.549 184.183 233.815 178.852 233.959 171.832C234.032 168.335 234.008 165.44 233.863 162.739C233.839 162.111 233.79 161.484 233.766 160.857V161.002ZM182.243 124.651C181.736 124.651 181.23 124.602 180.771 124.554C178.335 124.289 176.646 123.734 175.272 122.769C174.427 122.166 173.535 121.225 172.57 119.875C172.184 119.344 171.75 118.548 171.46 118.017C172.353 117.487 173.993 116.498 174.861 115.726C175.875 114.809 176.478 113.868 176.791 112.735C176.912 112.252 177.008 111.697 177.081 111.022V109.792C177.177 109.575 177.177 109.309 177.032 109.092C176.815 108.779 176.381 108.682 176.068 108.875C176.068 108.875 176.043 108.875 176.019 108.899C175.995 108.899 175.296 109.406 173.848 110.009C171.991 110.781 170.375 111.118 169.506 111.263L169.241 107.283C169.241 106.994 169.024 106.728 168.735 106.632C167.914 106.366 165.213 105.402 164.803 103.593C164.489 102.218 166.829 100.529 167.697 99.9019H167.721C169.748 98.4305 170.737 96.6937 170.881 94.2575C171.002 92.4966 170.881 90.7357 170.809 89.0231C170.713 87.1898 170.592 85.2601 170.761 83.4269C170.881 82.1726 171.581 81.2318 172.16 80.6529C172.691 82.1967 173.728 85.0671 174.813 87.1175C176.309 89.9879 181.471 97.0797 181.688 97.3691C181.833 97.5621 182.074 97.6827 182.339 97.6586C182.58 97.6586 182.822 97.4898 182.918 97.2727C183.714 95.7289 185.571 94.4263 187.429 94.1127C188.418 93.9439 189.841 93.968 190.999 95.0776C192.446 96.4525 193.121 99.323 192.711 102.218C192.35 104.847 191.168 106.921 189.6 107.766C188.78 108.2 187.815 108.417 186.922 108.344C186.512 108.32 186.174 108.61 186.15 109.02C186.126 109.43 186.416 109.768 186.826 109.792C187.332 109.816 187.839 109.792 188.345 109.695C188.49 110.829 188.587 113.917 186.729 120.092C186.247 121.684 185.837 123.179 185.451 124.554C184.389 124.675 183.328 124.699 182.267 124.651H182.243ZM184.582 134.637C184.655 134.275 185.596 128.679 188.056 120.502C190.082 113.796 189.913 110.54 189.696 109.261C189.865 109.189 190.058 109.116 190.227 109.02C192.229 107.983 193.676 105.498 194.11 102.386C194.593 98.9853 193.749 95.7048 191.964 93.9921C190.733 92.8102 189.021 92.3277 187.163 92.6413C185.234 92.9549 183.376 94.1127 182.219 95.6083C180.771 93.6062 177.225 88.5889 176.068 86.3938C174.741 83.8369 173.438 79.9292 173.173 79.1574C173.173 79.085 173.101 78.9885 173.052 78.9403C172.835 78.6267 172.401 78.5543 172.087 78.7473C171.991 78.8197 169.531 80.3634 169.289 83.2339C169.193 84.1988 169.193 85.1636 169.193 86.1285C168.276 84.633 167.263 82.0761 167.528 78.289C167.673 76.3834 168.3 73.6818 170.544 71.6797C171.605 70.7389 172.908 70.1841 174.258 69.6052C174.741 69.4122 175.223 69.1951 175.706 68.9539C176.984 68.3509 178.238 67.6272 179.445 66.9518C181.133 65.987 182.87 64.998 184.703 64.2985C187.694 63.1647 190.613 62.2964 193.411 61.7175C197.922 60.8008 201.443 60.7285 204.483 61.5004C210.754 63.0924 221.754 67.579 224.769 79.8086C227.157 89.4331 228.435 111.239 228.966 120.526C229.039 121.949 229.111 123.107 229.183 123.951C229.521 129.017 229.883 132.538 230.028 133.889C229.593 133.962 229.087 133.986 228.604 134.01C228.243 134.01 227.881 134.058 227.543 134.082C219.221 135.095 210.248 136.036 201.226 136.277C197.825 136.35 194.545 136.35 191.433 136.205C189.045 136.108 186.681 135.964 184.438 135.843L184.582 134.565V134.637ZM81.9451 40.3699C83.0306 37.62 84.888 35.0872 87.4931 32.8198C89.4711 31.083 91.7626 29.5875 94.3436 28.3332C97.1659 26.9583 100.446 25.921 104.089 25.2697C107.635 24.6185 110.963 24.6667 113.93 25.3904C120.395 26.9824 121.673 29.5875 121.673 29.6116C121.77 29.8528 121.987 30.0217 122.228 30.0458C122.276 30.0458 127.752 30.8901 130.068 35.4008C132.576 40.2975 131.901 44.4946 131.153 47.2204C130.767 48.6918 129.875 50.7904 129.055 52.5754C129.416 48.3059 128.934 44.953 127.656 42.3478C126.715 40.4663 125.099 39.212 123.507 38.1024C122.349 37.2823 121.263 36.631 120.202 36.0762H120.178C119.985 35.9556 119.768 35.9556 119.551 36.0521C119.358 36.1486 119.213 36.3174 119.141 36.5104C119.141 36.5586 117.742 41.3347 113.93 42.782C111.518 43.7228 110.071 43.7469 109.371 43.6504L110.216 40.8282C110.312 40.4905 110.143 40.1286 109.83 39.9598C109.516 39.8151 109.106 39.9115 108.913 40.2251C108.841 40.3216 107.152 42.8061 102.955 43.4333C98.4925 44.0846 94.9226 43.8192 94.8743 43.8192C94.2713 43.771 94.1265 44.2293 93.8371 45.0253V45.0977C93.5235 45.8213 93.2582 46.545 92.9928 47.2927C92.1003 49.8496 91.5696 52.5513 91.4008 55.3252C91.4008 55.5423 91.3767 55.7835 91.3526 56.0006C91.3284 56.459 91.3043 56.9173 91.2561 57.3756V57.665C91.2561 57.8339 91.2561 58.2198 91.1837 58.2922C91.1837 58.2922 91.1837 58.3163 91.1355 58.3404C91.0149 58.1957 90.7978 57.858 90.4601 57.1585C90.4118 57.062 90.3636 56.9655 90.3395 56.9173C89.5917 55.5182 88.7474 54.095 87.3243 53.2267C85.8046 52.31 83.8749 52.4548 82.1864 53.6367C81.8969 53.8297 81.6316 54.0468 81.3903 54.288C81.0044 53.4679 78.8093 48.1129 81.8728 40.3457L81.9451 40.3699ZM89.2057 69.9429H89.254C89.664 69.9429 89.9776 69.6052 89.9776 69.2193C89.9776 68.8333 89.6399 68.4956 89.254 68.4956C88.1685 68.4956 87.1554 68.3991 86.2147 68.1579C84.6226 67.7478 83.3924 67.0001 82.5241 65.9628C81.7039 64.9739 81.1009 63.6231 80.7632 61.9828C80.1119 58.9435 80.9562 56.3625 83.0789 54.8669C84.2849 54.0227 85.6116 53.9021 86.6247 54.5051C87.7343 55.1805 88.458 56.4107 89.1092 57.6409C89.1092 57.6891 89.1575 57.7615 89.2057 57.8339C89.6158 58.7023 90.2671 60.0048 91.2561 59.8842C91.7144 59.836 92.2451 59.4741 92.4863 59.0641C92.7034 58.654 92.7275 58.1716 92.7516 57.7615V57.5203C92.7999 57.062 92.824 56.5796 92.8481 56.1213C92.8481 55.9042 92.8722 55.6629 92.8963 55.4458C93.0652 52.7925 93.5717 50.2115 94.416 47.7752C94.6572 47.0515 94.9226 46.3279 95.212 45.6525C95.212 45.6525 95.212 45.6042 95.2602 45.5319C95.2844 45.4354 95.3085 45.363 95.3326 45.3148C96.6111 45.3871 99.6504 45.4113 103.22 44.8806C105.391 44.567 106.983 43.7951 108.093 43.0232L107.803 43.964C107.707 44.2776 107.828 44.6153 108.117 44.7841C108.407 44.953 110.071 45.8696 114.485 44.1569C117.959 42.8303 119.647 39.3809 120.274 37.7647C121.046 38.1989 121.842 38.7055 122.686 39.3085C124.11 40.3216 125.581 41.4312 126.377 42.9991C127.656 45.5801 128.041 49.0536 127.535 53.6126C127.27 55.9765 127.342 58.6058 127.414 61.1385C127.511 64.4673 127.583 67.6272 126.932 69.8705L126.835 70.1841C126.618 70.956 126.377 71.7279 126.112 72.4757C125.388 74.5743 124.52 76.3351 123.482 77.8789C122.059 79.9534 120.202 81.7142 118.055 82.9686C117.645 83.2098 117.235 83.4269 116.801 83.644C113.014 85.5013 108.744 86.1526 105.029 85.4531C101.749 84.8259 98.6373 82.9927 95.7909 80.0016C94.416 78.5543 93.1134 76.8658 91.9074 74.9361C90.9666 73.4164 89.9776 71.7761 89.2057 69.9429ZM92.2209 77.9754C93.0169 79.085 93.8612 80.0981 94.7296 80.9906C97.793 84.2229 101.17 86.2009 104.74 86.8763C105.801 87.0692 106.887 87.1657 108.021 87.1657C110.023 87.1657 112.097 86.8521 114.123 86.225C113.979 87.817 113.351 91.5558 110.939 93.5579C109.106 95.0776 106.308 95.6806 102.617 95.3188C100.784 95.15 98.975 94.764 97.19 94.2333C95.2602 93.6303 93.813 92.8343 92.7516 91.7488C91.3767 90.3739 90.4842 88.5406 90.3153 86.7557C90.2188 85.7184 91.3284 81.2559 92.2209 77.9754ZM40.5525 88.6613C39.9736 87.624 39.5635 86.7798 39.2258 85.9838C38.8158 84.9465 38.2851 83.6922 38.6469 82.7756C38.7916 82.4379 39.1293 82.1002 39.5635 82.1726C40.1666 82.2449 40.7696 82.6791 41.3003 83.0892C42.0963 83.7163 42.7958 84.44 43.4712 85.2119C43.4953 85.2601 43.5436 85.3084 43.5677 85.3325C43.9295 85.7425 44.2431 86.1526 44.5808 86.5627C45.7145 88.01 48.1508 91.7488 48.1749 91.7971C48.392 92.1348 48.8503 92.2312 49.188 92.0142C49.5257 91.7971 49.6222 91.3387 49.4051 91.0252C49.3086 90.8804 46.9206 87.1898 45.7387 85.6943C45.4009 85.2601 45.0391 84.8259 44.6773 84.3917C44.3155 83.6681 43.9537 82.8721 43.616 82.0037C42.5064 79.2297 42.2169 77.4206 42.7476 76.6246C42.8682 76.4316 43.1094 76.1904 43.7848 76.1663C45.5939 76.0939 47.0171 78.2407 47.5478 79.1574C50.1529 83.6922 52.3962 87.9376 52.4203 87.9617C52.5409 88.2029 52.8063 88.3477 53.0716 88.3477C53.3369 88.3477 53.3128 88.3236 53.4093 88.2753C53.7711 88.0823 53.8917 87.6481 53.6988 87.2863C53.6988 87.2381 51.4313 82.9927 48.8021 78.4337C48.6332 78.1201 48.392 77.7583 48.1267 77.3965C48.1267 77.3965 48.1267 77.3482 48.1026 77.3241C47.789 76.7693 47.0412 75.0808 47.3789 73.9471C47.4995 73.537 47.7649 73.2234 48.1749 73.0305C49.4775 72.3551 51.5037 74.1883 53.5782 77.8789C55.725 81.7142 58.2819 85.8632 58.306 85.9114C58.4507 86.1285 58.6678 86.2491 58.9332 86.2491C59.1985 86.2491 59.1985 86.225 59.3191 86.1526C59.6568 85.9355 59.7533 85.5013 59.5603 85.1636C59.5603 85.1395 58.3542 83.1857 56.9069 80.7494V80.677V80.5805C56.328 79.0609 55.1219 74.8155 55.8697 73.2717C56.0144 72.9581 56.2074 72.8857 56.3521 72.8375C58.6196 72.1621 60.5252 77.0588 61.1523 78.6749L61.2247 78.8679C61.9483 80.7253 65.6148 90.0844 65.6148 90.0844L66.1214 89.8915C65.5183 90.4221 64.6017 91.2664 63.7092 92.2554C62.1413 93.9921 61.6106 96.6696 61.5865 96.7902C61.5142 97.1762 61.7795 97.5621 62.1654 97.6345C62.5514 97.7068 62.9373 97.4415 63.0097 97.0556C63.0097 97.0556 63.468 94.6675 64.7706 93.2202C66.1696 91.6765 67.6893 90.4463 67.7134 90.4463C67.8581 90.3498 67.9305 90.1809 67.9787 90.0121C67.9787 89.9879 68.4612 87.5034 69.7637 84.7536C70.2221 83.7887 70.9457 83.0168 71.8141 82.5585C72.4412 82.2208 73.1166 82.0761 73.4061 82.1726C73.4785 82.1967 73.5508 82.2449 73.5991 82.3655C73.9127 83.0892 73.7679 84.247 73.6473 85.1636C73.6473 85.3084 73.5991 85.4531 73.5991 85.5978C73.4302 87.1416 73.2614 88.2512 73.1408 89.1437C72.9237 90.7116 72.7789 91.6765 72.8031 93.1961C72.8272 95.3671 72.0794 99.2024 70.8251 101.59C69.5708 104.003 67.4963 106.849 67.4722 106.873C67.3757 106.994 67.3275 107.138 67.3275 107.283L67.2551 110.467C66.4832 110.757 65.7113 110.998 64.9877 111.215C62.9132 111.818 60.2116 112.445 57.703 111.987C56.2074 111.721 54.7119 111.094 53.2405 110.178C53.2887 110.129 53.3611 110.057 53.3852 109.985L54.5913 107.669C54.736 107.404 54.6878 107.09 54.4948 106.849C54.3983 106.728 43.9295 94.5952 40.6731 88.7336L40.5525 88.6613ZM46.8965 150.123C43.3265 147.373 40.9626 142.476 41.0349 137.942C41.0349 136.784 41.2038 135.529 41.4933 134.13C42.434 129.499 44.2914 124.988 46.1005 120.646C46.3899 119.947 46.6794 119.272 46.9447 118.596C48.3679 115.123 50.0564 111.746 50.8042 110.274C52.8786 111.866 55.0978 112.928 57.2929 113.338C60.1151 113.868 63.0338 113.193 65.253 112.542C66.4108 112.204 67.7617 111.77 69.0401 111.167C69.1607 111.408 69.2813 111.746 69.426 112.132C69.8602 113.314 69.7396 118.114 68.7024 124.675C67.9305 129.499 66.7968 132.948 65.8802 135.698C65.639 136.422 65.4219 137.097 65.2048 137.773C65.0842 138.159 65.3013 138.569 65.6872 138.689C65.7596 138.689 65.8319 138.714 65.9043 138.714C66.2179 138.714 66.5073 138.521 66.6038 138.207C66.7968 137.556 67.038 136.88 67.2551 136.157C68.1958 133.359 69.3296 129.861 70.1256 124.916C71.0904 118.765 71.3558 113.314 70.7768 111.673C70.1014 109.816 69.812 109.695 69.5466 109.599C69.3296 109.526 69.0883 109.526 68.8954 109.647C68.7748 109.695 68.6783 109.768 68.5577 109.816L68.6059 107.524C69.0883 106.849 70.801 104.413 71.9347 102.242C73.3096 99.6124 74.1056 95.56 74.0574 93.172C74.0574 91.99 74.1297 91.1699 74.2986 90.0362C75.3841 89.5055 79.4606 87.5275 82.5723 86.4662C85.2015 85.5737 87.8067 84.8259 89.0851 84.4641C88.868 85.5496 88.7474 86.4662 88.7957 86.9727C89.0128 89.0954 90.05 91.2423 91.642 92.8584C92.8722 94.1127 94.5366 95.0294 96.6834 95.7048C98.5649 96.2837 100.495 96.6696 102.4 96.8626C103.148 96.935 103.848 96.9591 104.523 96.9591C107.586 96.9591 110.023 96.2354 111.784 94.764C115.064 92.0383 115.474 86.9486 115.522 85.8149C115.812 85.6943 116.125 85.5737 116.415 85.4531C116.487 85.4772 123.965 88.2029 130.044 91.4352C131.901 92.4242 133.71 93.7992 135.423 95.56C137.304 97.4656 139.089 99.8295 140.85 102.748C142.056 104.75 142.756 107.114 143.431 109.382L143.6 109.985C144.372 112.614 145.12 115.364 145.891 118.403C146.736 121.756 147.411 124.771 147.99 127.618C148.472 130.102 148.955 132.78 149.196 135.433C149.654 141.029 149.027 144.117 147.266 146.143C147.194 146.191 147.146 146.264 147.098 146.336C145.988 147.542 144.468 148.338 142.514 149.086C138.776 150.533 135.157 150.437 133.203 150.22C133.975 149.641 134.675 148.893 135.254 147.928C138.341 142.694 137.594 137.097 136.749 135.216L136.677 135.047C136.315 134.251 135.785 133.045 134.771 131.887C135.785 131.646 137.232 131.332 138.052 131.284C139.475 131.212 142.587 131.453 142.635 131.453C143.045 131.477 143.383 131.188 143.407 130.778C143.431 130.367 143.142 130.03 142.732 130.006C142.611 130.006 139.475 129.764 137.98 129.837C136.701 129.909 134.337 130.488 133.493 130.705C133.035 130.367 132.528 130.03 131.925 129.74L134.723 114.351C134.796 113.965 134.53 113.579 134.144 113.506C133.758 113.434 133.372 113.699 133.3 114.085L130.55 129.161C129.802 128.92 128.958 128.703 128.017 128.558C127.101 128.438 126.16 128.365 125.195 128.341L128.162 103.11C128.186 102.893 128.114 102.676 127.969 102.531C127.824 102.386 127.607 102.29 127.39 102.314L94.3195 104.244C93.9818 104.244 93.6923 104.533 93.6441 104.871C93.62 105.112 90.5083 128.245 89.7123 133.817C89.2781 136.904 88.4821 142.211 87.879 146.408C83.899 146.336 78.4716 147.035 73.2131 147.759C70.2221 148.169 66.7727 148.869 64.4329 149.375C70.0773 143.707 72.9719 132.587 73.0925 132.08L75.8665 120.695C75.963 120.309 75.7218 119.923 75.3358 119.826C74.9499 119.73 74.5639 119.971 74.4674 120.357L71.6935 131.718C71.6693 131.839 68.5818 143.683 62.865 148.845C62.5514 149.11 62.2378 149.375 61.9242 149.616C58.7884 152.005 54.736 152.873 50.8042 152.005C49.381 151.691 48.0061 151.04 46.8 150.123H46.8965ZM89.3263 146.915C89.9535 142.669 90.7736 137.146 91.2078 133.986C91.9315 128.896 94.5848 109.285 95.0673 105.619L126.667 103.761L123.796 128.317C123.024 128.317 122.228 128.389 121.432 128.486C119.84 128.655 118.562 128.872 117.428 129.21C116.125 129.571 114.678 130.054 113.689 131.043C113.4 131.332 113.207 131.622 113.062 131.935C112.652 132.852 112.941 133.817 113.496 134.492C113.207 134.589 112.917 134.685 112.652 134.806C112.29 134.975 111.18 135.481 110.867 136.567C110.529 137.797 111.446 138.882 112.314 139.437C112.314 139.437 112.362 139.461 112.387 139.485C112.242 139.558 112.121 139.654 112.001 139.751C111.373 140.281 111.06 141.029 111.132 141.873C111.229 142.838 111.832 143.779 112.7 144.286C112.917 144.406 113.158 144.527 113.376 144.599C113.014 144.985 112.748 145.516 112.724 146.095C112.652 147.759 114.292 148.603 115.064 149.013C115.546 149.255 116.053 149.496 116.656 149.713L88.5786 151.884C88.7233 150.967 88.9404 149.399 89.2299 147.542C89.3022 147.446 89.3505 147.301 89.3505 147.18C89.3505 147.084 89.3505 147.011 89.3263 146.939V146.915ZM115.764 147.711C114.799 147.204 114.172 146.746 114.196 146.143C114.196 145.54 114.895 145.106 115.474 145.106C116.053 145.106 115.474 145.106 115.498 145.106C115.619 145.106 115.739 145.082 115.836 145.009C116.318 145.058 116.801 145.106 117.283 145.13H117.356C120.081 145.347 125.533 145.733 125.581 145.733H125.629C126.015 145.733 126.329 145.443 126.353 145.058C126.377 144.647 126.088 144.31 125.678 144.286C125.629 144.286 120.178 143.9 117.452 143.683H117.38C116.608 143.61 115.812 143.562 115.064 143.465C114.34 143.369 113.834 143.224 113.424 142.983C112.965 142.718 112.628 142.187 112.58 141.68C112.555 141.319 112.676 141.029 112.941 140.788C113.303 140.499 113.882 140.306 114.678 140.281C115.571 140.474 116.463 140.523 117.38 140.523C118.296 140.523 118.658 140.499 119.285 140.474C119.768 140.474 120.226 140.426 120.684 140.426H122.301C124.086 140.426 125.919 140.378 127.752 140.257C128.162 140.233 128.452 139.871 128.427 139.485C128.403 139.075 128.041 138.786 127.656 138.81C125.871 138.931 124.061 138.955 122.301 138.979H120.684C120.202 138.979 119.72 139.003 119.237 139.027C117.066 139.124 114.847 139.22 113.11 138.159C112.628 137.869 112.169 137.314 112.29 136.929C112.362 136.639 112.7 136.374 113.279 136.108C113.858 135.843 114.509 135.65 115.233 135.529C115.812 135.698 116.415 135.747 116.97 135.771C119.527 135.891 122.083 135.626 124.471 135.312C125.533 135.168 126.57 135.023 127.535 134.878C127.921 134.806 128.21 134.444 128.138 134.058C128.066 133.672 127.704 133.383 127.318 133.455C126.353 133.6 125.34 133.744 124.303 133.889C121.987 134.179 119.502 134.444 117.042 134.323C116.535 134.323 115.957 134.251 115.474 134.082C115.281 134.01 115.112 133.937 114.943 133.817C114.533 133.527 114.196 132.948 114.413 132.466C114.485 132.297 114.606 132.152 114.75 132.008C115.498 131.26 116.753 130.85 117.862 130.536C118.924 130.223 120.13 130.03 121.625 129.861C123.893 129.62 125.991 129.644 127.921 129.909C133.324 130.681 134.651 133.72 135.447 135.505L135.519 135.674C136.243 137.266 136.87 142.38 134.096 147.06C131.491 151.45 125.316 150.292 123 149.858H122.855C121.36 149.544 119.84 149.158 118.393 148.676C117.307 148.314 116.487 148 115.788 147.639L115.764 147.711ZM34.498 169.999C34.6427 162.739 39.7806 157.335 50.177 153.476C50.2494 153.452 50.3217 153.404 50.3941 153.355C50.4665 153.355 50.5388 153.404 50.6112 153.404C51.7208 153.645 52.8304 153.765 53.94 153.765C56.8346 153.765 59.6327 152.945 62.0448 151.353H62.1413C62.2137 151.353 68.5335 149.834 73.5026 149.158C78.6164 148.459 83.9231 147.759 87.7584 147.807C87.3484 150.509 87.0589 152.487 87.0589 152.535C87.0348 152.752 87.1072 152.969 87.2519 153.138C87.3966 153.283 87.5896 153.379 87.7826 153.379C87.9755 153.379 87.8308 153.379 87.8308 153.379L119.864 150.895C119.985 150.895 120.105 150.847 120.202 150.774C120.998 150.967 121.794 151.16 122.59 151.305H122.735C123.748 151.522 125.412 151.836 127.27 151.836C128.572 151.836 129.947 151.667 131.25 151.209C131.322 151.257 131.394 151.281 131.491 151.305C131.611 151.329 133.203 151.691 135.567 151.691C137.931 151.691 140.343 151.401 143.142 150.316C145.264 149.496 146.905 148.531 148.111 147.325C154.792 147.856 160.967 148.603 166.491 149.544C165.647 150.919 164.851 152.39 164.103 153.958C157.832 167.298 152.79 179.407 150.475 185.099C149.1 184.713 144.685 183.724 140.754 185.316L126.112 176.729C125.967 176.657 125.798 176.609 125.653 176.633L83.9472 182.181C83.6337 182.229 83.3924 182.446 83.3442 182.735C83.2718 183.025 83.4166 183.338 83.6578 183.507L110.047 200.224C95.2361 199.765 81.5833 198.197 70.1738 195.592C55.918 192.36 45.3527 187.56 39.66 181.722C36.1865 178.176 34.4739 174.221 34.5462 169.999V169.951L34.498 169.999ZM133.541 202.153C133.059 202.105 132.552 202.057 132.07 202.033C131.153 201.96 130.309 201.888 129.441 201.743C127.969 201.478 126.57 200.899 125.267 200.296C123.072 199.307 120.636 198.366 117.79 197.401C116.656 197.015 115.522 196.678 114.389 196.364L113.641 196.147C113.544 196.123 113.424 196.075 113.327 196.051C111.952 195.665 110.819 195.255 110.795 194.338C110.795 194.048 110.867 193.711 111.012 193.397C111.349 193.397 111.687 193.349 112.025 193.301H112.29C114.292 193.035 116.174 193.59 118.2 194.169L118.755 194.338C118.827 194.338 118.899 194.362 118.948 194.362C119.261 194.362 119.551 194.145 119.647 193.831C119.768 193.445 119.527 193.035 119.141 192.939L118.586 192.77C116.535 192.167 114.389 191.564 112.121 191.805H111.832C111.229 191.902 110.65 191.974 110.119 191.902C109.902 191.878 109.733 191.781 109.637 191.636C109.516 191.443 109.516 191.178 109.637 190.913C109.781 190.527 110.167 190.165 110.626 189.972C111.88 189.465 112.869 189.2 114.678 189.055C116.367 188.935 119.02 189.489 121.119 190.43C121.48 190.599 121.915 190.43 122.083 190.068C122.252 189.707 122.083 189.272 121.722 189.104C119.382 188.066 116.511 187.463 114.582 187.608C112.845 187.753 111.784 187.994 110.626 188.428C111.542 186.257 115.836 185.847 117.79 185.751C121.505 185.606 125.678 187.487 125.702 187.511C126.064 187.68 126.498 187.511 126.667 187.15C126.835 186.788 126.667 186.354 126.305 186.185C126.112 186.088 121.77 184.11 117.717 184.279C116.97 184.303 116.246 184.376 115.595 184.448C116.174 184.159 116.825 183.941 117.356 183.773C120.226 182.953 123.217 182.591 125.75 182.735C127.173 182.832 128.62 183.218 130.43 183.99C132.866 185.027 135.23 186.378 137.28 187.584C136.87 188.018 136.484 188.525 136.122 189.079C133.059 193.928 132.19 198.463 133.493 202.057L133.541 202.153ZM131.057 182.735C129.103 181.891 127.511 181.481 125.895 181.385C122.421 181.168 119.141 181.843 116.994 182.47C115.136 183.001 113.786 183.773 112.99 184.713C112.893 184.834 112.845 184.979 112.821 185.123C110.384 185.944 109.058 187.343 109.034 189.248V189.345C108.696 189.658 108.455 190.02 108.31 190.43C108.045 191.106 108.093 191.829 108.431 192.408C108.672 192.818 109.058 193.132 109.54 193.277C109.42 193.638 109.371 194.024 109.371 194.386C109.42 196.436 111.639 197.064 112.941 197.45C113.038 197.474 113.158 197.522 113.255 197.546L114.003 197.763C115.112 198.077 116.246 198.414 117.331 198.776C118.972 199.331 120.467 199.862 121.866 200.417H119.116C116.97 200.417 114.847 200.417 112.748 200.344C112.7 200.296 112.676 200.272 112.628 200.248L86.0458 183.411L125.533 178.176L139.162 186.161C138.92 186.305 138.679 186.498 138.438 186.667C138.438 186.667 138.39 186.643 138.366 186.619C136.195 185.341 133.662 183.869 131.033 182.735H131.057ZM119.141 209.173C100.808 209.173 83.8507 207.532 70.1256 204.397C55.8697 201.164 45.3045 196.364 39.6118 190.527C36.1383 186.957 34.4015 183.001 34.498 178.755V176.994C35.4146 179.021 36.7895 180.975 38.5745 182.808C50.2735 194.748 80.4014 201.888 119.165 201.888C157.928 201.888 123.193 201.888 125.171 201.84H125.219C126.474 202.395 127.8 202.901 129.223 203.166C130.14 203.335 131.081 203.408 131.997 203.48C132.721 203.528 133.493 203.601 134.217 203.721H134.313C134.94 204.758 135.76 205.675 136.822 206.495C137.883 207.291 139.186 208.015 140.657 208.642C133.951 209.004 126.763 209.197 119.189 209.197L119.141 209.173ZM167.818 205.144C169.072 203.649 170.302 201.791 171.581 199.476C172.522 197.763 173.704 195.351 175.03 192.553C174.982 195.544 174.982 199.789 175.103 203.239C173.269 203.818 170.881 204.445 167.842 205.144H167.818ZM232.536 171.953C232.367 178.924 232.126 184.231 231.716 189.176C231.668 189.731 231.644 190.189 231.595 190.575C231.451 192.384 231.402 193.132 230.582 198.704C229.762 204.155 226.168 207.918 219.872 209.92C216.182 211.102 212.202 211.512 208.704 211.898C200.117 212.815 191.361 212.815 183.907 212.67H183.4C181.519 212.67 179.589 212.622 178.359 211.223C177.298 210.017 176.912 208.232 176.767 206.953C176.261 202.515 176.453 191.636 176.502 189.369C181.591 178.297 187.574 164.041 187.67 163.848C187.815 163.486 187.67 163.052 187.284 162.907C186.922 162.763 186.488 162.907 186.343 163.293C186.223 163.559 175.006 190.213 170.302 198.825C168.614 201.912 166.974 204.155 165.309 205.772C165.189 205.844 165.092 205.916 165.02 206.037C162.246 208.642 159.448 209.534 156.36 209.824C151.584 210.282 142.153 208.811 137.642 205.361C133.372 202.105 133.276 196.509 137.377 189.996C140.778 184.593 147.894 186.04 149.872 186.547C149.341 187.849 149.051 188.597 149.051 188.621C148.907 188.983 149.1 189.417 149.461 189.562C149.558 189.586 149.63 189.61 149.727 189.61C150.016 189.61 150.282 189.441 150.402 189.152C150.475 188.983 156.746 172.99 165.382 154.682C170.182 144.479 177.418 138.81 183.015 135.747L182.942 136.543C182.942 136.736 182.99 136.929 183.111 137.097C183.232 137.242 183.425 137.339 183.618 137.363C186.102 137.507 188.731 137.676 191.385 137.773C193.29 137.845 195.244 137.893 197.27 137.893C199.297 137.893 199.924 137.893 201.275 137.845C209.693 137.628 218.015 136.808 225.854 135.867C225.854 135.891 225.903 135.94 225.927 135.964C231.402 143.321 231.861 151.956 232.343 161.122C232.367 161.75 232.416 162.377 232.44 163.004C232.584 165.681 232.609 168.528 232.536 171.977V171.953Z" fill="#060001"/>
<path d="M97.8413 125.326C98.2272 125.374 98.5891 125.085 98.6373 124.675L99.0474 120.019L99.9881 122.239C100.085 122.504 100.35 122.673 100.615 122.673C100.881 122.673 101.146 122.528 101.291 122.287L102.4 120.261L102.231 124.144C102.231 124.554 102.521 124.892 102.931 124.892H102.955C103.341 124.892 103.655 124.578 103.679 124.192L103.968 117.173C103.968 116.835 103.751 116.546 103.438 116.449C103.1 116.353 102.762 116.498 102.617 116.811L100.736 120.261L99.2645 116.787C99.1439 116.473 98.8062 116.305 98.4926 116.353C98.1549 116.401 97.9137 116.666 97.8895 117.004L97.2141 124.506C97.1659 124.892 97.4554 125.254 97.8654 125.302L97.8413 125.326Z" fill="#060001"/>
<path d="M105.175 124.434C105.319 124.578 105.488 124.651 105.681 124.651C105.874 124.651 105.681 124.651 105.705 124.651L108.431 124.554C108.841 124.554 109.131 124.192 109.131 123.806C109.131 123.396 108.769 123.107 108.383 123.107L106.429 123.179L106.501 120.839L108.479 120.767C108.889 120.767 109.179 120.405 109.179 120.019C109.179 119.609 108.817 119.32 108.431 119.32L106.55 119.392L106.598 117.776L108.745 117.631C109.155 117.607 109.444 117.269 109.42 116.859C109.396 116.449 109.034 116.16 108.648 116.184L105.85 116.353C105.488 116.353 105.175 116.691 105.175 117.052L104.957 123.879C104.957 124.072 105.03 124.265 105.175 124.409V124.434Z" fill="#060001"/>
<path d="M110.192 124.675H110.264C110.626 124.675 110.939 124.385 110.988 124.024L111.446 119.32L113.351 123.734C113.472 124.048 113.81 124.217 114.123 124.168C114.461 124.12 114.702 123.855 114.726 123.517L115.402 116.112C115.45 115.726 115.136 115.364 114.751 115.316C114.365 115.267 114.003 115.581 113.954 115.967L113.52 120.55L111.615 116.16C111.494 115.846 111.156 115.678 110.843 115.726C110.505 115.774 110.264 116.039 110.24 116.377L109.516 123.903C109.468 124.289 109.781 124.651 110.167 124.699L110.192 124.675Z" fill="#060001"/>
<path d="M118.441 123.927H118.707C119.768 123.831 120.564 123.131 120.853 122.022C121.046 121.298 121.336 116.811 121.384 115.919C121.408 115.509 121.095 115.171 120.709 115.147C120.323 115.147 119.961 115.436 119.937 115.822C119.768 118.379 119.551 121.274 119.454 121.66C119.31 122.166 119.02 122.456 118.586 122.48C118.224 122.504 117.525 122.408 117.452 121.853C117.38 121.226 117.597 117.945 117.742 116.015C117.766 115.605 117.476 115.268 117.066 115.243C116.656 115.219 116.319 115.509 116.294 115.919C116.246 116.45 115.909 121.057 116.005 122.022C116.15 123.3 117.308 123.927 118.441 123.927Z" fill="#060001"/>
<path d="M113.327 66.9277C114.895 66.9277 115.981 66.5659 116.584 65.8423C117.066 65.2633 117.259 64.5156 117.114 63.5748C116.873 62.0069 115.378 58.6299 115.378 58.5817C115.209 58.1716 114.726 58.0028 114.34 58.1716C114.147 58.2681 114.003 58.4128 113.93 58.6058C113.858 58.7988 113.858 59.0159 113.93 59.2088C114.461 60.4149 115.402 62.7547 115.546 63.7919C115.619 64.2502 115.546 64.5879 115.378 64.7809C115.16 65.0221 114.654 65.3116 113.303 65.3116C111.952 65.3116 112.507 65.6734 112.507 66.1076C112.507 66.5418 112.869 66.9036 113.303 66.9036L113.327 66.9277Z" fill="#060001"/>
<path d="M105.536 61.0906C106.573 61.0906 107.393 59.8363 107.393 58.2443C107.393 56.6523 106.573 55.3979 105.536 55.3979C104.499 55.3979 103.679 56.6523 103.679 58.2443C103.679 59.8363 104.499 61.0906 105.536 61.0906Z" fill="#060001"/>
<path d="M101.942 52.286C102.087 52.286 102.256 52.2377 102.376 52.1654C102.376 52.1654 103.703 51.4417 105.126 51.4417C106.549 51.4417 107.152 51.8036 107.152 51.8036C107.586 52.0689 108.117 51.9242 108.383 51.5141C108.648 51.0799 108.503 50.5251 108.093 50.2839C107.997 50.2115 107.032 49.6567 105.15 49.6567C103.269 49.6567 101.58 50.5734 101.508 50.6216C101.074 50.8628 100.929 51.4176 101.17 51.8518C101.339 52.1413 101.628 52.3101 101.966 52.3101L101.942 52.286Z" fill="#060001"/>
<path d="M120.588 55.615C119.551 55.615 118.731 56.8693 118.731 58.4613C118.731 60.0534 119.551 61.3077 120.588 61.3077C121.625 61.3077 122.445 60.0534 122.445 58.4613C122.445 56.8693 121.625 55.615 120.588 55.615Z" fill="#060001"/>
<path d="M116.97 51.5866C116.97 51.5866 118.152 50.9835 119.382 50.9835C120.612 50.9835 122.035 51.7554 122.059 51.7554C122.204 51.8278 122.349 51.876 122.494 51.876C122.831 51.876 123.121 51.7072 123.29 51.4177C123.41 51.2006 123.434 50.9594 123.362 50.7423C123.29 50.5011 123.145 50.3323 122.928 50.2116C122.855 50.1634 121.119 49.2227 119.382 49.2227C117.645 49.2227 116.174 49.9945 116.126 50.0428C115.691 50.284 115.522 50.8147 115.764 51.2489C116.005 51.6831 116.536 51.8519 116.97 51.6348V51.5866Z" fill="#060001"/>
<path d="M104.451 69.4365C104.306 69.7742 103.751 74.5262 107.128 76.9383C108.744 78.0961 110.626 78.6027 112.411 78.6027C114.196 78.6027 116.198 77.9997 117.452 77.0107C119.84 75.1292 120.492 71.318 120.516 71.1733C120.54 70.9562 120.492 70.7391 120.347 70.5702C120.202 70.4014 119.985 70.329 119.768 70.329C119.72 70.329 115.788 70.4979 112.194 70.2566C108.624 70.0154 105.367 69.0264 105.343 69.0264C104.981 68.93 104.62 69.0988 104.475 69.4365H104.451ZM112.073 71.7039C114.678 71.8728 117.452 71.8487 118.875 71.8004C118.562 72.91 117.886 74.8156 116.536 75.877C114.558 77.4207 110.819 77.8067 107.972 75.7564C106.019 74.3573 105.777 71.8969 105.777 70.6426C107.032 70.9562 109.468 71.511 112.073 71.6798V71.7039Z" fill="#060001"/>
<path d="M169 9.68745C155.733 9.68745 144.951 17.9612 144.951 28.1887C144.951 38.4162 148.907 39.8635 154.986 43.2164L153.731 48.3061L160.823 45.5804H160.799C163.356 46.2799 166.13 46.6658 169 46.6658C182.267 46.6658 193.049 38.3921 193.049 28.1646C193.049 17.937 182.291 9.66333 169 9.66333V9.68745Z" fill="white" stroke="black" stroke-width="1.32669" stroke-linecap="round" stroke-linejoin="round"/>
<path d="M161.426 29.853C162.478 29.853 163.332 28.9998 163.332 27.9474C163.332 26.8949 162.478 26.0417 161.426 26.0417C160.374 26.0417 159.52 26.8949 159.52 27.9474C159.52 28.9998 160.374 29.853 161.426 29.853Z" fill="black"/>
<path d="M169.314 29.853C170.366 29.853 171.219 28.9998 171.219 27.9474C171.219 26.8949 170.366 26.0417 169.314 26.0417C168.261 26.0417 167.408 26.8949 167.408 27.9474C167.408 28.9998 168.261 29.853 169.314 29.853Z" fill="black"/>
<path d="M177.202 29.853C178.254 29.853 179.107 28.9998 179.107 27.9474C179.107 26.8949 178.254 26.0417 177.202 26.0417C176.149 26.0417 175.296 26.8949 175.296 27.9474C175.296 28.9998 176.149 29.853 177.202 29.853Z" fill="black"/>
<path d="M88.1926 61.9587C87.0348 57.6651 85.105 57.1586 84.8879 57.1344C84.7191 57.1103 84.5502 57.1344 84.4055 57.2309C84.2608 57.3274 84.1643 57.4721 84.1161 57.641C84.0678 57.834 84.1161 58.0511 84.2608 58.2199C84.4779 58.437 84.8397 58.5094 85.0809 58.7265C85.3221 58.9435 85.4669 59.1124 85.6116 59.3295C86.2146 60.1496 86.5765 61.1386 86.8418 62.1035C87.1071 63.0683 86.89 62.2482 86.89 62.3206C86.9624 62.61 87.2277 62.803 87.5172 62.803C87.8067 62.803 87.6378 62.803 87.686 62.803C88.0238 62.7065 88.2408 62.3447 88.1444 62.007L88.1926 61.9587Z" fill="#060001"/>
</g>
<defs>
<clipPath id="clip0_7599_30054">
<rect width="201" height="205.021" fill="white" transform="translate(33 9)"/>
</clipPath>
</defs>
</svg>
