<svg width="267" height="224" viewBox="0 0 267 224" fill="none" xmlns="http://www.w3.org/2000/svg">
<g clip-path="url(#clip0_7443_25461)">
<path d="M178.388 50.2693C177.324 50.8779 176.108 51.7907 175.895 52.4297C175.53 53.6164 173.706 55.5943 172.034 55.5943C171.912 55.5943 171.821 55.5943 171.699 55.5639C170.848 55.4117 169.845 54.7423 169.875 52.2167C169.936 48.3218 167.96 39.0106 167.352 36.2416C165.133 36.4851 158.931 36.9111 153.033 35.3288C148.594 34.1116 145.22 31.2817 143.183 29.1517L144.125 35.0549C144.156 35.2983 144.095 35.5418 143.943 35.7548C143.791 35.9373 143.548 36.0895 143.304 36.0895C143.152 36.0895 139.231 36.3938 134.67 34.3246C130.84 32.5902 127.435 26.474 126.249 24.131C123.695 25.8958 116.004 31.7686 115.365 39.2236C114.575 48.5957 114.18 54.0424 114.149 54.1033C114.119 54.4684 113.876 54.8032 113.511 54.8944C113.146 54.9857 112.751 54.864 112.538 54.5597L108.738 49.4173C108.343 49.4173 107.522 49.5086 106.762 50.1476C105.667 51.03 104.999 52.734 104.816 55.077C104.087 65.0272 112.721 66.2139 113.085 66.2748C113.511 66.3357 113.845 66.7008 113.876 67.1268C113.906 67.8875 114.149 68.7395 114.393 69.5611C114.453 69.7133 114.484 69.8654 114.514 70.048C115.396 73.1517 116.399 76.4076 117.919 79.2983C119.409 82.189 121.567 84.7755 124.334 86.9968C129.685 91.2872 136.038 93.7215 141.754 93.7215C149.445 93.7215 155.07 91.5307 160.299 86.3578C160.36 86.0231 160.633 85.7492 160.968 85.6579C161.849 84.7146 162.731 83.68 163.613 82.5846C169.51 75.0383 171.061 66.8225 171.061 66.7312C171.122 66.3661 171.426 66.0922 171.76 66.0009C175.53 65.2707 177.597 63.9318 179.938 57.8765C181.61 53.586 179.543 51.2126 178.388 50.2693ZM136.616 59.9761C137.042 57.2375 139.626 51.3039 139.747 51.0604C139.96 50.604 140.477 50.391 140.933 50.604C141.389 50.817 141.602 51.3343 141.389 51.7907C141.359 51.8516 138.775 57.7548 138.41 60.2499C138.258 61.2541 138.41 61.9843 138.835 62.5016C139.474 63.2624 140.872 63.6579 143 63.6579C143.487 63.6579 143.912 64.0535 143.912 64.5708C143.912 65.0577 143.517 65.4837 143 65.4837C140.325 65.4837 138.501 64.9055 137.498 63.7188C136.677 62.7451 136.403 61.5279 136.616 59.9761ZM151.969 77.7769C149.749 79.9982 146.193 82.7063 141.663 82.9802C141.45 82.9802 141.237 83.0106 141.055 83.0106C132.877 83.0106 128.894 73.0908 128.712 72.6648C128.59 72.3606 128.651 71.9954 128.864 71.752C129.077 71.5085 129.411 71.3868 129.745 71.4477C129.806 71.4477 133.272 72.2084 141.45 72.3606C149.658 72.5127 154.735 71.1738 154.766 71.1434C155.039 71.0825 155.313 71.113 155.556 71.2955C155.769 71.4781 155.921 71.7215 155.921 71.9954C155.921 72.9387 154.036 75.7077 151.969 77.7769Z" fill="white"/>
<path d="M141.419 74.1254C136.221 74.0342 132.907 73.6994 131.083 73.456C132.512 76.1337 136.038 81.4892 141.541 81.1849C147.257 80.8502 151.665 75.8599 153.367 73.2734C151.148 73.669 147.013 74.2472 141.419 74.1254Z" fill="#EAE3F1"/>
<path d="M78.0021 128.441C81.5287 128.228 85.7849 127.254 88.7946 126.463C88.7034 124.576 88.5514 119.829 89.3722 117.517C89.7979 116.3 90.5883 114.991 91.5307 113.5C92.3212 112.192 93.2028 110.792 93.9629 109.24C93.9933 109.088 94.0541 108.966 94.1453 108.845C94.5101 108.023 94.8749 107.171 95.1485 106.289C96.7902 101.207 99.7999 89.7658 99.6479 86.9968C99.5871 85.8709 99.5263 83.8322 98.0062 83.9539C95.6045 84.1365 94.2669 85.9622 93.2028 87.9705C91.6827 90.8612 90.6795 93.4477 90.1019 94.9996C89.6154 96.2471 89.4938 96.5819 89.2506 96.8253C89.129 96.947 89.0074 97.0383 88.5514 97.3426C87.2137 98.2554 83.1095 101.055 81.9239 103.854C80.4646 107.293 80.4342 111.827 80.4342 111.857C80.4342 112.344 80.039 112.77 79.5222 112.77C79.0358 112.77 78.6101 112.374 78.6101 111.857C78.6101 111.644 78.6405 106.897 80.2214 103.124C81.4983 100.142 85.116 97.4643 86.9705 96.1863C86.5753 94.0867 84.6904 84.5321 83.3832 78.2333C83.0183 76.5293 82.6839 74.7949 82.1975 73.1213C81.8023 71.7216 80.9814 67.5833 78.7317 68.3744C76.9989 68.983 76.7861 72.4519 76.6948 73.9733L76.6036 75.2817C76.7557 75.8599 76.9381 76.4989 77.0901 77.1074C78.0629 80.911 79.583 87.0272 80.1302 89.1877C81.4679 89.0659 82.3495 89.066 82.4103 89.066C82.8967 89.066 83.292 89.492 83.292 89.9788C83.292 90.4657 82.8663 90.8612 82.3799 90.8612C82.3191 90.8612 77.3333 90.8004 72.8339 92.8391C68.2129 94.9083 64.1391 97.9511 64.1087 97.9816C63.9567 98.1033 63.7438 98.1641 63.5614 98.1641C63.2878 98.1641 63.0142 98.0424 62.8318 97.799C62.5278 97.4034 62.619 96.8253 63.0142 96.5514C63.075 96.4906 63.8655 95.9428 65.0815 95.1213C64.6255 93.8128 63.1966 89.6745 62.1934 86.7229L60.0653 83.8322C59.062 82.4933 57.1771 80.6068 56.0827 80.6068C55.9307 80.6068 55.7787 80.6372 55.5963 80.8806C54.1066 82.7672 55.0794 85.7492 56.4171 89.8875L56.5995 90.4352C56.9947 91.622 57.4204 92.9 57.9068 94.2997C59.2748 98.3772 60.8557 102.972 61.7678 106.928C62.923 111.888 64.5647 117.912 66.936 120.225C69.0945 122.325 69.0641 125.976 68.9121 127.741C71.4962 128.167 74.8404 128.654 78.0021 128.441Z" fill="white"/>
<path d="M68.0305 81.3979C67.9393 81.0936 67.6961 80.3329 67.4529 79.2679C67.4225 79.207 67.3617 79.1462 67.3313 79.0853L65.1728 73.6081C64.7472 72.6344 63.7135 70.9608 62.7711 70.7174C62.5887 70.6565 62.315 70.6261 61.9198 70.9C61.3726 71.2955 60.9774 73.0604 61.5246 76.8031C61.9198 79.5417 62.7103 82.402 63.0143 83.2845C63.4399 84.5929 65.9024 91.7132 66.7233 94.1475C68.0609 93.326 69.7026 92.3827 71.4355 91.5611C71.0403 90.4657 69.4898 86.2665 68.0305 81.3979Z" fill="white"/>
<path d="M75.418 77.5639C75.2964 77.1379 75.2052 76.6815 75.0836 76.2859C74.9316 76.1033 74.8404 75.8903 74.8404 75.6164V75.4643C73.3811 70.3218 71.7395 66.9747 70.2802 66.214C69.9762 66.0618 69.7026 66.0314 69.3986 66.1531C67.088 67.0355 67.7873 74.4602 69.733 80.8806C71.1618 85.5362 72.6211 89.6137 73.0771 90.8308C74.962 90.1005 76.8165 89.6745 78.3974 89.4311C77.8197 87.0881 76.3301 81.2458 75.418 77.5639Z" fill="white"/>
<path d="M125.003 89.6441C124.972 91.2872 124.912 93.7215 124.699 95.0908C124.395 97.1296 123.331 98.6814 121.659 99.5943C122.175 100.751 123.452 103.246 125.702 105.68C129.776 110.123 135.005 112.374 141.207 112.374C155.435 112.374 159.904 105.832 162.792 99.503C160.876 98.5293 160.42 97.0687 160.238 95.5777C160.116 94.4823 160.177 91.1655 160.208 88.8225C155.009 93.4173 149.202 95.456 141.754 95.456C136.282 95.456 130.262 93.3564 125.003 89.6441Z" fill="white"/>
<path d="M112.538 51.5168C112.721 49.0521 113.085 44.7921 113.572 39.0411C114.393 29.2126 125.672 22.3052 126.128 22.0314C126.34 21.9097 126.614 21.8792 126.857 21.9401C127.1 22.0009 127.313 22.1835 127.404 22.427C127.435 22.5182 131.326 30.8253 135.4 32.6814C138.258 33.9899 140.842 34.2637 142.18 34.2942L140.903 26.2305C140.842 25.8045 141.055 25.409 141.45 25.2568C141.845 25.1047 142.271 25.2264 142.514 25.5915C142.544 25.6524 146.831 31.7686 153.489 33.5943C160.299 35.4505 167.838 34.3855 167.899 34.3855C168.355 34.3246 168.811 34.6289 168.902 35.0853C169.024 35.6026 171.73 47.4698 171.669 52.2776C171.638 53.5251 171.912 53.8294 171.973 53.8294C172.49 53.9207 173.919 52.6731 174.162 51.9124C174.557 50.6344 176.168 49.4781 177.263 48.8391C177.354 48.2305 178.327 42.3578 179.026 36.8806C180.09 28.178 176.138 18.9276 168.477 12.0812C158.079 2.80041 141.632 -0.212039 128.499 4.74785C126.31 5.56942 124.06 6.75615 121.689 8.33844C114.788 12.9332 110.38 18.2582 108.647 24.131C106.762 30.521 105.303 39.6192 109.072 46.6178C109.103 46.6787 109.407 47.2264 109.62 47.6524C109.62 47.6828 109.65 47.6828 109.65 47.7132L112.538 51.5168Z" fill="black"/>
<path d="M142.97 65.5445C143.517 65.5445 143.973 65.088 143.973 64.5403C143.973 63.9926 143.517 63.5362 142.97 63.5362C140.903 63.5362 139.535 63.171 138.896 62.4103C138.471 61.9235 138.349 61.2236 138.501 60.2499C138.866 57.7851 141.389 52.0645 141.48 51.8211C141.602 51.5777 141.602 51.3038 141.511 51.0604C141.419 50.817 141.237 50.604 140.994 50.5127C140.477 50.2997 139.899 50.5127 139.687 51.03C139.565 51.2734 136.981 57.207 136.555 59.976C136.312 61.5279 136.616 62.8059 137.407 63.7492C138.44 64.9663 140.264 65.5445 142.97 65.5445Z" fill="black"/>
<path d="M128.256 47.0438C126.644 47.0438 125.307 49.1738 125.307 51.7603C125.307 54.3467 126.614 56.4767 128.256 56.4767C129.897 56.4767 131.205 54.3467 131.205 51.7603C131.205 49.1738 129.897 47.0438 128.256 47.0438Z" fill="black"/>
<path d="M132.816 38.9194C132.633 38.7977 130.992 37.8544 127.708 37.8544C124.425 37.8544 121.476 39.4671 121.355 39.5279C120.777 39.8627 120.564 40.5625 120.899 41.1407C121.111 41.5058 121.507 41.7492 121.932 41.7492C122.145 41.7492 122.327 41.6884 122.51 41.5971C122.54 41.5971 125.003 40.2278 127.708 40.2278C130.262 40.2278 131.539 40.9277 131.6 40.9277C132.147 41.2624 132.907 41.0798 133.242 40.5321C133.576 39.9844 133.394 39.2541 132.816 38.9194Z" fill="black"/>
<path d="M154.492 47.0438C152.881 47.0438 151.543 49.1738 151.543 51.7603C151.543 54.3467 152.85 56.4767 154.492 56.4767C156.134 56.4767 157.441 54.3467 157.441 51.7603C157.441 49.1738 156.103 47.0438 154.492 47.0438Z" fill="black"/>
<path d="M161.18 40.3191C161.089 40.0148 160.876 39.7714 160.603 39.6192C160.481 39.5584 157.411 37.8544 154.401 37.8544C151.391 37.8544 148.807 39.2237 148.685 39.2845C148.108 39.5888 147.895 40.3191 148.199 40.8972C148.503 41.4754 149.233 41.6884 149.81 41.3841C149.841 41.3841 152.03 40.2278 154.401 40.2278C156.772 40.2278 159.326 41.6275 159.447 41.6884C159.63 41.7797 159.812 41.8405 160.025 41.8405C160.451 41.8405 160.846 41.5971 161.059 41.232C161.241 40.9581 161.272 40.6234 161.18 40.3191Z" fill="black"/>
<path d="M128.803 71.6607C128.56 71.9346 128.499 72.3301 128.62 72.6648C128.773 73.0909 132.785 83.0715 141.055 83.0715C141.267 83.0715 141.45 83.0715 141.663 83.0411C146.223 82.7672 149.81 80.059 152.03 77.8377C154.127 75.7382 156.012 72.9387 156.012 71.965C156.012 71.6607 155.86 71.3564 155.617 71.1738C155.374 70.9913 155.039 70.9304 154.766 70.9913C154.705 70.9913 149.658 72.3606 141.48 72.2084C133.333 72.0563 129.806 71.326 129.776 71.2956C129.411 71.2651 129.046 71.3868 128.803 71.6607ZM141.419 74.2167C146.679 74.308 150.692 73.8211 153.154 73.3951C150.844 76.8032 146.466 80.7893 141.541 81.0936C136.13 81.3979 132.603 76.1033 131.265 73.6081C133.181 73.8211 136.464 74.1254 141.419 74.2167Z" fill="black"/>
<path d="M61.6157 171.074C61.6157 172.931 61.5245 173.144 61.5245 174.33L61.7981 176.582C61.9806 187.445 62.0718 204.546 70.2801 211.636C73.2595 214.222 78.2453 215.409 82.8055 214.801C91.1963 213.705 94.054 207.315 94.7229 205.459C94.7533 199.282 95.0573 193.135 95.3309 187.08C95.4829 183.429 95.6653 179.686 95.7869 175.973H95.8477C95.8477 175.76 95.8173 175.517 95.8173 175.274C95.8477 173.935 95.8781 172.596 95.9085 171.287V171.196H95.5741C95.3005 166.601 94.8749 159.816 94.2669 151.539C93.3244 138.881 92.4732 130.3 92.1996 127.409C91.7131 127.561 91.0443 127.744 90.2843 127.957C90.1627 128.048 89.9803 128.109 89.8282 128.139H89.6762C86.5753 128.992 82.0151 130.057 78.1237 130.3C74.5667 130.513 65.9327 128.9 65.4463 128.779C64.9599 131.578 63.5006 140.007 62.8926 147.705C62.4366 153.669 61.7373 162.646 61.7373 169.644L61.6157 171.074Z" fill="#9054DC"/>
<path d="M213.319 171.074C212.893 159.572 210.917 137.42 206.539 127.653C200.824 114.933 192.95 110.308 186.748 107.691C181.58 105.531 167.625 101.027 164.494 100.115C163.035 103.34 161.211 106.626 157.988 109.243C153.914 112.56 148.412 114.173 141.237 114.173C132.816 114.173 127.404 110.187 124.364 106.87C121.932 104.192 120.564 101.545 120.017 100.297C119.895 100.328 119.743 100.388 119.591 100.449C107.187 104.557 99.1311 107.783 95.6045 110.034C94.7837 111.708 93.8716 113.199 93.0812 114.507C92.1995 115.907 91.4699 117.124 91.1051 118.159C90.4971 119.893 90.4971 123.727 90.6187 126.009C91.8955 125.644 92.686 125.37 92.7164 125.37C92.9596 125.279 93.2636 125.31 93.4764 125.462C93.6892 125.614 93.8412 125.857 93.8716 126.131C93.8716 126.222 94.9053 135.655 96.0605 151.418C96.3037 154.673 96.5165 157.686 96.6989 160.424C97.7022 151.478 99.0399 141.163 99.0399 141.041C99.1007 140.554 99.5567 140.189 100.043 140.25C100.53 140.311 100.894 140.767 100.834 141.254C100.803 141.467 96.8813 162.737 96.9422 163.863L96.7901 178.012C96.6685 181.755 96.7901 181.998 96.6381 185.65C96.2733 193.683 95.9085 202.477 96.1517 210.51C96.2125 213.005 95.8173 215.379 95.9389 217.843C96.1213 221.677 96.6381 226.942 98.7358 229.254C101.046 231.78 106.245 232.054 110.501 232.145C144.186 232.723 170.149 234.427 189.241 230.471V229.254C189.241 229.102 189.271 228.95 189.362 228.798C189.393 220.673 189.058 191.979 188.542 171.774C188.572 168.184 188.329 164.228 188.329 160.242C188.329 152.33 187.63 140.707 187.599 140.585C187.569 140.098 187.934 139.672 188.45 139.642C188.937 139.611 189.362 139.976 189.393 140.494C189.393 140.615 190.122 152.269 190.122 160.242C190.122 165.749 190.062 172.383 190.001 176.004L189.575 176.734C189.727 182.485 190.67 191.37 190.883 200.895C191.065 209.689 191.217 216.687 191.278 221.708C191.339 227.611 191.399 230.137 191.217 231.232V241.973H212.011C212.711 222.773 213.927 197.182 213.41 171.561L213.319 171.074Z" fill="#9054DC"/>
<path d="M212.559 243.888H212.893C213.41 243.888 213.836 243.462 213.866 242.944C214.383 228.673 214.808 214.402 214.96 200.131C215.082 186.073 214.991 172.137 213.927 158.109C213.471 152.327 212.893 146.576 211.951 140.856C211.16 136.139 210.218 131.24 208.242 126.859C205.475 120.712 201.857 115.691 197.51 111.979C193.801 108.814 190.183 107.08 187.477 105.924C182.096 103.641 167.261 98.8946 164.737 98.1947C162.548 97.5862 162.275 96.582 162.153 95.3344C162.001 93.9651 162.184 87.9402 162.184 87.0578C163.187 86.0232 164.19 84.8669 165.163 83.6498C170.453 76.8946 172.368 69.7743 172.854 67.6443C176.685 66.7923 179.269 65.0578 181.792 58.4852C183.738 53.4036 181.306 50.2694 179.664 48.8697C179.634 48.8089 179.634 48.748 179.604 48.6871C179.543 48.5654 179.452 48.4437 179.36 48.3524C179.664 46.4354 180.424 41.6277 181.002 37.0938C181.58 32.3469 180.759 27.2957 178.631 22.5488C176.655 18.1367 173.614 14.0288 169.814 10.6512C158.87 0.944437 141.632 -2.22015 127.891 2.98316C125.55 3.8656 123.209 5.11317 120.686 6.78676C113.389 11.6554 108.738 17.3151 106.883 23.6139C104.877 30.369 103.387 39.9845 107.461 47.5309L107.491 47.5917C107.491 47.6221 107.522 47.6526 107.552 47.683C106.853 47.8656 106.215 48.1699 105.637 48.6263C104.086 49.8739 103.174 51.9735 102.962 54.925C102.506 61.0412 105.242 64.3275 107.613 66.0011C109.346 67.2183 111.14 67.766 112.112 67.979C112.234 68.7093 112.447 69.4091 112.629 70.0786C112.66 70.2307 112.72 70.3829 112.751 70.535C113.663 73.73 114.697 77.0772 116.277 80.1201C117.889 83.2238 120.199 85.9928 123.148 88.3967C123.148 89.553 123.087 93.174 122.844 94.8476C122.57 96.6124 121.658 97.7383 120.017 98.286C119.804 98.3469 119.47 98.4686 118.983 98.6207C108.647 102.029 101.198 104.889 96.8813 107.11C96.9117 107.049 96.9421 106.958 96.9421 106.897C98.2798 102.729 101.715 90.2833 101.533 86.9057C101.411 84.8669 100.925 83.4368 100.013 82.6761C99.4654 82.2196 98.7966 81.9762 98.0973 82.0675C98.0365 82.0675 97.9453 82.0675 97.8541 82.0979C96.5165 82.1892 94.0236 82.3718 91.5002 87.1187C90.041 89.8877 89.0377 92.3828 88.4905 93.8738C87.7305 89.9181 86.332 82.8891 85.2679 77.8988C83.8695 71.2044 82.471 67.8877 80.6773 66.8227C80.0085 66.4271 79.2485 66.3358 78.4884 66.5793C76.9684 67.0661 75.9043 68.4963 75.3267 70.9001C74.0194 67.4921 72.621 65.3925 71.1617 64.6318C70.3713 64.2362 69.52 64.1754 68.7296 64.4797C66.8143 65.21 65.9023 67.553 66.0543 71.4174C65.4158 70.4437 64.4734 69.3178 63.2573 68.9831C62.4061 68.7397 61.5548 68.8918 60.7948 69.4396C59.3659 70.4437 59.0011 72.9693 59.6092 77.1685C59.8524 78.7812 60.1868 80.3026 60.4604 81.3981C59.3051 80.1505 57.6939 78.8116 56.1738 78.7812H56.1434C55.353 78.7812 54.6841 79.1159 54.1673 79.7549C52.0392 82.4326 53.1945 86.0232 54.6841 90.5267L54.8665 91.0744C55.2314 92.2307 55.657 93.4783 56.113 94.8171L56.1434 94.9389C57.5115 98.9554 59.0619 103.52 59.974 107.384C61.2812 112.922 62.9533 118.947 65.659 121.594C67.1183 123.025 67.2095 125.702 67.0879 127.254C65.7806 126.95 64.9902 126.706 64.9902 126.706C64.7166 126.615 64.4126 126.646 64.1694 126.798C63.9262 126.95 63.7438 127.193 63.7134 127.467C63.6829 127.558 61.7069 138.117 60.9772 147.581C60.582 152.419 60.5212 157.287 60.4604 162.126C60.3996 166.842 60.2172 171.619 60.43 176.336C60.9164 186.834 60.8556 198.427 65.9935 207.921C66.5711 208.986 67.2399 210.02 67.9695 210.964C68.2736 211.359 70.2801 213.033 70.2801 213.398C73.0466 215.771 76.3907 216.989 80.3125 216.989C81.1942 216.989 82.1062 216.928 83.0486 216.806C89.2201 215.984 92.7771 212.546 94.6924 209.686C94.7228 213.215 94.966 219.91 95.118 223.439C95.2092 225.143 95.3308 226.3 95.878 227.943C96.3341 229.404 97.1549 231.26 98.219 232.325L98.4318 232.538L98.4622 232.568L95.8476 273.464C95.8476 273.464 95.8476 273.495 95.878 273.495H97.7933C97.7933 273.495 97.8237 273.495 97.8237 273.464C97.8237 273.464 97.8237 273.495 97.8541 273.495H144.916C144.916 273.495 144.946 273.495 144.946 273.464C144.946 273.464 144.946 273.495 144.976 273.495H146.892C146.892 273.495 146.922 273.495 146.922 273.464C146.922 273.464 146.922 273.495 146.952 273.495H191.977L194.014 273.525H195.716C196.081 274.195 196.568 274.681 197.267 274.834C197.449 274.864 197.632 274.895 197.784 274.895C198.331 274.895 198.848 274.742 199.304 274.408C199.334 274.377 199.364 274.347 199.395 274.347C199.486 274.529 199.577 274.681 199.699 274.834C200.033 275.26 200.52 275.503 201.097 275.534H201.28C202.131 275.534 202.8 275.077 203.377 274.316C203.651 274.529 204.046 274.742 204.624 274.773H204.867C206.57 274.773 207.512 273.251 208.059 271.578C208.242 271.791 208.546 271.943 208.85 271.943H208.941C212.072 271.699 213.075 266.648 213.44 264.579L213.501 264.275C214.748 257.215 213.592 251.069 212.65 244.101H212.559V243.888ZM108.768 24.1616C110.501 18.3193 114.879 13.0247 121.75 8.42991C124.121 6.84761 126.34 5.66089 128.529 4.83932C141.602 -0.12057 158.019 2.89188 168.416 12.1422C176.077 18.9583 179.999 28.1782 178.935 36.8504C178.266 42.2667 177.323 47.9264 177.202 48.7784C175.986 49.5087 174.496 50.6042 174.07 51.8822C173.827 52.6429 172.429 53.7992 172.003 53.7383C172.003 53.7383 171.73 53.4949 171.76 52.2777C171.851 47.4396 169.115 35.5724 168.993 35.0551C168.902 34.5986 168.477 34.2943 168.021 34.2943H167.869C167.565 34.3248 160.207 35.3594 153.489 33.5032C146.861 31.6775 142.605 25.5917 142.544 25.5309C142.271 25.1353 141.784 24.9831 141.359 25.1657C140.933 25.3483 140.659 25.7743 140.751 26.2612L142.027 34.2031C140.72 34.1422 138.197 33.8683 135.4 32.5903C131.387 30.7646 127.496 22.4576 127.465 22.3663C127.344 22.1228 127.131 21.9098 126.857 21.8186C126.583 21.7273 126.279 21.7577 126.036 21.9098C125.55 22.2141 114.271 29.1215 113.42 39.0108C112.964 44.4576 112.629 48.6263 112.416 51.2127L109.741 47.5917L109.711 47.5613C109.498 47.1353 109.163 46.5876 109.163 46.5267C105.424 39.6194 106.883 30.5212 108.768 24.1616ZM118.01 79.1768C116.521 76.286 115.517 73.0302 114.636 69.9568C114.605 69.8047 114.545 69.6526 114.484 69.47C114.24 68.6484 113.997 67.8268 113.967 67.0661C113.936 66.5793 113.572 66.1837 113.085 66.1228C112.72 66.0924 104.178 64.9057 104.907 55.0468C105.09 52.7342 105.728 51.0606 106.792 50.1782C107.522 49.6 108.251 49.4783 108.677 49.4783L112.447 54.5903C112.69 54.925 113.116 55.0772 113.511 54.9555C113.906 54.8338 114.21 54.499 114.24 54.073V54.0426C114.301 53.0689 114.727 47.7743 115.457 39.1934C116.095 31.8296 123.726 25.9569 126.219 24.2224C127.526 26.7784 130.87 32.6512 134.64 34.3856C139.23 36.4852 143.183 36.1809 143.335 36.1505C143.608 36.1201 143.851 35.9984 144.034 35.7854C144.216 35.5724 144.277 35.2985 144.247 35.0246L143.365 29.4562C145.463 31.5862 148.777 34.2639 153.063 35.4202C158.839 37.0025 164.92 36.6069 167.321 36.3635C167.96 39.2238 169.905 48.3829 169.845 52.2169C169.814 54.8033 170.848 55.5336 171.76 55.6553C171.882 55.6858 171.973 55.6858 172.094 55.6858C173.766 55.6858 175.651 53.7079 176.047 52.4299C176.229 51.8213 177.445 50.9389 178.448 50.3607C179.695 51.3953 181.488 53.7383 179.968 57.7245C177.658 63.7494 175.591 65.0578 171.882 65.7881C171.486 65.8794 171.152 66.1837 171.091 66.5793C171.091 66.6705 169.48 74.9167 163.643 82.4022C163.065 83.1629 162.457 83.8932 161.819 84.5931C161.059 85.4451 160.268 86.2667 159.447 87.0274C158.87 87.5447 158.292 88.062 157.684 88.5184C156.529 89.4313 155.313 90.2224 154.006 90.8918C151.391 92.2611 148.503 93.0218 145.584 93.3261C144.338 93.4478 143.091 93.5087 141.845 93.5087C136.13 93.5087 129.806 91.0744 124.486 86.784C121.658 84.6235 119.5 82.0675 118.01 79.1768ZM124.79 95.1214C125.003 93.813 125.063 91.5613 125.094 89.8268C130.384 93.5087 136.312 95.5474 141.784 95.5474C149.202 95.5474 155.039 93.4783 160.147 89.0357C160.086 91.5004 160.055 94.5433 160.177 95.5779C160.329 96.9776 160.755 98.5294 162.7 99.5336C161.363 102.455 159.539 105.741 156.225 108.236C152.577 110.944 147.682 112.283 141.237 112.283C134.792 112.283 129.867 110.032 125.793 105.619C123.635 103.276 122.358 100.903 121.81 99.6553C123.422 98.712 124.455 97.1601 124.79 95.1214ZM69.4592 66.2445C69.5808 66.2141 69.672 66.1837 69.7936 66.1837C69.9456 66.1837 70.0976 66.2141 70.2801 66.3054C70.9793 66.6705 71.4657 67.4008 71.8609 68.0398C72.5602 69.1657 73.0466 70.3829 73.533 71.6C73.837 72.4216 74.1106 73.2736 74.3842 74.1256C74.7187 75.2514 75.0531 76.4077 75.3571 77.564C76.2691 81.1851 77.7284 86.9361 78.306 89.3095C76.4515 89.6138 74.7491 90.0703 73.1682 90.6788C72.7122 89.4008 71.2529 85.3842 69.8848 80.8503C67.3615 72.6954 67.6959 66.914 69.4592 66.2445ZM61.9501 70.961C62.3149 70.7176 62.5277 70.748 62.7101 70.7784C63.6221 71.0523 64.6254 72.665 65.051 73.6387L67.2095 79.1159C67.2399 79.1768 67.2703 79.2376 67.3311 79.3289C67.6047 80.3939 67.8175 81.1546 67.9087 81.4589C69.3376 86.1449 70.8273 90.2528 71.2833 91.5308C69.824 92.2307 68.2736 93.0523 66.7231 94.026C66.1151 92.2307 63.5005 84.6539 63.0445 83.2846C62.7405 82.4022 61.9805 79.5419 61.5548 76.8033C61.038 73.0606 61.4332 71.3261 61.9501 70.961ZM67.0575 120.103C64.7166 117.821 63.0749 111.827 61.9197 106.867C61.0076 102.911 59.4268 98.3164 58.0587 94.239V94.2086C57.6027 92.8393 57.1466 91.5308 56.7818 90.3745L56.5994 89.8268C55.961 87.8794 55.1706 85.8407 55.0489 83.7411C54.9881 82.9195 55.0489 81.8545 55.5354 81.1546C56.9946 79.2072 59.518 82.9195 60.278 83.9236C62.2237 86.6318 63.3181 89.5225 64.291 92.7176C64.4734 93.3566 64.6862 93.9956 64.899 94.6041L65.051 95.0606C63.835 95.8821 63.0445 96.4299 63.0445 96.4603C62.8317 96.6124 62.6797 96.8559 62.6493 97.1297C62.6189 97.4036 62.6797 97.647 62.8317 97.86C63.0141 98.1034 63.3181 98.2556 63.6221 98.2556C63.835 98.2556 64.0478 98.1947 64.2302 98.0426C64.2606 98.0122 68.3648 94.9693 72.9554 92.9306C77.4548 90.8918 82.4102 90.9527 82.471 90.9527H82.5014C82.7446 90.9527 83.0182 90.8614 83.2007 90.6788C83.3831 90.4963 83.5047 90.2528 83.5047 89.979C83.5047 89.4313 83.079 88.9748 82.5318 88.9748C82.4406 88.9748 81.5894 88.9748 80.3125 89.0965C80.1301 89.0965 78.6708 82.6456 78.458 81.9458C77.6676 79.3898 76.6035 76.2556 76.9076 73.5474C77.0292 72.4216 77.1508 71.2957 77.5764 70.2307C77.85 69.5308 78.3668 68.5876 79.1877 68.405C80.1909 68.192 80.6773 69.47 81.0422 70.2003C82.2582 72.6954 82.8358 75.5557 83.4135 78.2639C84.6903 84.3192 86.4536 93.387 87.0008 96.156C83.4439 98.6207 81.1638 100.964 80.2517 103.094C78.6404 106.897 78.61 111.644 78.61 111.857C78.61 112.405 79.0661 112.861 79.6133 112.861C80.1605 112.861 80.6165 112.405 80.6165 111.857C80.6165 111.827 80.6469 107.293 82.0758 103.885C83.2615 101.116 87.3352 98.3469 88.6729 97.434C89.1289 97.1297 89.2505 97.0384 89.3721 96.9167C89.6154 96.6733 89.7674 96.3082 90.2538 95.0606C90.8314 93.5087 91.8347 90.9527 93.3547 88.062C94.0844 86.6927 95.0572 85.1104 96.5469 84.4409C97.1853 84.1671 98.1277 83.8628 98.7966 84.2584C99.6478 84.7757 99.587 86.2058 99.6174 87.0578C99.7694 89.8268 96.7293 101.268 95.118 106.319C94.8444 107.171 94.51 107.993 94.1148 108.845C94.0236 108.967 93.9324 109.119 93.9019 109.271C93.1419 110.823 92.2603 112.253 91.5002 113.531C90.5882 115.022 89.7674 116.33 89.3417 117.547C88.5209 119.86 88.6425 124.485 88.7641 126.433C85.8152 127.224 81.5894 128.197 78.0628 128.41C74.8707 128.593 71.4657 128.106 69.1552 127.65C69.2464 125.641 69.1552 122.173 67.0575 120.103ZM95.3004 187.05C95.0268 193.105 94.7532 199.282 94.6924 205.429C94.0236 207.285 91.1658 213.675 82.775 214.77C78.2148 215.379 74.5363 214.405 71.5569 211.819C64.6558 205.855 63.5309 194.657 62.8925 186.167C62.0109 174.209 62.1325 161.976 62.8013 150.018C62.8317 149.227 62.8925 148.436 62.9533 147.645C63.5309 140.129 64.899 132.065 65.4766 128.809C66.0847 128.961 66.7231 129.113 67.3919 129.266C67.5135 129.357 74.4754 130.513 78.0932 130.3C81.9542 130.087 89.737 128.14 90.2842 127.957C90.8314 127.805 91.5002 127.622 92.0475 127.44C92.3819 130.604 93.2027 139.033 94.1148 151.448C94.5708 157.473 95.118 163.498 95.422 169.523C95.7564 175.426 95.574 181.207 95.3004 187.05ZM211.464 262.906C211.251 264.457 211.008 266.101 210.309 267.531C210.096 267.957 209.914 268.383 209.671 268.778C209.458 269.143 209.215 269.661 208.789 269.843C208.698 269.874 208.606 269.904 208.515 269.874C208.059 269.752 208.454 268.87 208.546 268.596C208.789 267.774 209.032 266.953 209.215 266.131C209.458 265.036 209.671 263.91 209.853 262.814C210.005 261.932 210.096 261.019 210.096 260.106C210.096 259.558 209.64 259.132 209.062 259.132C208.485 259.132 208.029 259.558 208.029 260.106C208.029 261.932 207.573 263.879 207.117 265.766C206.965 266.344 206.843 266.922 206.722 267.47C206.691 267.652 206.63 267.896 206.6 268.17C206.387 269.326 206.144 270.543 205.658 271.639C205.506 271.973 205.232 272.551 204.837 272.612C204.198 272.704 204.898 270.452 204.958 270.208C204.898 270.391 204.837 270.543 204.806 270.726C205.019 270.056 205.202 269.356 205.354 268.657L205.414 268.474C205.87 266.527 206.144 264.518 206.387 262.601C206.478 261.932 206.57 261.232 206.661 260.563C206.752 260.015 206.326 259.528 205.779 259.467C205.202 259.406 204.685 259.771 204.624 260.319C204.533 261.019 204.441 261.688 204.35 262.388C204.107 264.275 203.864 266.222 203.408 268.078L203.347 268.291C203.073 269.509 202.739 270.756 202.253 271.912C202.07 272.369 201.827 272.886 201.462 273.251C201.067 273.677 201.067 272.704 201.067 272.491C201.067 271.395 201.462 270.482 201.736 269.448C202.101 267.957 202.313 266.405 202.526 264.883C202.648 263.91 202.739 262.936 202.83 261.962C202.891 261.354 202.921 260.867 202.982 260.623C203.043 260.106 202.678 259.65 202.131 259.558C201.584 259.498 201.097 259.863 201.006 260.35C200.976 260.654 200.915 261.171 200.854 261.78C200.672 263.666 200.489 265.553 200.155 267.409C199.972 268.444 199.76 269.509 199.425 270.513C199.182 271.243 198.908 272.034 198.331 272.582C197.419 273.495 197.176 271.76 197.145 271.121C197.054 269.417 197.206 267.683 197.388 265.979C197.54 264.457 197.723 262.936 197.814 261.415V261.354C197.875 260.106 197.905 258.859 197.905 257.581C197.905 256.789 197.875 256.029 197.844 255.238C197.814 254.629 197.814 254.142 197.814 253.777C197.814 253.229 197.358 252.803 196.78 252.803C196.203 252.803 195.747 253.229 195.747 253.777C195.747 254.142 195.777 254.659 195.777 255.298C195.838 257.307 195.868 259.315 195.747 261.323C195.716 261.932 195.655 262.51 195.564 263.119C195.443 263.91 195.351 264.762 194.987 265.462C194.683 266.04 194.196 266.009 193.74 265.553C193.163 264.975 192.919 264.092 192.737 263.332C192.311 261.567 192.19 259.741 192.099 257.946C192.099 257.641 192.068 257.398 192.068 257.155C191.764 252.225 192.038 248.33 193.011 243.948H210.552C211.008 247.265 211.403 250.612 211.616 253.96C211.647 257.307 211.951 259.498 211.464 262.906ZM193.315 241.94H191.156V231.199C191.338 230.103 191.308 227.578 191.217 221.675C191.156 216.654 191.034 209.625 190.822 200.861C190.7 195.384 190.578 189.907 190.457 184.43C190.366 180.17 190.214 175.91 190.153 171.68C190.153 167.846 190.183 164.043 190.183 160.209C190.183 152.206 189.454 140.552 189.454 140.43C189.423 140.156 189.332 139.913 189.119 139.73C188.906 139.547 188.663 139.456 188.39 139.487C188.116 139.517 187.873 139.608 187.69 139.821C187.508 140.034 187.417 140.278 187.447 140.552C187.447 140.673 188.177 152.236 188.177 160.209C188.177 168.181 188.298 175.849 188.481 183.7C188.663 191.033 188.815 198.336 188.967 205.669C189.119 213.368 189.332 221.066 189.302 228.764C189.302 229.464 189.302 230.043 189.271 230.408C189.241 230.408 189.21 230.408 189.18 230.438C170.057 234.394 144.125 232.69 110.44 232.112C104.694 232.02 98.8878 231.442 97.5197 225.478C96.9117 222.892 96.9421 217.688 96.8205 215.072C96.5773 209.503 96.6381 203.874 96.8205 198.275C96.8813 195.932 96.9725 193.558 97.0941 191.215C97.2765 187.199 97.4589 183.213 97.6413 179.196C97.8237 175.392 97.4589 171.619 97.7325 167.816C97.9149 165.716 98.1277 163.617 98.371 161.547C98.8574 157.44 99.435 153.332 99.9214 149.224C100.013 148.433 100.104 147.672 100.195 146.881C100.438 144.994 100.651 143.108 100.894 141.221C100.955 140.673 100.59 140.186 100.043 140.095C99.7694 140.065 99.5262 140.126 99.3134 140.308C99.1006 140.46 98.979 140.704 98.9182 141.008C98.7966 142.043 97.6413 151.08 96.6989 159.326C96.5165 156.709 96.3341 154.062 96.1213 151.415C94.9964 136.352 94.0236 127.132 93.9324 126.128C93.902 125.824 93.7499 125.55 93.4763 125.398C93.2331 125.246 92.8987 125.185 92.6251 125.276C92.6251 125.276 91.8651 125.52 90.649 125.885C90.5882 124.394 90.497 120.073 91.1354 118.186C91.5002 117.152 92.2603 115.935 93.1115 114.535C93.902 113.227 94.814 111.766 95.6348 110.092C99.1614 107.841 107.218 104.615 119.591 100.538L119.926 100.416C120.534 101.755 121.871 104.341 124.273 106.928C127.344 110.275 132.785 114.261 141.207 114.261C148.412 114.261 153.914 112.648 158.019 109.301C161.332 106.623 163.156 103.215 164.524 100.203C168.081 101.238 181.64 105.619 186.687 107.749C192.889 110.366 200.702 114.991 206.418 127.68C208.333 131.91 209.214 136.626 209.944 141.16C210.856 146.668 211.434 152.267 211.859 157.835C213.106 173.901 213.136 189.998 212.893 206.065C212.711 218.023 212.346 229.951 211.92 241.91C211.981 241.94 193.315 241.94 193.315 241.94Z" fill="black"/>
</g>
<defs>
<clipPath id="clip0_7443_25461">
<rect width="267" height="223" fill="white" transform="translate(0 0.5)"/>
</clipPath>
</defs>
</svg>
