<svg width="268" height="224" viewBox="0 0 268 224" fill="none" xmlns="http://www.w3.org/2000/svg">
<path d="M134.694 224C196.657 224 246.888 173.856 246.888 112C246.888 50.1441 196.657 0 134.694 0C72.7309 0 22.5 50.1441 22.5 112C22.5 173.856 72.7309 224 134.694 224Z" fill="#9154DD"/>
<path d="M62.4321 87.8219L60.3685 68.0168C59.8617 63.2101 63.4096 58.8371 68.2246 58.3673L187.985 45.8987C192.8 45.3928 197.181 48.9345 197.651 53.7413L199.715 73.5464L62.4321 87.8219Z" fill="#D2ACF6"/>
<path d="M71.7364 176.873C72.2432 181.679 76.5876 185.221 81.4026 184.715L201.163 172.247C205.978 171.741 209.526 167.404 209.019 162.597L199.715 73.5463L62.4321 87.8219L71.7364 176.873Z" fill="#F8EFFF"/>
<path d="M101.568 65.0171L97.9837 65.3785C96.8252 65.487 95.7753 64.6557 95.6667 63.4992L94.0013 47.525C93.8927 46.3685 94.7254 45.3205 95.8839 45.212L99.468 44.8506C100.627 44.7422 101.676 45.5734 101.785 46.7299L103.45 62.7041C103.559 63.8606 102.726 64.9087 101.568 65.0171Z" fill="#6700CD"/>
<path d="M163.62 58.548L160.036 58.9094C158.878 59.0178 157.828 58.1866 157.719 57.0301L156.054 41.0559C155.945 39.8994 156.778 38.8513 157.936 38.7429L161.52 38.3815C162.679 38.273 163.729 39.1043 163.837 40.2608L165.503 56.235C165.611 57.3915 164.779 58.4395 163.62 58.548Z" fill="#6700CD"/>
<path d="M125.752 111.313L124.376 98.2666C124.267 97.2185 125.027 96.2788 126.077 96.2065L139.147 94.8332C140.197 94.7248 141.138 95.4837 141.21 96.5318L142.586 109.579C142.695 110.627 141.934 111.566 140.885 111.639L127.815 113.012C126.801 113.084 125.86 112.325 125.752 111.313Z" fill="#D2ACF6"/>
<path d="M149.465 108.82L148.089 95.7728C147.98 94.7248 148.741 93.7851 149.79 93.7128L162.86 92.3395C163.91 92.2311 164.851 92.99 164.923 94.0381L166.299 107.085C166.408 108.133 165.648 109.073 164.598 109.145L151.528 110.518C150.515 110.627 149.573 109.868 149.465 108.82Z" fill="#D2ACF6"/>
<path d="M173.214 106.362L171.838 93.3153C171.73 92.2672 172.49 91.3276 173.54 91.2553L186.609 89.882C187.659 89.7735 188.6 90.5325 188.673 91.5806L190.048 104.627C190.157 105.675 189.397 106.615 188.347 106.687L175.278 108.061C174.264 108.133 173.323 107.374 173.214 106.362Z" fill="#6700CD"/>
<path d="M104.681 139.322L103.306 126.276C103.197 125.228 103.957 124.288 105.007 124.216L118.076 122.842C119.126 122.734 120.068 123.493 120.14 124.541L121.516 137.588C121.624 138.636 120.864 139.575 119.814 139.648L106.745 141.021C105.731 141.093 104.79 140.334 104.681 139.322Z" fill="#D2ACF6"/>
<path d="M128.431 136.829L127.055 123.782C126.946 122.734 127.707 121.794 128.756 121.722L141.826 120.349C142.876 120.24 143.817 120.999 143.889 122.047L145.265 135.094C145.374 136.142 144.613 137.082 143.564 137.154L130.494 138.527C129.48 138.636 128.539 137.877 128.431 136.829Z" fill="#D2ACF6"/>
<path d="M152.144 134.371L150.768 121.324C150.659 120.276 151.42 119.337 152.47 119.264L165.539 117.891C166.589 117.783 167.53 118.542 167.602 119.59L168.978 132.636C169.087 133.684 168.327 134.624 167.277 134.696L154.207 136.07C153.194 136.142 152.252 135.383 152.144 134.371Z" fill="#6700CD"/>
<path d="M175.893 131.877L174.517 118.831C174.409 117.783 175.169 116.843 176.219 116.771L189.288 115.397C190.338 115.289 191.279 116.048 191.352 117.096L192.728 130.143C192.836 131.191 192.076 132.13 191.026 132.203L177.957 133.576C176.943 133.684 176.002 132.926 175.893 131.877Z" fill="#9154DD"/>
<path d="M80.9682 141.78L79.5925 128.733C79.4838 127.685 80.2441 126.745 81.294 126.673L94.3634 125.3C95.4133 125.191 96.3545 125.95 96.427 126.998L97.8027 140.045C97.9113 141.093 97.151 142.033 96.1011 142.105L83.0318 143.479C82.0181 143.587 81.0768 142.828 80.9682 141.78Z" fill="#6700CD"/>
<path d="M107.36 164.982L105.985 151.935C105.876 150.887 106.636 149.948 107.686 149.875L120.756 148.502C121.805 148.394 122.747 149.153 122.819 150.201L124.195 163.248C124.303 164.296 123.543 165.235 122.493 165.308L109.424 166.681C108.41 166.789 107.469 166.03 107.36 164.982Z" fill="#D2ACF6"/>
<path d="M131.11 162.525L129.734 149.478C129.625 148.43 130.386 147.49 131.435 147.418L144.505 146.045C145.555 145.936 146.496 146.695 146.568 147.743L147.944 160.79C148.053 161.838 147.292 162.778 146.243 162.85L133.173 164.223C132.16 164.296 131.218 163.537 131.11 162.525Z" fill="#D2ACF6"/>
<path d="M83.6834 167.765L82.3077 154.718C82.1991 153.67 82.9593 152.731 84.0092 152.658L97.0786 151.285C98.1285 151.177 99.0698 151.935 99.1422 152.984L100.518 166.03C100.627 167.078 99.8663 168.018 98.8164 168.09L85.747 169.464C84.7333 169.536 83.792 168.777 83.6834 167.765Z" fill="#9154DD"/>
<path d="M180.78 152.984L183.061 174.668H183.206L207.209 145.141V145.033L185.451 147.31C182.591 147.563 180.491 150.128 180.78 152.984Z" fill="#6700CD"/>
<path d="M213.146 166.283L210.865 144.599L207.028 144.996L174.988 184.39V184.498L196.746 182.221C207.679 172.066 213.436 169.138 213.146 166.283Z" fill="#9154DD"/>
<path d="M56.8207 217.133C75.6355 217.133 90.8879 201.907 90.8879 183.125C90.8879 164.343 75.6355 149.116 56.8207 149.116C38.0058 149.116 22.7534 164.343 22.7534 183.125C22.7534 201.907 38.0058 217.133 56.8207 217.133Z" fill="#FFCE6A"/>
<path d="M57.8343 189.775H30.7905V217.097H57.8343V189.775Z" fill="#FFCE6A"/>
<path d="M68.2247 183.125C68.2247 185.98 70.4331 188.329 73.3655 188.329C76.298 188.329 78.5064 186.016 78.5064 183.125C78.5064 180.234 76.298 177.921 73.3655 177.921C70.4331 177.921 68.2247 180.234 68.2247 183.125Z" fill="#6700CD"/>
<path d="M52.5849 183.125C52.5849 185.98 54.7933 188.329 57.7257 188.329C60.6582 188.329 62.8666 186.016 62.8666 183.125C62.8666 180.234 60.6582 177.921 57.7257 177.921C54.7933 177.921 52.5849 180.234 52.5849 183.125Z" fill="#6700CD"/>
<path d="M36.9451 183.125C36.9451 185.98 39.1535 188.329 42.0859 188.329C45.0184 188.329 47.2268 186.016 47.2268 183.125C47.2268 180.234 45.0184 177.921 42.0859 177.921C39.1535 177.921 36.9451 180.234 36.9451 183.125Z" fill="#6700CD"/>
<path d="M221.618 87.1713C243.092 87.1713 260.5 69.7932 260.5 48.3562C260.5 26.9193 243.092 9.54114 221.618 9.54114C200.144 9.54114 182.735 26.9193 182.735 48.3562C182.735 69.7932 200.144 87.1713 221.618 87.1713Z" fill="#6700CD"/>
<path d="M251.301 55.9927H220.419V87.1822H251.301V55.9927Z" fill="#6700CD"/>
<path d="M231.32 48.3563C231.32 51.0307 233.348 53.163 236.063 53.163C238.778 53.163 240.805 50.9945 240.805 48.3563C240.805 45.718 238.778 43.5496 236.063 43.5496C233.348 43.5496 231.32 45.718 231.32 48.3563Z" fill="#61C89F"/>
<path d="M216.875 48.3563C216.875 51.0307 218.902 53.163 221.618 53.163C224.333 53.163 226.36 50.9945 226.36 48.3563C226.36 45.718 224.333 43.5496 221.618 43.5496C218.902 43.5496 216.875 45.718 216.875 48.3563Z" fill="#61C89F"/>
<path d="M202.394 48.3563C202.394 51.0307 204.421 53.163 207.136 53.163C209.852 53.163 211.879 50.9945 211.879 48.3563C211.879 45.718 209.852 43.5496 207.136 43.5496C204.421 43.5496 202.394 45.718 202.394 48.3563Z" fill="#61C89F"/>
</svg>
